<svg width="19" height="19" viewBox="0 0 19 19" fill="none" xmlns="http://www.w3.org/2000/svg">
<path d="M11.2813 13.0625H10.6875C10.3726 13.0625 10.0705 12.9374 9.84781 12.7147C9.62511 12.492 9.5 12.1899 9.5 11.875V8.90625C9.5 8.74878 9.43744 8.59776 9.32609 8.48641C9.21474 8.37506 9.06372 8.3125 8.90625 8.3125H8.3125" stroke="#191D31" stroke-width="1.5" stroke-linecap="round" stroke-linejoin="round"/>
<path d="M9.20312 5.34375C9.14441 5.34375 9.08701 5.36116 9.03819 5.39378C8.98937 5.4264 8.95132 5.47277 8.92885 5.52702C8.90638 5.58126 8.9005 5.64095 8.91195 5.69854C8.92341 5.75613 8.95168 5.80903 8.9932 5.85055C9.03472 5.89207 9.08762 5.92034 9.14521 5.9318C9.2028 5.94325 9.26249 5.93737 9.31673 5.9149C9.37098 5.89243 9.41735 5.85438 9.44997 5.80556C9.48259 5.75674 9.5 5.69934 9.5 5.64062C9.5 5.56189 9.46872 5.48638 9.41305 5.4307C9.35737 5.37503 9.28186 5.34375 9.20312 5.34375Z" fill="#191D31" stroke="#191D31" stroke-width="1.5" stroke-linecap="round" stroke-linejoin="round"/>
<path d="M0.59375 9.5C0.59375 11.8621 1.53208 14.1274 3.20233 15.7977C4.87258 17.4679 7.13792 18.4063 9.5 18.4063C11.8621 18.4063 14.1274 17.4679 15.7977 15.7977C17.4679 14.1274 18.4063 11.8621 18.4063 9.5C18.4063 7.13792 17.4679 4.87258 15.7977 3.20233C14.1274 1.53208 11.8621 0.59375 9.5 0.59375C7.13792 0.59375 4.87258 1.53208 3.20233 3.20233C1.53208 4.87258 0.59375 7.13792 0.59375 9.5V9.5Z" stroke="#191D31" stroke-width="1.5" stroke-linecap="round" stroke-linejoin="round"/>
</svg>
