<svg width="24" height="24" viewBox="0 0 24 24" fill="none" xmlns="http://www.w3.org/2000/svg">
<path fill-rule="evenodd" clip-rule="evenodd" d="M20.5743 20.5916C21.2823 19.5116 21.5462 18.9597 22.0862 17.7477C18.1023 16.2357 17.4664 10.5599 21.4023 8.38792C20.2023 6.87596 18.5103 6 16.9144 6C15.7624 6 14.9704 6.30001 14.2624 6.576C13.6625 6.80399 13.1225 7.00797 12.4505 7.00797C11.7305 7.00797 11.0945 6.77999 10.4225 6.54C9.69056 6.27601 8.92258 6 7.9626 6C6.17465 6 4.26671 7.09197 3.05474 8.96392C1.35078 11.6039 1.65078 16.5477 4.39871 20.7716C5.38268 22.2836 6.70264 23.9755 8.4186 23.9995C9.13858 24.0115 9.60656 23.7955 10.1226 23.5676C10.7105 23.3036 11.3465 23.0155 12.4625 23.0155C13.5785 23.0035 14.2024 23.3036 14.7904 23.5676C15.2944 23.7955 15.7504 24.0115 16.4584 23.9995C18.1983 23.9755 19.5903 22.1036 20.5743 20.5916Z" fill="#2E2E2E"/>
<path fill-rule="evenodd" clip-rule="evenodd" d="M16.9651 0C17.1361 1.25807 16.6553 2.50472 16.025 3.37393C15.352 4.31177 14.1768 5.04372 13.0444 4.99797C12.8414 3.78564 13.3649 2.539 14.0059 1.7041C14.7216 0.789142 15.9289 0.0800591 16.9651 0Z" fill="#2E2E2E"/>
</svg>
