<svg width="56" height="56" viewBox="0 0 56 56" fill="none" xmlns="http://www.w3.org/2000/svg">
<rect width="56" height="56" rx="28" fill="white"/>
<path fill-rule="evenodd" clip-rule="evenodd" d="M22.3705 16.7643C22.9455 16.0939 23.7835 15.625 24.7656 15.625H31.2344C32.2165 15.625 33.0545 16.0939 33.6295 16.7643C33.6649 16.8055 33.6972 16.8492 33.7262 16.8951L35.5484 19.7741C35.7778 20.0174 36.0406 20.125 36.2266 20.125H40.375C41.2701 20.125 42.1286 20.4806 42.7615 21.1135C43.3944 21.7464 43.75 22.6049 43.75 23.5V37C43.75 37.8951 43.3944 38.7536 42.7615 39.3865C42.1286 40.0194 41.2701 40.375 40.375 40.375H15.625C14.7299 40.375 13.8714 40.0194 13.2385 39.3865C12.6056 38.7535 12.25 37.8951 12.25 37V23.5C12.25 22.6049 12.6056 21.7465 13.2385 21.1135C13.8714 20.4806 14.7299 20.125 15.625 20.125H19.8438C19.9917 20.125 20.1981 20.0515 20.4499 19.7768L22.2738 16.8951C22.3028 16.8492 22.3351 16.8055 22.3705 16.7643ZM24.1248 18.1777L22.3033 21.0557C22.2744 21.1013 22.2422 21.1449 22.2071 21.1859C21.692 21.7873 20.8987 22.375 19.8438 22.375H15.625C15.3266 22.375 15.0405 22.4935 14.8295 22.7045C14.6185 22.9155 14.5 23.2016 14.5 23.5V37C14.5 37.2984 14.6185 37.5845 14.8295 37.7955C15.0405 38.0065 15.3266 38.125 15.625 38.125H40.375C40.6734 38.125 40.9595 38.0065 41.1705 37.7955C41.3815 37.5845 41.5 37.2984 41.5 37V23.5C41.5 23.2016 41.3815 22.9155 41.1705 22.7045C40.9595 22.4935 40.6734 22.375 40.375 22.375H36.2266C35.2088 22.375 34.3421 21.8271 33.7929 21.1859C33.7578 21.1449 33.7256 21.1013 33.6967 21.0557L31.8752 18.1777C31.673 17.9653 31.4479 17.875 31.2344 17.875H24.7656C24.5521 17.875 24.3271 17.9653 24.1248 18.1777Z" fill="url(#paint0_linear_104_11892)"/>
<path fill-rule="evenodd" clip-rule="evenodd" d="M28 24.625C25.5147 24.625 23.5 26.6397 23.5 29.125C23.5 31.6103 25.5147 33.625 28 33.625C30.4853 33.625 32.5 31.6103 32.5 29.125C32.5 26.6397 30.4853 24.625 28 24.625ZM21.25 29.125C21.25 25.3971 24.2721 22.375 28 22.375C31.7279 22.375 34.75 25.3971 34.75 29.125C34.75 32.8529 31.7279 35.875 28 35.875C24.2721 35.875 21.25 32.8529 21.25 29.125Z" fill="url(#paint1_linear_104_11892)"/>
<path fill-rule="evenodd" clip-rule="evenodd" d="M15.9062 19.5625C15.9062 18.9412 16.4099 18.4375 17.0312 18.4375H18.7188C19.3401 18.4375 19.8438 18.9412 19.8438 19.5625V21.1094C19.8438 21.7307 19.3401 22.2344 18.7188 22.2344C18.3827 22.2344 18.0811 22.0871 17.875 21.8535C17.6689 22.0871 17.3673 22.2344 17.0312 22.2344C16.4099 22.2344 15.9062 21.7307 15.9062 21.1094V19.5625Z" fill="url(#paint2_linear_104_11892)"/>
<defs>
<linearGradient id="paint0_linear_104_11892" x1="28" y1="15.625" x2="28" y2="40.375" gradientUnits="userSpaceOnUse">
<stop stop-color="#24C5FA"/>
<stop offset="1" stop-color="#2774F2"/>
</linearGradient>
<linearGradient id="paint1_linear_104_11892" x1="28" y1="22.375" x2="28" y2="35.875" gradientUnits="userSpaceOnUse">
<stop stop-color="#24C5FA"/>
<stop offset="1" stop-color="#2774F2"/>
</linearGradient>
<linearGradient id="paint2_linear_104_11892" x1="17.875" y1="18.4375" x2="17.875" y2="22.2344" gradientUnits="userSpaceOnUse">
<stop stop-color="#24C5FA"/>
<stop offset="1" stop-color="#1BACF4"/>
</linearGradient>
</defs>
</svg>
