<svg width="28" height="28" viewBox="0 0 28 28" fill="none" xmlns="http://www.w3.org/2000/svg">
<path d="M14 23.52C8.73601 23.52 4.48001 19.264 4.48001 14C4.48001 8.73598 8.73601 4.47998 14 4.47998C19.264 4.47998 23.52 8.73598 23.52 14C23.52 19.264 19.264 23.52 14 23.52ZM14 5.59998C9.35201 5.59998 5.60001 9.35198 5.60001 14C5.60001 18.648 9.35201 22.4 14 22.4C18.648 22.4 22.4 18.648 22.4 14C22.4 9.35198 18.648 5.59998 14 5.59998Z" fill="white"/>
<path d="M18.0785 9.12915L18.8703 9.92155L9.92151 18.8703L9.12967 18.0785L18.0785 9.12915Z" fill="white"/>
<path d="M9.92151 9.12915L18.8703 18.078L18.0785 18.8703L9.12967 9.92155L9.92151 9.12915Z" fill="white"/>
</svg>
