<svg width="19" height="20" viewBox="0 0 19 20" fill="none" xmlns="http://www.w3.org/2000/svg">
<path d="M8.3125 4.0625H10.6875C10.6875 3.74756 10.5624 3.44551 10.3397 3.22281C10.117 3.00011 9.81494 2.875 9.5 2.875C9.18506 2.875 8.88301 3.00011 8.66031 3.22281C8.43761 3.44551 8.3125 3.74756 8.3125 4.0625ZM7.125 4.0625C7.125 3.43261 7.37522 2.82852 7.82062 2.38312C8.26602 1.93772 8.87011 1.6875 9.5 1.6875C10.1299 1.6875 10.734 1.93772 11.1794 2.38312C11.6248 2.82852 11.875 3.43261 11.875 4.0625H16.625C16.7825 4.0625 16.9335 4.12506 17.0448 4.23641C17.1562 4.34776 17.2188 4.49878 17.2188 4.65625C17.2188 4.81372 17.1562 4.96474 17.0448 5.07609C16.9335 5.18744 16.7825 5.25 16.625 5.25H15.9552L14.5243 15.7451C14.4273 16.4564 14.0758 17.1083 13.535 17.5804C12.9942 18.0524 12.3007 18.3125 11.5829 18.3125H7.41712C6.6993 18.3125 6.00579 18.0524 5.46499 17.5804C4.9242 17.1083 4.57274 16.4564 4.47569 15.7451L3.04475 5.25H2.375C2.21753 5.25 2.06651 5.18744 1.95516 5.07609C1.84381 4.96474 1.78125 4.81372 1.78125 4.65625C1.78125 4.49878 1.84381 4.34776 1.95516 4.23641C2.06651 4.12506 2.21753 4.0625 2.375 4.0625H7.125ZM8.3125 8.21875C8.3125 8.06128 8.24994 7.91025 8.13859 7.79891C8.02725 7.68756 7.87622 7.625 7.71875 7.625C7.56128 7.625 7.41025 7.68756 7.29891 7.79891C7.18756 7.91025 7.125 8.06128 7.125 8.21875V14.1562C7.125 14.3137 7.18756 14.4647 7.29891 14.5761C7.41025 14.6874 7.56128 14.75 7.71875 14.75C7.87622 14.75 8.02725 14.6874 8.13859 14.5761C8.24994 14.4647 8.3125 14.3137 8.3125 14.1562V8.21875ZM11.2812 7.625C11.4387 7.625 11.5897 7.68756 11.7011 7.79891C11.8124 7.91025 11.875 8.06128 11.875 8.21875V14.1562C11.875 14.3137 11.8124 14.4647 11.7011 14.5761C11.5897 14.6874 11.4387 14.75 11.2812 14.75C11.1238 14.75 10.9728 14.6874 10.8614 14.5761C10.7501 14.4647 10.6875 14.3137 10.6875 14.1562V8.21875C10.6875 8.06128 10.7501 7.91025 10.8614 7.79891C10.9728 7.68756 11.1238 7.625 11.2812 7.625ZM5.6525 15.5848C5.71078 16.0115 5.92164 16.4026 6.24606 16.6857C6.57049 16.9689 6.98651 17.1249 7.41712 17.125H11.5829C12.0137 17.1252 12.43 16.9693 12.7547 16.6861C13.0793 16.4029 13.2904 16.0117 13.3487 15.5848L14.7571 5.25H4.24294L5.6525 15.5848Z" fill="#EC4646"/>
</svg>
