<svg fill="none" height="16" viewBox="0 0 17 16" width="17" xmlns="http://www.w3.org/2000/svg">
    <path
        d="M3.75065 9.58398H10.084V8.00065H3.75065V9.58398ZM3.75065 7.20898H13.2507V5.62565H3.75065V7.20898ZM3.75065 4.83398H13.2507V3.25065H3.75065V4.83398ZM0.583984 15.9173V1.66732C0.583984 1.2319 0.739019 0.859158 1.04909 0.549089C1.35916 0.239019 1.7319 0.0839844 2.16732 0.0839844H14.834C15.2694 0.0839844 15.6421 0.239019 15.9522 0.549089C16.2623 0.859158 16.4173 1.2319 16.4173 1.66732V11.1673C16.4173 11.6027 16.2623 11.9755 15.9522 12.2855C15.6421 12.5956 15.2694 12.7507 14.834 12.7507H3.75065L0.583984 15.9173ZM3.07773 11.1673H14.834V1.66732H2.16732V12.0579L3.07773 11.1673Z"
        fill="#1F1F1F" />
</svg>
