<svg width="80" height="80" viewBox="0 0 80 80" fill="none" xmlns="http://www.w3.org/2000/svg">
<path fill-rule="evenodd" clip-rule="evenodd" d="M61.666 70.0001H18.3327C11.8893 70.0001 6.66602 64.7767 6.66602 58.3334V58.3334C6.66602 51.8901 11.8893 46.6667 18.3327 46.6667H61.666C68.1093 46.6667 73.3327 51.8901 73.3327 58.3334V58.3334C73.3327 64.7767 68.1093 70.0001 61.666 70.0001Z" stroke="#191D31" stroke-width="2.5" stroke-linecap="round" stroke-linejoin="round"/>
<path d="M60.814 58.3301C60.814 57.8801 60.4507 57.5168 60.0007 57.5201C59.5507 57.5201 59.1873 57.8834 59.1873 58.3334C59.1873 58.7834 59.5507 59.1468 60.0007 59.1468C60.4507 59.1468 60.814 58.7834 60.814 58.3301" stroke="#191D31" stroke-width="1.625" stroke-linecap="round" stroke-linejoin="round"/>
<path d="M47.48 58.3301C47.48 57.8801 47.1167 57.5168 46.6667 57.5201C46.2167 57.5201 45.8533 57.8834 45.8533 58.3334C45.8533 58.7834 46.2167 59.1468 46.6667 59.1468C47.1133 59.1468 47.48 58.7834 47.48 58.3301" stroke="#191D31" stroke-width="1.625" stroke-linecap="round" stroke-linejoin="round"/>
<path d="M34.146 58.3301C34.146 57.8801 33.7827 57.5168 33.3327 57.5201C32.8827 57.5201 32.5193 57.8834 32.5193 58.3334C32.5193 58.7834 32.8827 59.1468 33.3327 59.1468C33.7793 59.1468 34.146 58.7834 34.146 58.3301" stroke="#191D31" stroke-width="1.625" stroke-linecap="round" stroke-linejoin="round"/>
<path d="M20.814 58.3301C20.814 57.8801 20.4507 57.5168 20.0007 57.5201C19.5507 57.5201 19.1873 57.8834 19.1873 58.3334C19.1873 58.7834 19.5507 59.1468 20.0007 59.1468C20.4473 59.1468 20.814 58.7834 20.814 58.3301" stroke="#191D31" stroke-width="1.625" stroke-linecap="round" stroke-linejoin="round"/>
<path d="M63.3327 28.5701V19.8901" stroke="#191D31" stroke-width="2.5" stroke-linecap="round" stroke-linejoin="round"/>
<path d="M50.0007 28.68V20" stroke="#191D31" stroke-width="2.5" stroke-linecap="round" stroke-linejoin="round"/>
<path d="M33.7374 12.93C37.6441 16.8367 37.6441 23.1667 33.7374 27.0733C29.8307 30.98 23.5007 30.98 19.5941 27.0733C15.6874 23.1667 15.6874 16.8367 19.5941 12.93C23.5007 9.02333 29.8341 9.02333 33.7374 12.93" stroke="#191D31" stroke-width="2.5" stroke-linecap="round" stroke-linejoin="round"/>
<path d="M63.3327 19.89L36.666 20" stroke="#191D31" stroke-width="2.5" stroke-linecap="round" stroke-linejoin="round"/>
</svg>
