<svg width="24" height="24" viewBox="0 0 24 24" fill="none" xmlns="http://www.w3.org/2000/svg">
<path d="M24.0012 12.27C24.0012 11.48 23.9297 10.73 23.8071 10H12.2617V14.51H18.8722C18.5759 15.99 17.7074 17.24 16.4201 18.09V21.09H20.3639C22.673 19 24.0012 15.92 24.0012 12.27Z" fill="#4285F4"/>
<path d="M12.2609 24C15.5712 24 18.3401 22.92 20.3631 21.09L16.4193 18.09C15.3158 18.81 13.9161 19.25 12.2609 19.25C9.06293 19.25 6.3554 17.14 5.38477 14.29H1.31836V17.38C3.33113 21.3 7.46906 24 12.2609 24Z" fill="#34A853"/>
<path d="M5.38442 14.2901C5.12899 13.5701 4.99617 12.8001 4.99617 12.0001C4.99617 11.2001 5.13921 10.4301 5.38442 9.71011V6.62012H1.31801C0.480203 8.24011 0 10.0601 0 12.0001C0 13.9401 0.480203 15.7601 1.31801 17.3801L5.38442 14.2901Z" fill="#FBBC05"/>
<path d="M12.2609 4.74999C14.0693 4.74999 15.6836 5.35999 16.9608 6.54999L20.455 3.12999C18.3401 1.19 15.5712 0 12.2609 0C7.46906 0 3.33113 2.7 1.31836 6.61999L5.38477 9.70998C6.3554 6.85999 9.06293 4.74999 12.2609 4.74999Z" fill="#EA4335"/>
</svg>
