<svg xmlns="http://www.w3.org/2000/svg" fill="none" viewBox="20 10 56 56">
<g filter="url(#filter0_d_2052_5987)">
<rect x="20" y="10" width="56" height="56" rx="28" fill="white"/>
</g>
<path d="M58.5 29.8334C58.5 29.1891 57.9777 28.6667 57.3333 28.6667H38.6667C38.0223 28.6667 37.5 29.1891 37.5 29.8334C37.5 30.4777 38.0223 31.0001 38.6667 31.0001H57.3333C57.9777 31.0001 58.5 30.4777 58.5 29.8334ZM51.5 38.0001C51.5 37.3557 50.9777 36.8334 50.3333 36.8334H38.6667C38.0223 36.8334 37.5 37.3557 37.5 38.0001C37.5 38.6444 38.0223 39.1667 38.6667 39.1667H50.3333C50.9777 39.1667 51.5 38.6444 51.5 38.0001ZM58.5 46.1667C58.5 45.5224 57.9777 45.0001 57.3333 45.0001H38.6667C38.0223 45.0001 37.5 45.5224 37.5 46.1667C37.5 46.8111 38.0223 47.3334 38.6667 47.3334H57.3333C57.9777 47.3334 58.5 46.8111 58.5 46.1667Z" fill="url(#paint0_linear_2052_5987)"/>
<defs>
<filter id="filter0_d_2052_5987" x="0" y="0" width="96" height="96" filterUnits="userSpaceOnUse" color-interpolation-filters="sRGB">
<feFlood flood-opacity="0" result="BackgroundImageFix"/>
<feColorMatrix in="SourceAlpha" type="matrix" values="0 0 0 0 0 0 0 0 0 0 0 0 0 0 0 0 0 0 127 0" result="hardAlpha"/>
<feOffset dy="10"/>
<feGaussianBlur stdDeviation="10"/>
<feComposite in2="hardAlpha" operator="out"/>
<feColorMatrix type="matrix" values="0 0 0 0 0 0 0 0 0 0 0 0 0 0 0 0 0 0 0.08 0"/>
<feBlend mode="normal" in2="BackgroundImageFix" result="effect1_dropShadow_2052_5987"/>
<feBlend mode="normal" in="SourceGraphic" in2="effect1_dropShadow_2052_5987" result="shape"/>
</filter>
<linearGradient id="paint0_linear_2052_5987" x1="32.4908" y1="52.3112" x2="59.3756" y2="51.2698" gradientUnits="userSpaceOnUse">
<stop stop-color="#24C5FA"/>
<stop offset="1" stop-color="#2774F2"/>
</linearGradient>
</defs>
</svg>