<svg width="24" height="24" viewBox="0 0 24 24" fill="none" xmlns="http://www.w3.org/2000/svg">
<path d="M6.133 20.9998C4.955 20.9998 4 20.0198 4 18.8098V10.0078C4 9.34279 4.295 8.71279 4.8 8.29779L10.667 3.47979C11.0419 3.16937 11.5133 2.99951 12 2.99951C12.4867 2.99951 12.9581 3.16937 13.333 3.47979L19.199 8.29779C19.705 8.71279 20 9.34279 20 10.0078V18.8098C20 20.0198 19.045 20.9998 17.867 20.9998H6.133Z" stroke="white" stroke-width="1.5" stroke-linecap="round" stroke-linejoin="round"/>
<path d="M9.5 21V15.5C9.5 14.9696 9.71071 14.4609 10.0858 14.0858C10.4609 13.7107 10.9696 13.5 11.5 13.5H12.5C13.0304 13.5 13.5391 13.7107 13.9142 14.0858C14.2893 14.4609 14.5 14.9696 14.5 15.5V21" stroke="white" stroke-width="1.5" stroke-linecap="round" stroke-linejoin="round"/>
</svg>
