<svg width="287" height="235" viewBox="0 0 287 235" fill="none" xmlns="http://www.w3.org/2000/svg">
<path d="M172.586 36.1816C172.278 38.6105 174.811 40.5391 177.064 40.3871C179.554 40.219 181.666 38.1788 182.03 35.7337C182.424 33.0883 180.833 30.9715 178.371 30.7778C175.975 30.5895 174.441 32.7212 175.133 34.8717C175.629 36.4129 177.038 36.9872 177.748 36.5622C178.301 36.2314 178.267 35.3948 177.598 35.2469C177.329 35.1877 177.053 35.337 176.91 35.5428C176.325 35.3101 175.766 34.2449 176.144 33.0924C176.629 31.6224 178.489 31.539 179.644 32.2249C181.116 33.0977 181.347 34.9766 180.807 36.4748C180.241 38.0483 178.695 39.287 177.012 39.4053C175.105 39.5412 173.428 38.0806 173.274 36.1829C173.239 35.7351 172.641 35.7459 172.586 36.1816Z" fill="url(#paint0_linear_2829_5590)"/>
<path d="M215.281 28.051L216.88 24.4453L214.814 21.0857C214.578 20.7038 214.885 20.2169 215.332 20.2626L219.259 20.6688L221.818 17.6656C222.11 17.324 222.668 17.4652 222.762 17.9037L223.59 21.7595L227.238 23.2645C227.654 23.4366 227.693 24.0095 227.304 24.2341L223.889 26.2125L223.583 30.145C223.549 30.5928 223.015 30.8067 222.68 30.5067L219.742 27.8721L215.904 28.7974C215.468 28.9036 215.099 28.4625 215.281 28.051Z" fill="url(#paint1_linear_2829_5590)"/>
<path d="M58.9923 24.7748L60.1918 22.0702L58.641 19.5499C58.4646 19.2634 58.6948 18.899 59.03 18.9326L61.9755 19.2365L63.8952 16.9852C64.1147 16.7283 64.532 16.8345 64.6033 17.1641L65.2239 20.0556L67.9608 21.1853C68.2731 21.3131 68.3014 21.7434 68.0106 21.9129L65.4488 23.3963L65.2199 26.3457C65.193 26.6819 64.7932 26.8419 64.5428 26.616L62.3377 24.6417L59.4595 25.3357C59.1323 25.4137 58.855 25.0828 58.9923 24.7748Z" fill="url(#paint2_linear_2829_5590)"/>
<path d="M242.14 59.2622L243.838 56.1797L249.104 58.3611L252.144 54.161L256.353 55.1495L256.854 53.0219L251.226 51.6985L248.345 55.6794L242.866 53.4092L240.311 58.0478L242.14 59.2622Z" fill="#051328"/>
<path d="M97.4448 15.012L94.4535 13.1533L96.9171 8.01582L92.8798 4.75982L94.0928 0.61348L91.9927 0.000209808L90.3691 5.54391L94.1951 8.63045L91.6332 13.9751L96.1336 16.7725L97.4448 15.012Z" fill="url(#paint3_linear_2829_5590)"/>
<path d="M151.339 10.9341L153.318 7.70901L150.17 6.43403L148.191 9.65911L151.339 10.9341ZM143.318 13.8122L145.531 10.2199L143.754 9.50041C143.365 9.34305 143.177 8.89924 143.336 8.51056C143.493 8.12189 143.936 7.93495 144.325 8.09231L146.375 8.92345L148.354 5.69838L146.455 4.9291C146.066 4.7704 145.879 4.32792 146.036 3.93924C146.195 3.55057 146.638 3.36363 147.027 3.52098L149.197 4.40055L151.496 0.707449C151.692 0.392742 152.085 0.264977 152.427 0.404846L152.758 0.539337C153.194 0.715519 153.366 1.23868 153.121 1.63946L150.983 5.12411L154.131 6.39907L156.429 2.70598C156.624 2.39262 157.017 2.26485 157.36 2.40338L157.723 2.54996C158.157 2.72614 158.33 3.25065 158.085 3.65009L155.947 7.13473L157.724 7.8556C158.113 8.01295 158.301 8.45542 158.143 8.8441C157.985 9.23277 157.542 9.41972 157.153 9.26237L155.103 8.43256L153.155 11.6697L155.053 12.439C155.442 12.5964 155.629 13.0388 155.472 13.4275C155.314 13.8162 154.871 14.0045 154.482 13.8458L152.311 12.9662L149.963 16.7763C149.769 17.0924 149.375 17.2215 149.03 17.0816L148.642 16.9243C148.208 16.7481 148.035 16.2222 148.282 15.8228L150.495 12.2306L147.347 10.9556L145 14.7657C144.806 15.0804 144.411 15.2095 144.067 15.071L143.679 14.9136C143.244 14.7374 143.072 14.2116 143.318 13.8122Z" fill="#051328"/>
<path d="M32.9952 99.0876C28.4924 97.5126 28.0897 97.3256 26.0099 94.4948C23.93 91.664 21.2525 88.8758 20.3237 88.5536C19.3949 88.2314 17.9172 90.2502 19.6296 91.9718C21.6819 94.0351 22.0765 95.6785 21.2153 97.0118C20.3542 98.3451 19.4493 98.621 18.3548 97.9395C17.3481 97.3127 15.1209 94.3886 15.7235 92.6526C16.355 90.8329 18.7968 88.1748 18.6898 87.4855C18.5826 86.7963 18.2537 85.4814 16.7761 86.5288C15.2984 87.5759 13.3791 89.7105 12.3265 92.6769C11.9532 93.7284 13.4276 97.1742 13.2832 97.6525C13.1388 98.1313 10.8029 96.9615 9.8047 96.5805C8.11761 95.9368 1.29244 95.0506 0.461015 96.9828C-0.238511 98.6081 4.53472 98.8025 9.74259 100.906C14.5592 102.851 16.1812 105.466 21.2616 106.558C26.342 107.648 36.0567 111.336 36.0567 111.336L38.3533 101.002L32.9952 99.0876Z" fill="#EFAEA6"/>
<path d="M254.007 113.188C258.509 111.613 258.912 111.426 260.992 108.594C263.071 105.763 265.749 102.975 266.678 102.653C267.607 102.331 269.085 104.35 267.372 106.071C265.32 108.135 264.925 109.778 265.786 111.111C266.648 112.445 267.553 112.721 268.647 112.039C269.654 111.412 271.881 108.488 271.278 106.752C270.647 104.933 268.205 102.274 268.312 101.585C268.419 100.896 268.748 99.581 270.226 100.628C271.703 101.676 273.623 103.81 274.675 106.776C275.049 107.828 273.574 111.274 273.719 111.752C273.863 112.23 276.199 111.061 277.197 110.68C278.884 110.036 285.709 109.15 286.541 111.082C287.24 112.708 282.467 112.902 277.259 115.005C272.443 116.951 270.821 119.566 265.74 120.657C260.66 121.748 250.945 125.436 250.945 125.436L248.648 115.101L254.007 113.188Z" fill="#EFAEA6"/>
<path d="M151.74 182.498C123.362 181.205 109.444 185.66 96.7968 183.184C84.1492 180.708 64.3126 176.072 59.4927 185.649C53.1463 198.259 55.8419 205.732 76.2497 215.625C101.73 227.977 129.391 231.664 158.434 229.797C187.476 227.929 198.435 228.592 220.266 219.707C258.705 204.062 239.734 176.698 220.103 178.101C201.204 179.453 176.15 183.609 151.74 182.498Z" fill="black"/>
<path opacity="0.28" d="M182.581 207.761C175.462 209.993 172.643 210.076 167.034 210.895C136.817 220.846 121.741 219.072 125.848 215.207C129.956 211.343 132.44 214.232 141.92 212.951C153.019 211.452 180.05 206.699 182.581 207.761Z" fill="black"/>
<path d="M173.169 210C157.922 211.677 142.673 217.389 137.023 216.52C131.372 215.651 130.538 210.483 120.186 219.128C108.151 229.179 98.8571 230.767 103.555 233.471C112.98 238.896 121.432 228.088 134.024 228.727C146.616 229.366 167.884 228.895 174.851 228.602C181.817 228.309 176.979 209.581 173.169 210Z" fill="#EFAEA6"/>
<path opacity="0.28" d="M177.56 202.591C171.028 202.843 139.625 204.216 133.596 203.278C127.566 202.341 109.17 195.252 96.7969 195.622C108.431 187.496 117.189 193.888 122.376 195.432C130.392 197.818 142.129 196.73 154.319 196.176C165.681 195.659 184.594 196.687 193.136 194.615C201.678 192.542 204.647 191.559 211.224 195.809C205.755 197.284 195.258 201.252 195.258 201.252L177.56 202.591Z" fill="black"/>
<path d="M188.138 205.523C185.291 206.744 183.867 207.15 182.443 207.761C180.612 203.896 174.307 202.879 182.443 202.066C190.579 201.252 196.477 200.032 195.257 201.252C194.036 202.472 188.138 205.523 188.138 205.523Z" fill="#EFAEA6"/>
<path d="M154.7 85.7522C155.052 87.2519 155.506 88.6627 156.092 89.6789C157.264 91.7169 157.244 94.997 160.069 97.9557C162.183 100.17 151.431 99.0384 151.431 99.0384L140.366 97.7264C139.533 92.9205 143.172 82.0025 143.283 77.5673C143.403 72.7033 148.61 67.437 148.61 67.437L153.579 76.612L153.691 76.8192L153.592 77.6893C153.592 77.6893 153.822 81.9966 154.7 85.7522Z" fill="#EFAEA6"/>
<path opacity="0.14" d="M153.694 76.8188L153.595 77.6888C153.595 77.6888 153.825 81.9962 154.702 85.7517C149.028 88.5586 144.915 82.2258 146.228 80.2242C147.091 78.9078 150.474 75.6226 150.474 75.6226L153.582 76.6116L153.694 76.8188Z" fill="black"/>
<path d="M141.081 87.2808C145.559 85.6018 146.687 93.3444 151.348 93.3161C153.808 93.3014 153.173 92.2554 154.226 90.9996C154.874 90.2266 155.47 89.3702 156.696 90.4544C181.637 112.504 163.37 177.473 166.647 181.45C169.326 184.703 145.034 187.949 132.63 185.972C115.618 183.261 127.263 169.392 127.435 165.807C127.608 162.221 126.222 100.023 126.222 100.023C126.222 100.023 134.255 94.7115 141.081 87.2808Z" fill="white"/>
<path d="M257.025 125.972C255.528 126.756 214.365 146.559 203.501 142.316C199.227 140.645 192.021 135.228 185.702 131.297C180.823 128.254 176.473 126.104 174.417 127.252C174.004 127.48 173.714 128.1 173.491 128.973C172.912 131.246 172.81 135.237 172.301 138.488C171.451 143.923 173.075 159.723 173.586 162.282C174.893 168.855 184.661 179.933 179.909 184.68C174.636 189.943 169.626 189.42 166.345 186.833C162.809 184.05 162.046 168.505 157.944 145.805C154.932 129.157 161.68 118.626 158.72 104.908C156.478 94.5298 156.695 90.4531 156.695 90.4531C183.015 100.234 201.782 119.066 209.62 121.813C216.986 124.395 252.848 108.049 255.048 110.618C255.871 111.584 257.771 125.581 257.025 125.972Z" fill="url(#paint4_linear_2829_5590)"/>
<path d="M161.074 62.0381C162.005 66.0233 167.531 73.0589 164.787 73.4825C162.043 73.9061 166.762 81.9011 163.857 82.4559C156.819 83.8009 148.03 80.6317 146.615 77.3803C145.201 74.1288 144.303 64.5658 144.303 64.5658L161.074 62.0381Z" fill="#EFAEA6"/>
<path d="M154.36 67.0679C156.628 66.9768 156.774 67.4901 158.226 66.4926C159.679 65.4951 156.662 63.7772 159.506 62.8392C162.35 61.9012 165.523 61.2193 165.34 57.8551C165.076 52.9859 160.91 54.4078 158.349 55.3792C156.701 56.0045 155.74 52.3959 152.365 53.0888C149.717 53.6322 150.256 55.1312 147.914 55.7198C146.5 56.0754 143.354 54.1668 141.368 56.2363C137.686 60.0749 141.724 63.4436 138.771 67.3861C135.327 71.9848 145.898 78.9764 146.829 77.7838C147.916 76.3918 145.452 72.5752 146.587 71.4109C148.299 69.6548 148.779 71.2493 150.615 72.5073C152.577 73.8512 155.774 73.4478 153.272 70.6497C150.77 67.8516 152.307 67.1502 154.36 67.0679Z" fill="black"/>
<path d="M143.741 186.188C142.742 192.936 134.992 191.981 126.948 194.154C118.908 196.326 111.04 190.419 112.954 184.035C118.466 165.628 119.228 152.261 118.594 141.57C118.12 133.498 116.358 127.343 114.013 122.674C113.646 121.947 112.923 121.531 111.921 121.363C105.578 120.278 88.0369 128.953 79.0364 129.578C71.3971 130.106 28.8781 114.577 26.8483 111.838C24.8184 109.103 28.4685 99.9185 30.1493 96.9106C31.8269 93.906 69.0068 111.303 78.1568 110.768C87.2216 110.239 125.014 91.6366 141.083 87.2808C141.083 87.2808 152.793 132.536 145.773 153.099C140.228 169.331 144.742 179.436 143.741 186.188Z" fill="url(#paint5_linear_2829_5590)"/>
<path opacity="0.18" d="M149.343 95.0305C149.292 94.9666 149.095 95.0673 148.774 95.2844C147.295 96.2911 143.2 99.8119 138.664 101.632C137.448 102.121 136.197 102.487 134.957 102.647C133.178 102.876 131.361 102.863 129.599 102.446L129.596 102.445C129.481 102.419 129.365 102.392 129.248 102.358C129.215 102.351 129.176 102.339 129.139 102.331C126.258 101.543 119.756 100.146 114.247 97.6281C114.792 96.8381 119.57 95.4641 120.131 94.7576C119.223 94.3013 115.118 93.493 114.22 93.0415C113.728 92.7898 113.24 92.5466 112.752 92.303C113.787 91.4304 114.76 90.6199 115.656 89.8848C116.123 90.1397 116.598 90.391 117.078 90.6479C117.798 91.0281 118.53 91.4098 119.265 91.7861C124.04 94.234 128.837 96.4278 130.406 96.7603C131.651 97.0189 132.896 97.1545 134.13 97.1754C134.434 97.1842 134.737 97.1835 135.039 97.1784C135.632 97.1706 136.218 97.1372 136.804 97.0832C138.111 96.9638 139.389 96.7459 140.616 96.4608C143.056 95.898 145.295 95.0813 147.18 94.2884C148.625 93.6811 149.276 92.2475 150.645 92.6362C152.465 93.1535 149.782 95.5872 149.343 95.0305Z" fill="black"/>
<path d="M151.05 96.4484C149.87 96.3661 149.468 95.8341 149.032 95.2786C148.999 95.2381 148.91 95.2426 148.774 95.2841C147.759 95.6015 144.046 97.9933 139.511 99.4144C137.193 100.139 134.659 100.607 132.159 100.409C131.381 100.349 130.605 100.223 129.844 100.019C126.215 99.0525 121.552 96.7496 116.93 94.41C116.021 93.9537 115.117 93.4926 114.22 93.0407C113.728 92.7891 113.239 92.5459 112.751 92.3023C109.012 90.4421 105.529 88.8344 102.926 88.2315C96.2421 86.6837 84.6382 92.9188 74.1181 90.9771C67.6699 89.7874 44.7814 80.5606 42.4646 78.6369C40.1518 76.7114 39.0644 73.6307 39.452 72.1075C39.8396 70.5843 42.397 70.5057 46.388 71.095C50.3776 71.6802 62.4169 81.575 75.8938 83.729C89.3692 85.8791 94.6318 78.8335 104.134 79.8115C109.382 80.3508 115.133 84.3518 120.278 88.0456C120.948 88.5254 121.609 89.0019 122.255 89.4656C125.637 91.8787 128.669 93.9236 131.002 94.4178C132.863 94.8112 134.726 94.9093 136.541 94.8046C138.252 94.708 139.916 94.4324 141.496 94.05C143.826 93.4963 145.965 92.7094 147.776 91.9463C149.22 91.339 149.509 90.829 150.88 91.2148C152.696 91.7339 152.852 93.2994 152.633 94.1642C152.412 95.0284 151.859 96.5082 151.05 96.4484Z" fill="#F4AD00"/>
<path opacity="0.18" d="M118.592 141.57C118.118 133.498 116.357 127.343 114.011 122.674C113.645 121.947 112.921 121.531 111.92 121.363C118.138 121.068 122.015 122.078 122.148 126.714C122.26 130.559 119.75 138.25 118.592 141.57Z" fill="black"/>
<path opacity="0.18" d="M185.705 131.297C180.825 128.254 176.475 126.104 174.42 127.252C174.007 127.48 173.717 128.1 173.494 128.972L173.453 128.953C173.85 125.807 174.512 121.097 179.084 123.484C181.568 124.777 184 128.327 185.705 131.297Z" fill="black"/>
<defs>
<linearGradient id="paint0_linear_2829_5590" x1="177.325" y1="30.7662" x2="177.325" y2="40.3955" gradientUnits="userSpaceOnUse">
<stop stop-color="#25B0F8"/>
<stop offset="1" stop-color="#2781F3"/>
</linearGradient>
<linearGradient id="paint1_linear_2829_5590" x1="221.153" y1="17.4752" x2="221.153" y2="30.646" gradientUnits="userSpaceOnUse">
<stop stop-color="#25B0F8"/>
<stop offset="1" stop-color="#2781F3"/>
</linearGradient>
<linearGradient id="paint2_linear_2829_5590" x1="63.3964" y1="16.842" x2="63.3964" y2="26.7212" gradientUnits="userSpaceOnUse">
<stop stop-color="#25B0F8"/>
<stop offset="1" stop-color="#2781F3"/>
</linearGradient>
<linearGradient id="paint3_linear_2829_5590" x1="93.907" y1="0.000209808" x2="93.907" y2="16.7725" gradientUnits="userSpaceOnUse">
<stop stop-color="#25B0F8"/>
<stop offset="1" stop-color="#2781F3"/>
</linearGradient>
<linearGradient id="paint4_linear_2829_5590" x1="281.169" y1="214.94" x2="152.466" y2="210.409" gradientUnits="userSpaceOnUse">
<stop stop-color="#24C5FA"/>
<stop offset="1" stop-color="#2774F2"/>
</linearGradient>
<linearGradient id="paint5_linear_2829_5590" x1="177.06" y1="223.234" x2="21.1772" y2="217.145" gradientUnits="userSpaceOnUse">
<stop stop-color="#24C5FA"/>
<stop offset="1" stop-color="#2774F2"/>
</linearGradient>
</defs>
</svg>
