<svg width="363" height="427" viewBox="0 0 363 427" fill="none" xmlns="http://www.w3.org/2000/svg">
<circle cx="181" cy="126" r="117" fill="#FFF4C6" stroke="url(#paint0_linear_5001_6046)" stroke-width="18"/>
<g clip-path="url(#clip0_5001_6046)">
<path d="M137.512 160.792C134.167 160.696 131.484 159.427 129.762 156.431C128.97 155.052 128.699 153.552 128.702 151.981C128.706 143.276 128.695 134.571 128.719 125.869C128.723 125.113 128.517 124.758 127.793 124.37C124.37 122.537 122.469 119.641 122.551 115.706C122.634 111.861 124.541 109.061 128.002 107.393C128.562 107.122 128.713 106.843 128.719 106.258C128.74 104.521 128.548 102.774 128.839 101.048C129.44 97.4881 132.579 94.7813 136.177 94.7229C137.302 94.7057 138.431 94.6816 139.553 94.747C140.383 94.7951 140.805 94.6128 140.671 93.6704C140.589 93.0686 140.647 92.446 140.658 91.8338C140.688 89.8872 141.838 88.6938 143.779 88.6869C144.445 88.6834 144.754 88.5768 144.956 87.8339C145.645 85.2923 147.975 83.5898 150.53 83.6036C153.028 83.6173 155.254 85.3267 155.961 87.8752C156.146 88.5459 156.431 88.6972 157.076 88.6938C159.014 88.68 160.211 89.925 160.297 91.882C160.338 92.8037 159.889 94.0385 160.52 94.5543C161.062 94.998 162.246 94.6541 163.144 94.6575C164.431 94.661 165.717 94.6438 167.004 94.685C167.535 94.7022 167.779 94.5543 167.954 94.0144C168.592 92.0265 169.251 90.042 169.998 88.0919C171.405 84.4187 173.944 81.9733 177.871 81.1685C178.461 81.0482 179.086 81.0482 179.693 81.0482C186.448 81.0413 193.202 81.1548 199.95 81.0069C204.818 80.9003 208.694 84.147 210.104 88.281C210.653 89.8906 211.192 91.5071 211.682 93.1374C211.84 93.6601 212.07 93.8149 212.615 93.8115C216.283 93.7839 219.953 93.9387 223.61 93.7633C228.145 93.5466 232.279 97.3883 232.255 102.21C232.248 103.596 232.276 104.982 232.252 106.368C232.241 106.871 232.368 107.142 232.862 107.393C236.3 109.14 238.251 111.933 238.299 115.833C238.348 119.723 236.382 122.471 233.01 124.236C232.402 124.555 232.217 124.906 232.221 125.563C232.248 134.203 232.248 142.842 232.258 151.482C232.262 153.006 232.152 154.498 231.418 155.888C229.775 158.997 227.116 160.441 223.713 160.706C223.425 160.73 223.14 160.758 222.852 160.782C222.31 161.157 221.689 161.102 221.082 161.102C214.65 161.105 208.221 161.102 201.789 161.102C181.017 161.102 160.246 161.102 139.474 161.098C138.812 161.095 138.116 161.225 137.512 160.792Z" fill="#00112B"/>
<path d="M137.512 160.792C139.278 160.782 141.045 160.758 142.812 160.758C169.141 160.747 195.47 160.741 221.799 160.734C222.152 160.734 222.502 160.765 222.855 160.778C218.53 166.075 212.893 169.05 206.238 170.281C202.838 170.911 199.408 170.979 195.978 170.986C184.338 171.007 172.698 170.99 161.059 171C156.544 171.003 152.078 170.759 147.789 169.126C143.741 167.581 140.441 165.077 137.903 161.566C137.735 161.336 137.639 161.05 137.512 160.792Z" fill="#FFD588"/>
<path d="M120.05 160.355C118.314 160.355 116.578 160.359 114.846 160.355C113.597 160.352 113 159.877 113.004 158.904C113.007 157.927 113.628 157.408 114.832 157.411C118.335 157.415 121.837 157.422 125.34 157.435C125.752 157.435 126.184 157.387 126.561 157.614C127.141 157.968 127.426 158.495 127.288 159.165C127.12 159.977 126.534 160.335 125.741 160.338C123.844 160.348 121.951 160.342 120.054 160.342C120.05 160.342 120.05 160.348 120.05 160.355Z" fill="#01102C"/>
<path d="M240.871 160.359C239.104 160.359 237.334 160.366 235.567 160.355C234.394 160.352 233.801 159.87 233.78 158.935C233.756 157.948 234.353 157.428 235.574 157.425C239.111 157.411 242.644 157.404 246.181 157.408C247.447 157.408 247.999 157.876 248.003 158.88C248.006 159.857 247.409 160.345 246.174 160.348C244.408 160.355 242.638 160.352 240.871 160.352C240.871 160.355 240.871 160.359 240.871 160.359Z" fill="#01112B"/>
<path d="M217.602 129.144C217.568 144.27 204.971 156.686 189.699 156.648C174.67 156.61 162.409 144.18 162.443 129.013C162.478 113.845 175.074 101.23 190.138 101.282C204.93 101.33 217.637 114.22 217.602 129.144Z" fill="#FEFEFE"/>
<path d="M136.372 157.329C133.957 157.054 132.221 155.303 132.088 152.892C132.012 151.509 132.077 150.12 132.074 148.734C132.064 137.322 132.05 125.911 132.043 114.496C132.043 114.121 131.92 113.722 132.163 113.371C132.465 113.202 132.794 113.285 133.106 113.285C140.949 113.281 148.791 113.281 156.633 113.281C157.796 113.281 157.868 113.343 157.604 114.482C156.671 118.499 155.823 122.533 155.278 126.626C154.091 135.541 155.058 144.17 158.732 152.424C159.36 153.838 160.218 155.134 161.02 156.455C161.511 157.263 161.446 157.387 160.561 157.387C152.653 157.391 144.746 157.391 136.842 157.391C136.684 157.391 136.523 157.394 136.372 157.329Z" fill="#F8C95C"/>
<path d="M166.326 108.955C167.692 105.013 169.057 101.072 170.422 97.1304C171.338 94.489 172.24 91.8476 173.173 89.2131C174.329 85.9423 176.559 84.3361 179.986 84.3258C186.738 84.312 193.489 84.3155 200.24 84.3224C203.29 84.3258 205.629 85.8529 206.662 88.7797C208.147 92.986 209.478 97.2473 210.868 101.488C211.547 103.562 212.212 105.639 212.885 107.717C212.971 107.978 213.135 108.229 213.008 108.532C200.367 93.8802 178.203 94.8535 166.326 108.955Z" fill="#FEFEFE"/>
<path d="M228.818 153.422C228.427 155.327 226.804 156.919 224.852 157.284C224.413 157.367 223.96 157.415 223.511 157.415C216.633 157.422 209.758 157.422 202.88 157.418C202.821 157.418 202.76 157.391 202.646 157.367C202.708 157.002 203.058 157.002 203.274 156.888C211.741 152.493 217.521 145.879 220.022 136.548C220.039 136.49 220.087 136.442 220.121 136.387C221.054 133.157 221.137 129.845 220.982 126.526C220.945 125.715 221.03 124.927 221.078 124.132C221.116 123.52 221.487 123.132 222.084 122.997C222.578 122.884 222.89 122.623 222.907 122.086C222.993 119.101 222.914 116.115 222.945 113.134C222.948 112.625 222.89 112.105 223.089 111.613C223.188 111.448 223.305 111.345 223.497 111.49C223.73 112.016 224.193 112.023 224.636 111.916C225.322 111.751 225.957 111.892 226.626 112.033C228.701 112.473 228.564 113.925 227.939 115.575C227.778 116.002 227.325 116.133 226.893 116.15C226.427 116.167 226.084 116.322 225.946 116.803C225.703 117.316 225.682 117.859 225.682 118.409C225.682 127.383 225.679 136.356 225.686 145.332C225.686 146.712 225.813 146.877 226.814 147.038C227.072 147.069 227.329 147.014 227.583 147.025C228.42 147.055 228.728 147.368 228.749 148.211C228.794 149.945 228.67 151.685 228.818 153.422Z" fill="#F8C95C"/>
<path d="M136.372 157.329C138.3 157.315 140.228 157.294 142.153 157.291C148.197 157.284 154.238 157.284 160.283 157.281C160.561 157.281 160.839 157.281 161.254 157.281C159.216 154.398 157.772 151.368 156.749 148.142C155.707 144.861 155.058 141.504 154.712 138.072C154.043 131.493 155.031 125.068 156.365 118.671C156.674 117.195 157.014 115.727 157.387 114.268C157.569 113.563 157.446 113.357 156.664 113.361C148.852 113.395 141.041 113.385 133.23 113.388C132.877 113.388 132.523 113.378 132.17 113.374C132.575 113.082 133.041 113.223 133.474 113.219C142.506 113.216 151.542 113.24 160.574 113.209C161.604 113.206 161.456 113.629 161.236 114.286C159.154 120.535 158.595 126.98 159.439 133.456C160.55 141.972 164.784 148.789 171.638 153.955C173.305 155.214 175.106 156.249 177.133 157.208C175.871 157.587 174.759 157.339 173.662 157.342C161.734 157.401 149.809 157.442 137.882 157.477C137.381 157.477 136.856 157.594 136.372 157.329Z" fill="#D5AD4F"/>
<path d="M158.608 109.914C158.227 109.945 157.846 110 157.466 110C149.25 110.014 141.03 110.014 132.814 110.045C132.193 110.048 131.991 109.907 132.005 109.251C132.046 106.901 131.984 104.552 132.025 102.203C132.059 100.068 133.476 98.4717 135.603 98.059C135.881 97.9489 136.176 97.9971 136.461 97.9971C144.745 97.9936 153.03 97.9936 161.315 97.9936C162.44 97.9936 162.532 98.0762 162.189 99.1286C161.129 102.372 160.131 105.632 159.147 108.9C159.033 109.275 158.882 109.625 158.608 109.914Z" fill="#FDFDFE"/>
<path d="M223.461 111.613C223.403 111.569 223.341 111.527 223.283 111.483C222.861 111.101 223.036 110.588 222.998 110.124C222.974 109.839 222.994 109.546 222.987 109.257C222.974 108.57 222.816 107.933 222.034 107.792C221.283 107.658 220.953 108.195 220.723 108.803C220.535 109.495 220.655 110.2 220.624 110.895C220.593 111.558 220.271 111.906 219.626 111.909C218.977 111.909 218.288 112.112 217.711 111.613C216.408 107.617 215.104 103.62 213.804 99.6239C213.547 98.8328 213.293 98.0452 213.039 97.2645C213.231 97.0169 213.471 97.1132 213.674 97.1132C217.111 97.0994 220.548 97.0788 223.982 97.096C226.912 97.1097 228.905 99.1493 228.902 102.1C228.898 105.223 228.871 108.343 228.854 111.465C228.13 111.954 227.3 111.661 226.524 111.782C225.835 111.888 225.128 111.816 224.432 111.909C224.078 111.957 223.728 111.885 223.461 111.613Z" fill="#FDFDFE"/>
<path d="M223.461 111.613C225.258 111.565 227.056 111.517 228.854 111.469C228.867 116.078 228.888 120.683 228.895 125.292C228.905 134.251 228.905 143.214 228.902 152.173C228.902 152.589 228.847 153.006 228.816 153.422C228.466 152.173 228.74 150.894 228.658 149.635C228.637 149.319 228.655 148.995 228.655 148.679C228.651 147.379 228.49 147.245 227.138 147.368C227.066 147.375 226.987 147.276 226.908 147.227C227.094 138.161 226.943 129.095 226.991 120.029C226.994 119.644 226.96 119.256 226.998 118.874C227.101 117.873 226.864 117.034 225.958 116.477C226.178 115.94 226.181 115.875 226.764 115.909C228.092 115.981 227.872 114.901 228.044 114.183C228.229 113.412 228.051 112.735 227.145 112.442C226.13 112.115 225.107 111.937 224.078 112.25C223.365 112.466 223.433 112.05 223.461 111.613Z" fill="#F8C95C"/>
<path d="M158.608 109.914C158.889 108.332 159.462 106.833 159.922 105.299C160.556 103.18 161.229 101.068 161.946 98.9739C162.196 98.2447 162.093 98.0728 161.304 98.0762C152.992 98.1003 144.677 98.09 136.365 98.0865C136.111 98.0865 135.853 98.0693 135.6 98.059C135.877 97.8286 136.214 97.9008 136.526 97.9008C146.337 97.9042 156.148 97.918 165.956 97.9283C166.11 97.9283 166.265 97.9489 166.512 97.9696C165.709 100.329 164.923 102.633 164.138 104.941C163.64 106.403 163.119 107.858 162.659 109.33C162.508 109.815 162.296 110.007 161.785 109.983C160.728 109.932 159.668 109.935 158.608 109.914Z" fill="#A4B7C8"/>
<path d="M153.188 94.5991C150.238 94.6231 147.284 94.6472 144.334 94.6713C144.238 94.6713 144.066 94.7022 144.056 94.6747C143.771 93.8699 143.919 93.0307 143.939 92.2122C143.953 91.71 144.44 91.9336 144.708 91.9302C147.082 91.9164 149.455 91.9267 151.833 91.9336C153.023 92.109 153.589 93.2199 153.188 94.5991Z" fill="#FCFDFD"/>
<path d="M128.691 110.606C128.691 114.196 128.691 117.577 128.691 121.126C126.979 119.947 126.008 118.437 125.823 116.501C125.589 114.059 126.656 112.184 128.691 110.606Z" fill="#FCFDFD"/>
<path d="M232.248 120.899C232.248 117.508 232.248 114.234 232.248 110.809C233.919 111.83 234.745 113.292 235.013 115.084C235.363 117.44 234.327 119.61 232.248 120.899Z" fill="#FCFDFD"/>
<path d="M217.709 111.613C218.344 111.61 218.978 111.576 219.609 111.61C220.186 111.644 220.381 111.438 220.388 110.853C220.395 110.103 220.217 109.337 220.498 108.6C220.951 108.962 220.81 109.478 220.834 109.942C220.982 112.869 220.573 115.782 220.635 118.709C220.656 119.579 220.721 120.442 220.844 121.302C221.023 122.554 221.603 122.86 222.769 122.334C222.916 122.268 223.064 122.213 223.232 122.241C223.153 122.877 222.772 123.194 222.158 123.249C221.568 123.3 221.386 123.651 221.311 124.208C221.03 126.282 221.218 128.366 221.112 130.44C221.016 132.315 220.906 134.196 220.364 136.015C220.316 136.177 220.278 136.321 220.117 136.394C220.525 134.206 220.827 132.012 220.892 129.783C221.071 123.837 219.76 118.151 217.946 112.552C217.85 112.239 217.788 111.923 217.709 111.613Z" fill="#F8C95C"/>
<path d="M153.189 94.599C153.096 94.0969 153.014 93.5913 152.915 93.0926C152.795 92.4873 152.489 92.0436 151.834 91.9336C153.337 91.9233 154.836 91.9233 156.338 91.8889C156.798 91.8785 156.921 92.0402 156.949 92.4907C157.083 94.6506 157.096 94.6541 154.911 94.6472C154.338 94.6472 153.762 94.6162 153.189 94.599Z" fill="#A6B4C5"/>
<path d="M148.244 88.6731C148.477 87.5691 149.146 87.0532 150.103 86.8847C151.043 86.7196 151.994 87.2252 152.457 88.0403C152.687 88.4496 152.714 88.6834 152.127 88.6766C150.851 88.6594 149.575 88.6731 148.244 88.6731Z" fill="#F5F8FA"/>
<path d="M189.966 111.589C199.877 111.655 207.651 119.438 207.592 129.243C207.534 138.636 199.369 146.498 189.733 146.44C180.193 146.381 172.457 138.502 172.526 128.913C172.591 119.338 180.454 111.527 189.966 111.589Z" fill="#00112B"/>
<path d="M225.962 116.473C226.885 116.442 227.3 116.889 227.296 117.811C227.286 127.235 227.286 136.655 227.296 146.079C227.296 146.526 227.173 146.887 226.912 147.221C225.869 147.54 225.368 147.207 225.365 146.141C225.351 136.683 225.351 127.228 225.334 117.77C225.331 117.206 225.468 116.769 225.962 116.473Z" fill="#031127"/>
<path d="M223.235 122.237C222.789 122.791 222.302 123.2 221.51 122.891C220.731 122.588 220.501 121.983 220.477 121.219C220.347 117.333 220.515 113.447 220.525 109.56C220.525 109.24 220.508 108.92 220.498 108.601C220.697 107.744 221.269 107.359 222.103 107.483C222.926 107.603 223.252 108.177 223.242 108.996C223.232 109.825 223.266 110.654 223.28 111.486C223.266 115.066 223.252 118.654 223.235 122.237Z" fill="#021129"/>
<path d="M145.333 101.261C148.417 101.261 151.501 101.258 154.581 101.264C154.9 101.264 155.226 101.278 155.531 101.361C155.995 101.485 156.204 101.863 156.183 102.313C156.163 102.723 155.946 103.056 155.518 103.163C155.271 103.225 155.013 103.249 154.76 103.249C148.561 103.249 142.362 103.249 136.163 103.232C135.422 103.228 134.413 103.421 134.434 102.265C134.454 101.185 135.394 101.264 136.18 101.264C139.23 101.268 142.283 101.264 145.333 101.264V101.261Z" fill="#04132D"/>
<path d="M145.761 106.073C147.044 106.073 148.33 106.066 149.613 106.076C150.272 106.08 150.889 106.227 150.893 107.043C150.896 107.816 150.34 108.085 149.658 108.092C147.057 108.109 144.454 108.112 141.853 108.109C141.198 108.109 140.684 107.809 140.666 107.115C140.649 106.337 141.239 106.09 141.905 106.076C143.188 106.052 144.474 106.069 145.757 106.069C145.761 106.069 145.761 106.069 145.761 106.073Z" fill="#06122B"/>
<path d="M198.192 140.318C192.761 144.768 184.144 143.874 179.427 138.371C173.877 131.895 174.94 122.499 181.829 117.47C183.688 116.112 185.787 115.283 188.113 115.111C193.427 114.722 198.487 118.468 200.339 123.125C202.59 128.776 201.9 134.137 198.943 139.324C198.737 139.685 198.47 140.005 198.192 140.318Z" fill="#FFD588"/>
<path d="M198.192 140.318C198.381 139.912 198.542 139.489 198.768 139.104C200.24 136.566 201.084 133.879 201.31 130.915C201.626 126.801 200.652 123.114 198.113 119.93C195.9 117.151 192.909 115.617 189.345 115.307C188.926 115.269 188.515 115.252 188.113 115.111C190.583 114.654 192.991 115.046 195.266 115.954C200.178 117.914 203.269 121.577 204.075 126.801C204.919 132.266 202.978 136.789 198.528 140.153C198.432 140.225 198.305 140.263 198.192 140.318Z" fill="#F5C348"/>
<path d="M183.655 119.352C185.6 118.313 187.617 117.591 189.875 117.646C195.525 117.783 200.444 122.43 200.77 128.277C201.089 134.034 196.89 138.88 191.346 139.833C186.008 140.751 180.375 137.136 178.983 131.809C178.245 128.985 178.424 126.189 179.809 123.544C180.002 123.18 180.194 122.812 180.386 122.444C181.446 121.708 181.072 122.86 181.339 123.169C181.813 125.147 182.749 126.052 184.375 126.086C185.782 126.117 187.013 125.144 187.363 123.723C187.706 122.334 187.027 120.875 185.755 120.26C185.435 120.105 185.092 120.026 184.753 119.926C184.396 119.709 183.772 120.012 183.655 119.352Z" fill="#00122E"/>
<path d="M183.654 119.352C183.945 119.792 184.508 119.372 184.827 119.72C184.7 119.947 184.473 119.978 184.25 119.998C182.621 120.153 181.75 121.109 181.427 122.657C181.383 122.874 181.359 123.104 181.129 123.224C180.837 123.004 181.28 122.079 180.381 122.447C180.813 120.714 182.093 119.881 183.654 119.352Z" fill="#387DA1"/>
<path d="M181.129 123.224C181.369 120.807 182.374 119.854 184.827 119.72C186.666 120.081 187.836 121.505 187.712 123.235C187.592 124.913 186.223 126.289 184.604 126.361C182.755 126.444 181.448 125.261 181.129 123.224Z" fill="#FDFDFD"/>
</g>
<path d="M3.80117 396V360.85H10.6012V396H3.80117ZM17.8148 396V360.85H22.5648L24.6148 367.65V396H17.8148ZM42.1148 396L21.2648 369L22.5648 360.85L43.4148 387.85L42.1148 396ZM42.1148 396L40.1648 389.4V360.85H47.0148V396H42.1148ZM70.443 396.5C67.8763 396.5 65.493 396.05 63.293 395.15C61.093 394.217 59.1596 392.933 57.493 391.3C55.8596 389.633 54.593 387.7 53.693 385.5C52.8263 383.3 52.393 380.933 52.393 378.4C52.393 375.867 52.8263 373.5 53.693 371.3C54.593 369.1 55.8596 367.183 57.493 365.55C59.1596 363.917 61.0763 362.633 63.243 361.7C65.443 360.767 67.843 360.3 70.443 360.3C73.243 360.3 75.7096 360.767 77.843 361.7C79.9763 362.6 81.8596 363.85 83.493 365.45L78.893 370.05C77.9263 368.983 76.743 368.15 75.343 367.55C73.943 366.95 72.3096 366.65 70.443 366.65C68.8096 366.65 67.3096 366.933 65.943 367.5C64.6096 368.033 63.443 368.833 62.443 369.9C61.443 370.933 60.6763 372.183 60.143 373.65C59.6096 375.083 59.343 376.667 59.343 378.4C59.343 380.167 59.6096 381.767 60.143 383.2C60.6763 384.633 61.443 385.883 62.443 386.95C63.443 387.983 64.6096 388.783 65.943 389.35C67.3096 389.917 68.8096 390.2 70.443 390.2C72.4096 390.2 74.093 389.9 75.493 389.3C76.9263 388.7 78.1263 387.85 79.093 386.75L83.693 391.35C82.0596 392.983 80.1596 394.25 77.993 395.15C75.8263 396.05 73.3096 396.5 70.443 396.5ZM103.454 396.55C100.888 396.55 98.4876 396.083 96.2543 395.15C94.0543 394.217 92.121 392.933 90.4543 391.3C88.821 389.633 87.5376 387.7 86.6043 385.5C85.671 383.267 85.2043 380.883 85.2043 378.35C85.2043 375.817 85.6543 373.467 86.5543 371.3C87.4876 369.1 88.771 367.183 90.4043 365.55C92.071 363.883 94.0043 362.6 96.2043 361.7C98.4043 360.767 100.788 360.3 103.354 360.3C105.954 360.3 108.354 360.767 110.554 361.7C112.754 362.6 114.671 363.883 116.304 365.55C117.971 367.183 119.271 369.1 120.204 371.3C121.138 373.5 121.604 375.867 121.604 378.4C121.604 380.933 121.138 383.3 120.204 385.5C119.271 387.7 117.971 389.633 116.304 391.3C114.671 392.933 112.754 394.217 110.554 395.15C108.388 396.083 106.021 396.55 103.454 396.55ZM103.354 390.2C105.621 390.2 107.588 389.7 109.254 388.7C110.921 387.7 112.221 386.317 113.154 384.55C114.121 382.783 114.604 380.717 114.604 378.35C114.604 376.617 114.338 375.033 113.804 373.6C113.271 372.167 112.504 370.933 111.504 369.9C110.504 368.833 109.321 368.017 107.954 367.45C106.588 366.883 105.054 366.6 103.354 366.6C101.154 366.6 99.2043 367.1 97.5043 368.1C95.8376 369.067 94.521 370.433 93.5543 372.2C92.621 373.967 92.1543 376.017 92.1543 378.35C92.1543 380.117 92.421 381.733 92.9543 383.2C93.521 384.667 94.2876 385.917 95.2543 386.95C96.2543 387.983 97.4376 388.783 98.8043 389.35C100.204 389.917 101.721 390.2 103.354 390.2ZM126.995 396V360.85H131.745L133.795 367.65V396H126.995ZM151.295 396L130.445 369L131.745 360.85L152.595 387.85L151.295 396ZM151.295 396L149.345 389.4V360.85H156.195V396H151.295ZM179.623 396.5C177.056 396.5 174.673 396.05 172.473 395.15C170.273 394.217 168.339 392.933 166.673 391.3C165.039 389.633 163.773 387.7 162.873 385.5C162.006 383.3 161.573 380.933 161.573 378.4C161.573 375.867 162.006 373.5 162.873 371.3C163.773 369.1 165.039 367.183 166.673 365.55C168.339 363.917 170.256 362.633 172.423 361.7C174.623 360.767 177.023 360.3 179.623 360.3C182.423 360.3 184.889 360.767 187.023 361.7C189.156 362.6 191.039 363.85 192.673 365.45L188.073 370.05C187.106 368.983 185.923 368.15 184.523 367.55C183.123 366.95 181.489 366.65 179.623 366.65C177.989 366.65 176.489 366.933 175.123 367.5C173.789 368.033 172.623 368.833 171.623 369.9C170.623 370.933 169.856 372.183 169.323 373.65C168.789 375.083 168.523 376.667 168.523 378.4C168.523 380.167 168.789 381.767 169.323 383.2C169.856 384.633 170.623 385.883 171.623 386.95C172.623 387.983 173.789 388.783 175.123 389.35C176.489 389.917 177.989 390.2 179.623 390.2C181.589 390.2 183.273 389.9 184.673 389.3C186.106 388.7 187.306 387.85 188.273 386.75L192.873 391.35C191.239 392.983 189.339 394.25 187.173 395.15C185.006 396.05 182.489 396.5 179.623 396.5ZM197.6 396V360.85H204.4V396H197.6ZM202.6 396V389.95H220.5V396H202.6ZM238.013 396.5C235.246 396.5 232.779 395.9 230.613 394.7C228.479 393.467 226.796 391.783 225.563 389.65C224.329 387.517 223.713 385.1 223.713 382.4V360.85H230.513V382.6C230.513 384.167 230.829 385.517 231.463 386.65C232.129 387.783 233.029 388.667 234.163 389.3C235.329 389.9 236.613 390.2 238.013 390.2C239.446 390.2 240.713 389.9 241.813 389.3C242.913 388.667 243.779 387.783 244.413 386.65C245.079 385.517 245.413 384.183 245.413 382.65V360.85H252.263V382.45C252.263 385.15 251.646 387.567 250.413 389.7C249.179 391.8 247.496 393.467 245.363 394.7C243.263 395.9 240.813 396.5 238.013 396.5ZM268.786 396.5C265.953 396.5 263.52 396.017 261.486 395.05C259.486 394.083 257.67 392.633 256.036 390.7L260.536 386.2C261.57 387.567 262.77 388.633 264.136 389.4C265.503 390.133 267.17 390.5 269.136 390.5C270.903 390.5 272.303 390.15 273.336 389.45C274.403 388.75 274.936 387.783 274.936 386.55C274.936 385.483 274.636 384.617 274.036 383.95C273.436 383.283 272.636 382.717 271.636 382.25C270.67 381.783 269.586 381.367 268.386 381C267.22 380.6 266.036 380.15 264.836 379.65C263.67 379.15 262.586 378.533 261.586 377.8C260.62 377.033 259.836 376.067 259.236 374.9C258.636 373.7 258.336 372.2 258.336 370.4C258.336 368.267 258.853 366.45 259.886 364.95C260.92 363.45 262.336 362.3 264.136 361.5C265.936 360.7 267.97 360.3 270.236 360.3C272.636 360.3 274.803 360.75 276.736 361.65C278.67 362.55 280.253 363.717 281.486 365.15L276.986 369.65C275.953 368.517 274.886 367.683 273.786 367.15C272.72 366.617 271.503 366.35 270.136 366.35C268.57 366.35 267.336 366.65 266.436 367.25C265.536 367.85 265.086 368.717 265.086 369.85C265.086 370.817 265.386 371.6 265.986 372.2C266.586 372.8 267.37 373.317 268.336 373.75C269.336 374.183 270.42 374.6 271.586 375C272.786 375.4 273.97 375.85 275.136 376.35C276.336 376.85 277.42 377.5 278.386 378.3C279.386 379.1 280.186 380.133 280.786 381.4C281.386 382.633 281.686 384.167 281.686 386C281.686 389.267 280.536 391.833 278.236 393.7C275.936 395.567 272.786 396.5 268.786 396.5ZM287.053 396V360.85H293.853V396H287.053ZM312.317 396L298.467 360.85H305.817L316.517 389.3H313.667L324.467 360.85H331.717L317.717 396H312.317ZM336.321 396V360.85H343.121V396H336.321ZM341.321 396V390H360.771V396H341.321ZM341.321 380.95V375.15H359.021V380.95H341.321ZM341.321 366.85V360.85H360.521V366.85H341.321Z" fill="white"/>
<circle cx="107.5" cy="423" r="4" fill="white"/>
<circle cx="102.357" cy="343.571" r="6.85714" fill="white"/>
<circle cx="240.642" cy="411" r="6.85714" fill="white"/>
<circle cx="170.929" cy="311.571" r="4.57143" fill="white"/>
<defs>
<linearGradient id="paint0_linear_5001_6046" x1="181" y1="0" x2="181" y2="252" gradientUnits="userSpaceOnUse">
<stop stop-color="#EEEEEE"/>
<stop offset="1" stop-color="#FAFAFA"/>
</linearGradient>
<clipPath id="clip0_5001_6046">
<rect width="135" height="90" fill="white" transform="translate(113 81)"/>
</clipPath>
</defs>
</svg>
