<svg width="32" height="32" viewBox="0 0 32 32" fill="none" xmlns="http://www.w3.org/2000/svg">
<g clip-path="url(#clip0_2180_4709)">
<path d="M19.3997 9.09473H12.6086C10.6744 9.09473 9.0957 10.6663 9.0957 12.6076V19.3987C9.0957 21.3329 10.6673 22.9116 12.6086 22.9116H19.3997C21.3339 22.9116 22.9126 21.3401 22.9126 19.3987V12.6076C22.9055 10.6663 21.3339 9.09473 19.3997 9.09473ZM16.0006 20.5436C13.4975 20.5436 11.4566 18.5027 11.4566 15.9996C11.4566 13.4965 13.4975 11.4556 16.0006 11.4556C18.5037 11.4556 20.5446 13.4965 20.5446 15.9996C20.5446 18.5027 18.5037 20.5436 16.0006 20.5436ZM20.7721 11.9605C20.3455 11.9605 20.0041 11.6192 20.0041 11.1925C20.0041 10.7658 20.3455 10.4245 20.7721 10.4245C21.1988 10.4245 21.5401 10.7658 21.5401 11.1925C21.5401 11.6192 21.1988 11.9605 20.7721 11.9605Z" fill="white"/>
<path d="M18.7623 16.0337C18.7806 14.5099 17.5601 13.2597 16.0363 13.2415C14.5125 13.2232 13.2623 14.4436 13.244 15.9675C13.2258 17.4913 14.4462 18.7414 15.97 18.7597C17.4939 18.778 18.744 17.5575 18.7623 16.0337Z" fill="white"/>
<path d="M16 0C7.16089 0 0 7.16089 0 16C0 24.8391 7.16089 32 16 32C24.8391 32 32 24.8391 32 16C32 7.16089 24.8391 0 16 0ZM24.8889 19.3991C24.8889 22.4284 22.4284 24.8889 19.3991 24.8889H12.608C9.57867 24.8889 7.11822 22.4284 7.11822 19.3991V12.608C7.11822 9.57867 9.57867 7.11822 12.608 7.11822H19.3991C22.4284 7.11822 24.8889 9.57867 24.8889 12.608V19.3991Z" fill="white"/>
</g>
<defs>
<clipPath id="clip0_2180_4709">
<rect width="32" height="32" fill="white"/>
</clipPath>
</defs>
</svg>
