<svg width="56" height="56" viewBox="0 0 56 56" fill="none" xmlns="http://www.w3.org/2000/svg">
<rect width="56" height="56" rx="28" fill="white"/>
<path fill-rule="evenodd" clip-rule="evenodd" d="M28.0007 13.6665C26.321 13.6665 24.7101 14.3338 23.5224 15.5215C22.3347 16.7092 21.6674 18.3201 21.6674 19.9998C21.6674 21.6795 22.3347 23.2904 23.5224 24.4782C24.7101 25.6659 26.321 26.3332 28.0007 26.3332C29.6804 26.3332 31.2913 25.6659 32.4791 24.4782C33.6668 23.2904 34.3341 21.6795 34.3341 19.9998C34.3341 18.3201 33.6668 16.7092 32.4791 15.5215C31.2913 14.3338 29.6804 13.6665 28.0007 13.6665ZM23.6674 19.9998C23.6674 18.8506 24.1239 17.7484 24.9366 16.9357C25.7493 16.123 26.8515 15.6665 28.0007 15.6665C29.15 15.6665 30.2522 16.123 31.0649 16.9357C31.8775 17.7484 32.3341 18.8506 32.3341 19.9998C32.3341 21.1491 31.8775 22.2513 31.0649 23.064C30.2522 23.8766 29.15 24.3332 28.0007 24.3332C26.8515 24.3332 25.7493 23.8766 24.9366 23.064C24.1239 22.2513 23.6674 21.1491 23.6674 19.9998ZM28.0007 28.3332C24.9167 28.3332 22.0741 29.0345 19.9687 30.2185C17.8941 31.3865 16.3341 33.1545 16.3341 35.3332V35.4692C16.3327 37.0185 16.3314 38.9625 18.0367 40.3518C18.8754 41.0345 20.0501 41.5212 21.6367 41.8412C23.2261 42.1638 25.2994 42.3332 28.0007 42.3332C30.7021 42.3332 32.7741 42.1638 34.3661 41.8412C35.9527 41.5212 37.1261 41.0345 37.9661 40.3518C39.6714 38.9625 39.6687 37.0185 39.6674 35.4692V35.3332C39.6674 33.1545 38.1074 31.3865 36.0341 30.2185C33.9274 29.0345 31.0861 28.3332 28.0007 28.3332ZM18.3341 35.3332C18.3341 34.1985 19.1634 32.9665 20.9487 31.9625C22.7034 30.9758 25.1941 30.3332 28.0021 30.3332C30.8074 30.3332 33.2981 30.9758 35.0527 31.9625C36.8394 32.9665 37.6674 34.1985 37.6674 35.3332C37.6674 37.0772 37.6141 38.0585 36.7021 38.7998C36.2087 39.2025 35.3821 39.5958 33.9687 39.8812C32.5594 40.1665 30.6327 40.3332 28.0007 40.3332C25.3687 40.3332 23.4407 40.1665 22.0327 39.8812C20.6194 39.5958 19.7927 39.2025 19.2994 38.8012C18.3874 38.0585 18.3341 37.0772 18.3341 35.3332Z" fill="url(#paint0_linear_2052_6113)"/>
<defs>
<linearGradient id="paint0_linear_2052_6113" x1="45.2333" y1="49.9776" x2="15.3398" y2="49.1398" gradientUnits="userSpaceOnUse">
<stop stop-color="#24C5FA"/>
<stop offset="1" stop-color="#2774F2"/>
</linearGradient>
</defs>
</svg>
