<svg width="252" height="426" viewBox="0 0 252 426" fill="none" xmlns="http://www.w3.org/2000/svg">
<circle cx="126" cy="126" r="117" fill="#FFD4D4" stroke="url(#paint0_linear_4002_4836)" stroke-width="18"/>
<path d="M101.898 143.506C101.898 143.506 100.616 142.214 100.249 150.027C99.9031 157.402 99.3949 168.033 101.169 172.595C101.361 173.088 101.701 173.513 102.153 173.79C102.519 174.016 103.03 174.243 103.692 174.346C105.237 174.586 111.342 174.451 111.342 174.451C111.342 174.451 114.806 174.451 114.859 171.603C114.902 169.26 114.859 164.163 114.859 164.163L101.898 143.506Z" fill="#263238"/>
<g opacity="0.3">
<path d="M101.898 143.506C101.898 143.506 100.616 142.214 100.249 150.027C99.9031 157.402 99.3949 168.033 101.169 172.595C101.361 173.088 101.701 173.513 102.153 173.79C102.519 174.016 103.03 174.243 103.692 174.346C105.237 174.586 111.342 174.451 111.342 174.451C111.342 174.451 114.806 174.451 114.859 171.603C114.902 169.26 114.859 164.163 114.859 164.163L101.898 143.506Z" fill="black"/>
</g>
<path d="M172.419 143.506C172.419 143.506 171.137 142.214 170.771 150.027C170.425 157.402 169.916 168.033 171.69 172.595C171.883 173.088 172.223 173.513 172.674 173.79C173.041 174.016 173.551 174.243 174.211 174.346C175.756 174.586 181.861 174.451 181.861 174.451C181.861 174.451 185.326 174.451 185.378 171.603C185.421 169.26 185.378 164.163 185.378 164.163L172.417 143.506H172.419Z" fill="#263238"/>
<g opacity="0.3">
<path d="M172.419 143.506C172.419 143.506 171.137 142.214 170.771 150.027C170.425 157.402 169.916 168.033 171.69 172.595C171.883 173.088 172.223 173.513 172.674 173.79C173.041 174.016 173.551 174.243 174.211 174.346C175.756 174.586 181.861 174.451 181.861 174.451C181.861 174.451 185.326 174.451 185.378 171.603C185.421 169.26 185.378 164.163 185.378 164.163L172.417 143.506H172.419Z" fill="black"/>
</g>
<path d="M191.275 129.988C191.275 129.988 190.886 131.308 190.088 131.446C189.288 131.583 182.989 131.775 182.989 131.775L182.373 133.041H181.187L180.324 127.965L181.059 128.116C181.31 128.169 181.521 128.339 181.622 128.575C181.734 128.836 181.979 129.016 182.26 129.044L191.277 129.986L191.275 129.988Z" fill="#263238"/>
<path d="M191.01 130.184C191.478 130.148 191.82 129.725 191.753 129.26C191.547 127.811 190.785 124.993 187.981 124.576C185.498 124.207 183.696 124.32 182.744 124.443C182.309 124.5 182.092 124.894 182.042 125.33C181.803 127.324 181.995 129.796 182.572 130.099C183.174 130.417 188.963 130.348 191.01 130.186V130.184Z" fill="#F1272A"/>
<path d="M187.253 124.589C187.253 124.589 187.315 124.656 187.412 124.789C187.51 124.92 187.643 125.119 187.801 125.367C188.117 125.864 188.516 126.576 188.872 127.401C189.229 128.226 189.476 129.004 189.622 129.574C189.695 129.859 189.747 130.091 189.778 130.253C189.808 130.415 189.822 130.504 189.814 130.506C189.806 130.506 189.78 130.421 189.737 130.261C189.697 130.104 189.632 129.873 189.551 129.592C189.387 129.03 189.132 128.262 188.777 127.441C188.421 126.622 188.036 125.909 187.738 125.406C187.591 125.153 187.465 124.951 187.378 124.811C187.291 124.672 187.246 124.593 187.253 124.589Z" fill="#263238"/>
<path d="M189.849 148.796C189.849 148.796 191.131 147.505 191.498 155.318C191.844 162.692 192.352 173.323 190.578 177.886C190.386 178.379 190.046 178.803 189.594 179.08C189.228 179.307 188.717 179.533 188.057 179.636C186.512 179.877 180.407 179.741 180.407 179.741C180.407 179.741 176.943 179.741 176.89 176.893C176.847 174.55 176.89 169.454 176.89 169.454L189.851 148.796H189.849Z" fill="#263238"/>
<path d="M189.85 148.796C189.85 148.796 189.832 148.831 189.792 148.897C189.749 148.966 189.69 149.063 189.611 149.193C189.449 149.453 189.214 149.835 188.907 150.331C188.287 151.325 187.384 152.773 186.244 154.6C183.958 158.253 180.724 163.42 176.929 169.48L176.938 169.454C176.938 171.674 176.938 174.002 176.94 176.414C176.94 176.715 176.927 177.02 176.978 177.314C177.023 177.609 177.116 177.898 177.264 178.159C177.557 178.686 178.065 179.074 178.63 179.311C179.774 179.822 181.078 179.671 182.35 179.717C183.691 179.729 185.017 179.733 186.323 179.697C186.973 179.673 187.627 179.663 188.251 179.547C188.562 179.485 188.866 179.388 189.152 179.258C189.437 179.127 189.713 178.969 189.935 178.755C190.16 178.543 190.342 178.288 190.47 178.009C190.537 177.872 190.577 177.72 190.628 177.574C190.676 177.427 190.725 177.281 190.774 177.134C190.826 176.988 190.863 176.839 190.899 176.689C190.936 176.539 190.972 176.39 191.009 176.242C191.09 175.947 191.138 175.646 191.193 175.347C191.312 174.752 191.377 174.154 191.458 173.568C191.495 173.273 191.517 172.979 191.545 172.686C191.571 172.395 191.604 172.104 191.62 171.815C191.784 169.503 191.806 167.295 191.792 165.233C191.774 163.169 191.715 161.249 191.648 159.494C191.58 157.741 191.509 156.155 191.442 154.762C191.367 153.371 191.256 152.174 191.1 151.206C190.942 150.242 190.751 149.49 190.478 149.051C190.409 148.944 190.336 148.855 190.257 148.798C190.178 148.74 190.097 148.719 190.033 148.724C189.901 148.738 189.852 148.802 189.852 148.796C189.852 148.796 189.862 148.782 189.891 148.764C189.919 148.746 189.966 148.72 190.033 148.713C190.099 148.707 190.186 148.728 190.267 148.784C190.348 148.841 190.425 148.93 190.496 149.039C190.778 149.482 190.976 150.234 191.14 151.198C191.302 152.168 191.42 153.365 191.501 154.758C191.573 156.151 191.65 157.737 191.723 159.49C191.794 161.245 191.859 163.167 191.879 165.231C191.897 167.295 191.879 169.505 191.717 171.821C191.703 172.11 191.671 172.401 191.644 172.694C191.616 172.988 191.594 173.283 191.557 173.578C191.478 174.168 191.411 174.766 191.292 175.365C191.239 175.664 191.189 175.967 191.108 176.264C191.071 176.414 191.035 176.564 190.998 176.715C190.964 176.867 190.926 177.016 190.873 177.164C190.824 177.312 190.776 177.459 190.725 177.609C190.674 177.756 190.634 177.908 190.563 178.053C190.429 178.345 190.239 178.609 190.004 178.832C189.769 179.056 189.484 179.22 189.192 179.353C188.899 179.489 188.587 179.586 188.269 179.65C187.627 179.768 186.975 179.778 186.323 179.802C185.015 179.838 183.689 179.834 182.346 179.822C181.706 179.812 181.07 179.802 180.439 179.794C179.801 179.778 179.169 179.652 178.586 179.408C178.007 179.165 177.476 178.763 177.17 178.209C177.017 177.936 176.921 177.633 176.875 177.328C176.824 177.02 176.838 176.715 176.836 176.414C176.836 174.002 176.836 171.672 176.838 169.452V169.438L176.846 169.426C180.653 163.371 183.899 158.21 186.195 154.562C187.343 152.742 188.255 151.299 188.88 150.308C189.192 149.817 189.433 149.439 189.597 149.18C189.678 149.055 189.741 148.958 189.783 148.891C189.826 148.827 189.848 148.794 189.848 148.794L189.85 148.796Z" fill="#455A64"/>
<path d="M96.1399 148.796C96.1399 148.796 94.8581 147.504 94.4916 155.317C94.1453 162.692 93.6371 173.323 95.4109 177.885C95.6033 178.379 95.9434 178.803 96.395 179.08C96.7615 179.307 97.2718 179.533 97.9319 179.636C99.4769 179.877 105.582 179.741 105.582 179.741C105.582 179.741 109.047 179.741 109.099 176.893C109.142 174.55 109.099 169.454 109.099 169.454L96.1378 148.796H96.1399Z" fill="#263238"/>
<path d="M191.041 142.065L188.204 140.205C187.56 137.312 182.3 131.31 182.3 131.31C182.3 131.31 176.824 118.128 172.1 115.019C167.376 111.91 144.305 112.302 144.305 112.302L143.084 112.32C143.084 112.32 118.635 111.912 113.911 115.019C109.187 118.128 103.712 131.31 103.712 131.31C103.712 131.31 98.4509 137.312 97.807 140.205L94.9701 142.065C94.3971 142.441 94.0609 143.087 94.0852 143.773C94.2573 148.655 95.1989 168.039 96.8391 170.214C98.4104 172.296 113.255 171.192 117.291 171.186C123.08 171.176 141.105 170.94 141.105 170.94L167.597 170.875C170.602 170.554 187.129 172.571 189.168 170.214C190.95 168.154 191.75 148.655 191.922 143.773C191.946 143.087 191.61 142.441 191.037 142.065H191.041Z" fill="#F1272A"/>
<path d="M170.82 115.903C170.701 115.694 170.482 115.563 170.243 115.551L143.419 114.403L143.209 114.395L143.205 114.413L115.751 115.551C115.51 115.561 115.294 115.694 115.174 115.903L108.18 128.086C107.943 128.497 108.233 129.012 108.707 129.024C109.474 129.046 110.614 129.058 111.936 129.004C114.087 128.915 131.197 128.955 140.228 128.986L140.224 129.004C140.224 129.004 141.271 129 142.996 128.994C144.721 129 145.768 129.004 145.768 129.004L145.764 128.986C154.795 128.957 171.905 128.917 174.056 129.004C175.449 129.06 176.636 129.046 177.403 129.022C177.824 129.008 178.079 128.551 177.871 128.185L170.82 115.903Z" fill="#455A64"/>
<path d="M94.7169 129.988C94.7169 129.988 95.1056 131.308 95.9035 131.446C96.7013 131.583 103.003 131.775 103.003 131.775L103.618 133.041H104.805L105.667 127.965L104.932 128.116C104.681 128.169 104.471 128.339 104.37 128.575C104.258 128.836 104.013 129.016 103.732 129.044L94.7148 129.986L94.7169 129.988Z" fill="#263238"/>
<path d="M110.783 126.709L175.298 126.535L175.821 127.815L144.65 128.019L110.178 127.795L110.783 126.709Z" fill="#F1272A"/>
<g opacity="0.5">
<path d="M110.781 126.709L175.112 126.536L175.819 127.815L144.648 128.019L110.176 127.795L110.781 126.709Z" fill="black"/>
</g>
<path d="M134.959 127.002C134.959 126.299 134.687 124.312 134.035 123.782C133.531 123.374 132.338 123.25 131.749 123.216C131.731 123.216 131.713 123.216 131.693 123.216C131.381 123.22 129.295 123.275 128.671 123.782C128.019 124.312 127.746 126.299 127.748 127.002V127.023C127.748 127.459 128.102 127.813 128.542 127.813H134.167C134.604 127.813 134.961 127.459 134.961 127.023C134.961 127.016 134.961 127.008 134.961 127.002H134.959Z" fill="#263238"/>
<g opacity="0.3">
<path d="M134.959 127.002C134.959 126.299 134.687 124.312 134.035 123.782C133.531 123.374 132.338 123.25 131.749 123.216C131.731 123.216 131.713 123.216 131.693 123.216C131.381 123.22 129.295 123.275 128.671 123.782C128.019 124.312 127.746 126.299 127.748 127.002V127.023C127.748 127.459 128.102 127.813 128.542 127.813H134.167C134.604 127.813 134.961 127.459 134.961 127.023C134.961 127.016 134.961 127.008 134.961 127.002H134.959Z" fill="black"/>
</g>
<path d="M132.12 126.485C132.12 125.335 131.676 122.082 130.607 121.215C129.781 120.546 127.829 120.346 126.865 120.289C126.835 120.289 126.804 120.287 126.774 120.289C126.264 120.295 122.85 120.386 121.827 121.217C120.758 122.084 120.314 125.339 120.314 126.487C120.314 126.499 120.314 126.509 120.314 126.521C120.314 127.237 120.896 127.817 121.612 127.817H130.822C131.538 127.817 132.12 127.237 132.12 126.521V126.487V126.485Z" fill="#263238"/>
<g opacity="0.3">
<path d="M120.838 160.119C120.838 160.119 100.184 157.408 99.3439 157.307C98.0683 157.153 97.3838 157.978 97.3838 158.96C97.3838 159.652 97.2907 162.294 97.236 163.796C97.2036 164.681 97.6511 165.52 98.4165 165.971C98.858 166.229 99.4492 166.498 100.235 166.729C101.972 167.238 112.441 167.721 114.61 167.816C114.863 167.828 115.112 167.74 115.302 167.572C116.084 166.884 118.175 165.009 118.834 164.079C120.99 161.034 120.838 160.116 120.838 160.116V160.119ZM110.116 165.754L100.132 164.139L100.524 158.679L114.089 159.908L110.118 165.752L110.116 165.754Z" fill="black"/>
</g>
<g opacity="0.3">
<path d="M97.6953 146.102C97.6953 146.102 96.6727 149.203 103.173 150.646C109.754 152.108 119.491 154.756 119.491 154.756L114.261 151.034C114.261 151.034 99.216 148.529 98.8414 146.231C98.4121 143.603 98.8414 140.65 98.8414 140.65L97.6953 146.102Z" fill="black"/>
</g>
<path d="M123.084 160.026C123.084 160.026 123.059 160.024 123.013 160.012C122.96 160 122.893 159.983 122.806 159.963C122.62 159.917 122.355 159.85 122.017 159.765C121.33 159.597 120.338 159.351 119.103 159.08C116.636 158.528 113.208 157.853 109.401 157.234C107.498 156.927 105.682 156.642 104.023 156.426C103.195 156.312 102.41 156.205 101.672 156.104C100.937 156.001 100.249 155.902 99.6212 155.918C98.9955 155.932 98.4265 156.078 98.0236 156.373C97.6166 156.658 97.3331 156.994 97.1448 157.289C96.7682 157.889 96.7722 158.308 96.752 158.297C96.752 158.297 96.752 158.198 96.7945 158.016C96.835 157.834 96.9241 157.57 97.1104 157.266C97.2946 156.963 97.5761 156.62 97.9892 156.324C98.3982 156.015 98.9834 155.859 99.6172 155.843C100.255 155.823 100.946 155.918 101.681 156.017C102.418 156.114 103.205 156.219 104.033 156.33C105.692 156.541 107.51 156.822 109.416 157.131C113.224 157.75 116.653 158.435 119.115 159.007C120.348 159.288 121.338 159.547 122.023 159.727C122.359 159.82 122.622 159.892 122.806 159.945C122.891 159.969 122.958 159.989 123.009 160.004C123.055 160.018 123.078 160.026 123.078 160.028L123.084 160.026Z" fill="#263238"/>
<path d="M96.8693 152.008C96.8693 152.008 96.8612 151.968 96.8592 151.893C96.8572 151.806 96.8531 151.697 96.8491 151.561C96.843 151.274 96.841 150.858 96.8491 150.342C96.8612 149.313 96.9179 147.892 97.0556 146.328C97.1953 144.763 97.3918 143.354 97.5598 142.339C97.6449 141.832 97.7198 141.421 97.7765 141.141C97.8048 141.009 97.8271 140.902 97.8453 140.817C97.8615 140.742 97.8717 140.704 97.8757 140.706C97.8798 140.706 97.8757 140.746 97.8656 140.821C97.8534 140.908 97.8372 141.015 97.817 141.149C97.7704 141.448 97.7097 141.854 97.6327 142.351C97.4829 143.368 97.2986 144.775 97.1589 146.338C97.0212 147.898 96.9524 149.317 96.922 150.344C96.9098 150.848 96.8977 151.26 96.8896 151.561C96.8855 151.695 96.8815 151.806 96.8795 151.893C96.8754 151.968 96.8734 152.008 96.8693 152.008Z" fill="#263238"/>
<path d="M101.389 138.04C101.389 138.04 101.379 137.951 101.381 137.791C101.381 137.71 101.383 137.613 101.399 137.5C101.414 137.387 101.42 137.257 101.446 137.116C101.531 136.55 101.721 135.782 101.985 134.951C102.246 134.12 102.527 133.382 102.74 132.853C102.847 132.588 102.938 132.376 103.003 132.23C103.07 132.084 103.11 132.006 103.116 132.01C103.123 132.012 103.096 132.097 103.042 132.246C102.979 132.416 102.902 132.628 102.809 132.879C102.612 133.415 102.345 134.154 102.084 134.981C101.823 135.808 101.62 136.57 101.519 137.128C101.414 137.686 101.409 138.04 101.389 138.04Z" fill="#263238"/>
<path d="M102.615 139.455C102.615 139.455 99.2277 138.222 98.7944 140.844C98.3611 143.465 98.4056 146.075 98.9746 146.991C99.5436 147.909 104.774 149.158 104.774 149.158L113.819 151.143C113.819 151.143 114.469 151.278 114.078 150.543C113.639 149.72 111.243 144.444 109.858 143.162C107.303 140.795 102.615 139.453 102.615 139.453V139.455Z" fill="#F5F5F5"/>
<g opacity="0.3">
<path d="M105.955 149.419C105.955 149.419 105.969 143.239 105.516 142.554C105.062 141.869 99.7305 139.404 99.7305 139.404C99.7305 139.404 100.249 138.964 101.314 139.166C102.379 139.368 104.151 139.849 105.621 140.603C107.093 141.357 109.448 142.437 110.327 143.686C110.709 144.228 111.509 145.525 112.273 146.932C113.265 148.762 114.204 150.719 114.204 150.826C114.204 151.05 114.257 151.254 113.378 151.068C111.341 150.634 105.955 149.423 105.955 149.423V149.419Z" fill="black"/>
</g>
<path d="M108.902 148.861C110.114 148.861 111.097 147.88 111.097 146.67C111.097 145.46 110.114 144.479 108.902 144.479C107.69 144.479 106.707 145.46 106.707 146.67C106.707 147.88 107.69 148.861 108.902 148.861Z" fill="#F5F5F5"/>
<path d="M111.097 146.67C111.083 146.67 111.097 146.474 111.008 146.14C110.923 145.813 110.702 145.33 110.208 144.958C109.963 144.776 109.655 144.622 109.301 144.561C108.948 144.503 108.552 144.515 108.173 144.658C107.983 144.725 107.8 144.824 107.63 144.952C107.46 145.075 107.304 145.229 107.179 145.406C106.915 145.756 106.768 146.207 106.764 146.67C106.768 147.133 106.915 147.584 107.179 147.933C107.306 148.111 107.46 148.265 107.63 148.388C107.798 148.513 107.983 148.615 108.173 148.681C108.552 148.825 108.948 148.837 109.301 148.778C109.655 148.718 109.963 148.562 110.208 148.38C110.702 148.008 110.923 147.527 111.008 147.197C111.095 146.864 111.083 146.666 111.097 146.668C111.097 146.668 111.123 146.864 111.048 147.208C110.973 147.545 110.759 148.046 110.252 148.439C110.001 148.631 109.683 148.794 109.315 148.863C108.948 148.928 108.533 148.92 108.138 148.772C107.94 148.703 107.746 148.6 107.569 148.469C107.391 148.34 107.227 148.18 107.094 147.994C106.816 147.628 106.66 147.155 106.656 146.668C106.66 146.181 106.818 145.71 107.094 145.344C107.227 145.158 107.391 144.998 107.569 144.869C107.746 144.737 107.938 144.634 108.138 144.565C108.535 144.418 108.948 144.408 109.315 144.475C109.683 144.543 110.001 144.707 110.252 144.899C110.759 145.291 110.973 145.793 111.048 146.13C111.123 146.474 111.097 146.67 111.097 146.67Z" fill="#263238"/>
<path d="M108.902 146.575C109.708 146.575 110.408 147.021 110.771 147.678C110.939 147.373 111.034 147.025 111.034 146.653C111.034 145.477 110.078 144.523 108.9 144.523C107.721 144.523 106.766 145.477 106.766 146.653C106.766 147.025 106.861 147.375 107.029 147.678C107.391 147.019 108.092 146.575 108.898 146.575H108.902Z" fill="#E0E0E0"/>
<path d="M109.846 146.597C109.846 147.118 109.423 147.541 108.901 147.541C108.378 147.541 107.955 147.118 107.955 146.597C107.955 146.075 108.378 145.653 108.901 145.653C109.423 145.653 109.846 146.075 109.846 146.597Z" fill="white"/>
<path d="M109.846 146.597C109.836 146.597 109.838 146.512 109.798 146.371C109.757 146.231 109.662 146.029 109.451 145.875C109.249 145.72 108.917 145.635 108.597 145.756C108.279 145.867 108.006 146.203 108.01 146.597C108.006 146.991 108.279 147.329 108.597 147.438C108.917 147.557 109.249 147.472 109.451 147.317C109.662 147.163 109.757 146.961 109.798 146.821C109.838 146.68 109.836 146.595 109.846 146.595C109.85 146.595 109.852 146.615 109.854 146.656C109.856 146.696 109.854 146.755 109.836 146.829C109.808 146.977 109.717 147.199 109.494 147.373C109.281 147.549 108.917 147.654 108.561 147.525C108.206 147.408 107.896 147.034 107.9 146.593C107.896 146.152 108.206 145.776 108.561 145.661C108.917 145.534 109.281 145.639 109.494 145.813C109.715 145.989 109.806 146.209 109.836 146.356C109.852 146.431 109.856 146.492 109.854 146.53C109.854 146.571 109.85 146.591 109.846 146.591V146.597Z" fill="#263238"/>
<path d="M109.73 145.115C109.691 145.182 109.493 145.123 109.193 145.105C108.895 145.083 108.482 145.115 108.104 145.315C107.727 145.518 107.468 145.841 107.32 146.1C107.168 146.358 107.105 146.555 107.028 146.551C106.961 146.551 106.887 146.326 106.972 145.964C107.053 145.613 107.332 145.129 107.854 144.85C108.377 144.574 108.936 144.612 109.274 144.741C109.622 144.871 109.766 145.059 109.73 145.115Z" fill="white"/>
<path d="M110.279 145.463C110.16 145.546 110.048 145.594 110.028 145.576C110.008 145.556 110.054 145.445 110.133 145.324C110.212 145.202 110.334 145.14 110.395 145.198C110.455 145.257 110.397 145.38 110.277 145.463H110.279Z" fill="white"/>
<path d="M143.447 139.778C143.447 139.778 143.419 139.782 143.36 139.784C143.298 139.784 143.215 139.786 143.105 139.789C142.876 139.791 142.548 139.793 142.127 139.797C141.273 139.799 140.044 139.805 138.529 139.809C135.486 139.809 131.292 139.809 126.659 139.809C124.34 139.805 122.133 139.801 120.123 139.797C119.118 139.795 118.165 139.791 117.272 139.789C116.826 139.789 116.395 139.784 115.98 139.784C115.569 139.758 115.178 139.873 114.884 140.102C114.303 140.589 113.779 141.03 113.317 141.418C113.086 141.612 112.869 141.792 112.671 141.958C112.462 142.117 112.238 142.214 112.029 142.265C111.821 142.315 111.626 142.319 111.464 142.307C111.302 142.299 111.165 142.291 111.051 142.285C110.944 142.279 110.859 142.273 110.798 142.269C110.741 142.265 110.711 142.263 110.711 142.261C110.711 142.261 110.741 142.259 110.798 142.261C110.861 142.261 110.944 142.263 111.053 142.265C111.167 142.269 111.304 142.271 111.466 142.277C111.63 142.287 111.817 142.279 112.021 142.226C112.224 142.174 112.44 142.077 112.641 141.919C112.837 141.751 113.05 141.569 113.279 141.375C113.738 140.983 114.261 140.538 114.84 140.045C115.143 139.803 115.565 139.679 115.982 139.706C116.397 139.706 116.828 139.706 117.274 139.706C118.167 139.706 119.12 139.706 120.125 139.706C122.133 139.706 124.343 139.708 126.661 139.71C131.294 139.722 135.488 139.732 138.531 139.738C140.046 139.746 141.275 139.754 142.129 139.758C142.55 139.762 142.878 139.766 143.107 139.768C143.215 139.77 143.3 139.772 143.362 139.774C143.419 139.774 143.449 139.778 143.449 139.78L143.447 139.778Z" fill="#263238"/>
<path d="M185.889 168.593C185.78 168.364 185.549 168.2 185.094 168.251C183.828 168.395 170.561 168.69 168.734 168.251C166.906 167.812 160.815 160.911 158.237 160.442C156.075 160.048 145.56 159.838 142.227 159.933C138.892 159.835 128.376 160.048 126.216 160.442C123.638 160.913 117.638 168.488 115.81 168.926C113.981 169.365 100.623 168.395 99.3575 168.251C98.8999 168.198 98.6691 168.362 98.5617 168.593C98.337 169.068 98.7015 169.616 99.23 169.632C102.055 169.711 112.967 169.836 115.008 169.799C117.15 169.761 139.056 169.361 142.727 169.294C148.261 169.328 167.169 169.45 169.172 169.478C171.533 169.51 182.402 169.711 185.229 169.632C185.756 169.618 186.122 169.07 185.897 168.593H185.889Z" fill="#263238"/>
<path d="M138.504 115.308C138.613 115.308 138.941 117.21 140.478 117.174C142.015 117.137 145.767 117.174 145.767 117.174V114.799L138.504 115.31V115.308Z" fill="#263238"/>
<path d="M94.982 130.184C94.5142 130.148 94.172 129.725 94.2388 129.26C94.4454 127.811 95.2067 124.993 98.0112 124.576C100.494 124.207 102.296 124.32 103.248 124.443C103.683 124.5 103.9 124.894 103.95 125.33C104.189 127.324 103.997 129.796 103.42 130.099C102.818 130.417 97.0291 130.348 94.982 130.186V130.184Z" fill="#F1272A"/>
<path d="M114.39 114.797C114.39 114.797 114.384 114.813 114.37 114.845C114.352 114.882 114.329 114.926 114.301 114.979C114.234 115.104 114.143 115.274 114.028 115.49C113.783 115.941 113.434 116.578 113.005 117.364C112.13 118.947 110.927 121.122 109.599 123.523C108.51 125.476 107.503 127.277 106.704 128.713L106.699 128.721L106.693 128.727C105.728 129.467 104.934 130.077 104.371 130.508C104.097 130.714 103.881 130.878 103.727 130.993C103.656 131.043 103.601 131.086 103.557 131.118C103.518 131.147 103.498 131.159 103.496 131.157C103.496 131.157 103.512 131.138 103.549 131.108C103.591 131.074 103.644 131.029 103.711 130.975C103.863 130.853 104.073 130.684 104.34 130.471C104.895 130.035 105.683 129.414 106.639 128.662L106.629 128.674C107.424 127.237 108.425 125.432 109.506 123.475C110.844 121.079 112.057 118.908 112.94 117.33C113.382 116.551 113.738 115.919 113.991 115.474C114.115 115.262 114.212 115.094 114.281 114.973C114.313 114.92 114.337 114.877 114.358 114.843C114.376 114.815 114.386 114.801 114.388 114.801L114.39 114.797Z" fill="#263238"/>
<path d="M118.125 113.659C118.129 113.675 117.933 113.737 117.623 113.855C117.315 113.974 116.89 114.152 116.489 114.451C116.088 114.752 115.799 115.11 115.598 115.371C115.4 115.636 115.284 115.805 115.27 115.797C115.26 115.791 115.353 115.607 115.538 115.328C115.724 115.053 116.011 114.679 116.426 114.368C116.842 114.059 117.283 113.887 117.599 113.786C117.919 113.687 118.121 113.648 118.125 113.661V113.659Z" fill="#263238"/>
<g opacity="0.3">
<path d="M106.682 128.706L106.487 128.84C106.408 128.743 111.165 138.695 113.402 141.32L114.874 140.075C111.699 137.007 109.328 132.238 106.682 128.706Z" fill="black"/>
</g>
<path d="M116.115 167.835C116.115 167.835 116.158 167.826 116.227 167.782C116.297 167.74 116.397 167.671 116.524 167.57C116.777 167.372 117.136 167.062 117.589 166.65C118.492 165.827 119.772 164.606 121.311 163.056C121.696 162.668 122.095 162.259 122.508 161.827C122.925 161.402 123.318 160.917 123.822 160.507C124.326 160.102 124.915 159.765 125.563 159.53C126.211 159.294 126.914 159.154 127.639 159.1C128.001 159.073 128.37 159.073 128.738 159.069C129.109 159.065 129.484 159.061 129.862 159.059C130.62 159.051 131.391 159.045 132.179 159.037C133.752 159.023 135.38 159.007 137.049 158.99C143.723 158.936 149.763 158.885 154.141 158.849C156.326 158.837 158.093 158.825 159.32 158.819C159.93 158.819 160.404 158.817 160.728 158.817C160.886 158.817 161.007 158.817 161.094 158.817C161.177 158.817 161.22 158.821 161.22 158.821C161.22 158.821 161.177 158.825 161.094 158.827C161.007 158.829 160.886 158.831 160.728 158.835C160.402 158.841 159.928 158.847 159.32 158.857C158.093 158.873 156.326 158.893 154.141 158.922C149.763 158.966 143.723 159.027 137.049 159.094C135.38 159.108 133.752 159.124 132.179 159.138C131.393 159.144 130.62 159.152 129.862 159.158C129.484 159.162 129.109 159.164 128.738 159.168C128.368 159.172 128.003 159.172 127.645 159.197C126.928 159.251 126.234 159.387 125.596 159.617C124.956 159.848 124.375 160.177 123.877 160.575C123.381 160.976 122.986 161.459 122.565 161.883C122.151 162.314 121.748 162.72 121.364 163.108C119.819 164.655 118.531 165.868 117.618 166.682C117.16 167.089 116.798 167.394 116.538 167.588C116.411 167.685 116.308 167.754 116.235 167.792C116.162 167.833 116.117 167.835 116.117 167.835H116.115Z" fill="#263238"/>
<g opacity="0.3">
<path d="M105.21 155.78C104.584 155.162 103.952 154.539 103.209 154.07C102.466 153.601 101.397 153.051 100.722 153.488C100.38 153.86 100.105 154.29 99.9084 154.753C99.8415 154.911 99.7848 155.097 99.8598 155.251C99.9549 155.443 100.2 155.491 100.413 155.517C101.962 155.712 103.511 155.906 105.062 156.102C105.151 156.114 105.264 156.114 105.307 156.035C105.353 155.95 105.278 155.849 105.21 155.78Z" fill="white"/>
</g>
<g opacity="0.3">
<path d="M123.322 152.845C135.184 155.999 147.716 155.206 159.91 153.801C161.793 153.585 163.84 153.272 165.124 151.881" fill="black"/>
</g>
<path d="M167.533 141.927C162.9 141.274 153.16 140.949 143.491 140.955C133.822 140.949 124.081 141.274 119.45 141.927C117.998 142.131 117.052 143.571 117.467 144.976C117.471 144.992 117.478 145.008 117.482 145.026C117.988 146.688 119.986 151.99 123.167 152.785C124.644 153.153 132.962 153.506 141.839 153.579V153.591C142.39 153.591 142.941 153.591 143.491 153.587C144.042 153.589 144.593 153.591 145.144 153.591V153.579C154.019 153.508 162.339 153.153 163.815 152.785C166.998 151.99 168.995 146.688 169.501 145.026C169.505 145.01 169.511 144.994 169.515 144.976C169.928 143.571 168.985 142.131 167.533 141.927Z" fill="#263238"/>
<path d="M168.705 152.081C168.705 152.081 168.664 152.105 168.583 152.148C168.498 152.192 168.377 152.253 168.221 152.336C168.059 152.419 167.862 152.518 167.627 152.637C167.51 152.696 167.384 152.762 167.247 152.825C167.109 152.886 166.961 152.952 166.805 153.021C165.568 153.597 163.715 154.311 161.354 154.938C158.989 155.548 156.118 156.07 152.898 156.342C149.681 156.64 146.127 156.704 142.403 156.69C138.678 156.672 135.124 156.504 131.918 156.08C128.715 155.665 125.87 154.996 123.554 154.22C121.233 153.454 119.443 152.595 118.242 151.946C117.939 151.788 117.679 151.632 117.451 151.501C117.222 151.372 117.033 151.254 116.882 151.159C116.732 151.064 116.616 150.994 116.535 150.943C116.458 150.895 116.42 150.866 116.42 150.866C116.42 150.866 116.462 150.888 116.541 150.935C116.624 150.983 116.74 151.052 116.894 151.143C117.048 151.236 117.238 151.349 117.469 151.477C117.698 151.604 117.959 151.758 118.265 151.911C119.469 152.548 121.259 153.395 123.58 154.151C125.894 154.915 128.735 155.576 131.935 155.985C135.134 156.403 138.684 156.569 142.407 156.585C146.129 156.601 149.681 156.539 152.892 156.247C156.106 155.979 158.975 155.467 161.338 154.867C163.699 154.25 165.55 153.549 166.791 152.985C166.947 152.918 167.095 152.853 167.235 152.795C167.372 152.734 167.498 152.667 167.615 152.611C167.85 152.496 168.051 152.399 168.213 152.32C168.373 152.243 168.494 152.184 168.581 152.142C168.664 152.101 168.709 152.085 168.709 152.085L168.705 152.081Z" fill="#263238"/>
<path d="M169.277 144.508C169.277 144.537 157.71 144.561 143.443 144.561C129.176 144.561 117.607 144.537 117.607 144.508C117.607 144.48 129.172 144.456 143.443 144.456C157.715 144.456 169.277 144.48 169.277 144.508Z" fill="#455A64"/>
<path d="M169.277 142.938C169.277 142.966 157.71 142.99 143.443 142.99C129.176 142.99 117.607 142.966 117.607 142.938C117.607 142.91 129.172 142.885 143.443 142.885C157.715 142.885 169.277 142.91 169.277 142.938Z" fill="#455A64"/>
<path d="M161.965 141.367C161.965 141.396 153.685 141.42 143.474 141.42C133.262 141.42 124.98 141.396 124.98 141.367C124.98 141.339 133.258 141.315 143.474 141.315C153.689 141.315 161.965 141.339 161.965 141.367Z" fill="#455A64"/>
<path d="M169.277 146.101C169.277 146.13 157.71 146.154 143.443 146.154C129.176 146.154 117.607 146.13 117.607 146.101C117.607 146.073 129.172 146.049 143.443 146.049C157.715 146.049 169.277 146.073 169.277 146.101Z" fill="#455A64"/>
<path d="M168.128 147.694C168.128 147.722 157.021 147.747 143.323 147.747C129.624 147.747 118.516 147.722 118.516 147.694C118.516 147.666 129.62 147.642 143.323 147.642C157.025 147.642 168.128 147.666 168.128 147.694Z" fill="#455A64"/>
<path d="M167.625 149.287C167.625 149.315 156.818 149.34 143.49 149.34C130.162 149.34 119.354 149.315 119.354 149.287C119.354 149.259 130.158 149.235 143.49 149.235C156.822 149.235 167.625 149.259 167.625 149.287Z" fill="#455A64"/>
<path d="M166.378 150.88C166.378 150.908 156.128 150.933 143.489 150.933C130.85 150.933 120.598 150.908 120.598 150.88C120.598 150.852 130.846 150.828 143.489 150.828C156.133 150.828 166.378 150.852 166.378 150.88Z" fill="#455A64"/>
<path d="M164.828 152.471C164.828 152.5 155.331 152.524 143.619 152.524C131.907 152.524 122.408 152.5 122.408 152.471C122.408 152.443 131.903 152.419 143.619 152.419C155.335 152.419 164.828 152.443 164.828 152.471Z" fill="#455A64"/>
<path d="M104.023 168.977C104.023 168.977 104.025 168.987 104.027 168.991C104.127 169.335 103.867 169.717 103.509 169.709L100.144 169.652C99.8805 169.646 99.6618 169.385 99.6294 169.124L99.6071 168.939C99.5666 168.607 99.8744 168.304 100.206 168.328L103.546 168.573C103.768 168.589 103.965 168.761 104.025 168.977H104.023Z" fill="white"/>
<path d="M166.814 167.02C166.814 167.048 155.96 167.072 142.576 167.072C129.191 167.072 118.336 167.048 118.336 167.02C118.336 166.992 129.187 166.967 142.576 166.967C155.965 166.967 166.814 166.992 166.814 167.02Z" fill="#455A64"/>
<path d="M129.023 168.783H127.601L127.5 167.02H129.13L129.023 168.783Z" fill="#455A64"/>
<path d="M142.32 168.783H140.898L140.797 167.02H142.427L142.32 168.783Z" fill="#455A64"/>
<path d="M155.618 168.783H154.197L154.096 167.02H155.726L155.618 168.783Z" fill="#455A64"/>
<path d="M166.064 166.381C163.492 164.17 160.028 160.767 158.246 160.442C156.083 160.048 145.568 159.838 142.235 159.933C138.9 159.835 128.385 160.048 126.224 160.442C124.566 160.745 121.49 163.99 119.021 166.381H166.068H166.064Z" fill="#455A64"/>
<path d="M97.6309 165.223C97.6309 165.223 97.6673 165.186 97.7422 165.122C97.8252 165.053 97.9366 164.96 98.0784 164.843C98.3821 164.598 98.8114 164.248 99.348 163.814L99.3581 163.806H99.3723C101.041 164.012 103.554 164.319 106.364 164.665C107.731 164.839 109.029 165.002 110.185 165.148H110.195L110.203 165.154C111.601 165.92 112.785 166.571 113.628 167.034C114.037 167.262 114.365 167.446 114.597 167.576C114.703 167.636 114.788 167.685 114.853 167.723C114.909 167.758 114.94 167.776 114.938 167.778C114.938 167.78 114.905 167.766 114.844 167.735C114.778 167.701 114.691 167.657 114.581 167.602C114.344 167.477 114.014 167.303 113.599 167.085C112.751 166.63 111.56 165.991 110.157 165.237L110.173 165.243C109.017 165.099 107.719 164.938 106.352 164.77C103.544 164.41 101.031 164.089 99.3642 163.876L99.3905 163.868C98.8458 164.293 98.4104 164.632 98.1027 164.873C97.9569 164.984 97.8414 165.071 97.7564 165.138C97.6774 165.196 97.6349 165.227 97.6329 165.225L97.6309 165.223Z" fill="#263238"/>
<path d="M114.936 161.364C114.936 161.364 115.624 160.204 114.936 159.911C114.146 159.575 100.96 157.996 100.423 157.948C99.3541 157.853 98.9653 158.336 98.7142 159.589C98.4631 160.842 97.9103 163.951 98.9653 164.855C100.02 165.759 101.679 166.159 104.943 166.359C108.209 166.559 109.926 166.67 111.534 165.767C113.142 164.863 114.934 161.362 114.934 161.362L114.936 161.364Z" fill="#263238"/>
<path d="M114.262 151.034C114.228 151.048 114.043 150.708 113.724 150.088C113.404 149.467 112.95 148.565 112.361 147.47C112.061 146.924 111.735 146.326 111.356 145.703C110.978 145.082 110.563 144.419 110.061 143.789C109.803 143.475 109.542 143.18 109.216 142.913C108.894 142.645 108.544 142.406 108.163 142.188C107.783 141.969 107.376 141.759 106.966 141.541C106.557 141.324 106.14 141.108 105.717 140.9C104.869 140.482 104.024 140.12 103.182 139.853C102.761 139.719 102.342 139.61 101.927 139.523C101.511 139.432 101.11 139.372 100.728 139.384C100.349 139.398 99.9927 139.493 99.7194 139.689C99.448 139.885 99.2577 140.176 99.1301 140.496C98.9985 140.813 98.9195 141.151 98.8446 141.478C98.7738 141.808 98.7009 142.133 98.628 142.436C98.3384 143.645 98.1035 144.626 97.9395 145.311C97.7775 145.99 97.6864 146.364 97.6479 146.36C97.6135 146.354 97.6358 145.966 97.737 145.272C97.8362 144.579 98.0185 143.583 98.2635 142.357C98.3222 142.05 98.3829 141.731 98.4457 141.397C98.5125 141.06 98.5834 140.702 98.7231 140.334C98.8588 139.97 99.0836 139.59 99.444 139.315C99.8065 139.044 100.262 138.921 100.706 138.899C101.151 138.876 101.596 138.941 102.026 139.03C102.459 139.117 102.896 139.226 103.334 139.362C104.211 139.632 105.083 140.004 105.946 140.429C106.377 140.641 106.798 140.86 107.209 141.08C107.618 141.3 108.023 141.51 108.422 141.743C108.819 141.975 109.2 142.238 109.538 142.529C109.88 142.814 110.18 143.16 110.439 143.487C110.956 144.159 111.36 144.84 111.729 145.481C112.098 146.124 112.405 146.736 112.687 147.298C113.238 148.424 113.643 149.354 113.906 150.003C114.169 150.652 114.291 151.02 114.258 151.034H114.262Z" fill="#263238"/>
<path d="M102.362 144.407C103.389 144.407 104.282 144.975 104.743 145.814C104.958 145.426 105.079 144.981 105.079 144.508C105.079 143.01 103.862 141.795 102.362 141.795C100.861 141.795 99.6445 143.01 99.6445 144.508C99.6445 144.981 99.766 145.426 99.9807 145.814C100.442 144.975 101.335 144.407 102.362 144.407Z" fill="#E0E0E0"/>
<path d="M102.36 145.588C103.006 145.588 103.53 145.065 103.53 144.419C103.53 143.774 103.006 143.251 102.36 143.251C101.713 143.251 101.189 143.774 101.189 144.419C101.189 145.065 101.713 145.588 102.36 145.588Z" fill="white"/>
<path d="M103.53 144.419C103.52 144.419 103.522 144.314 103.474 144.138C103.425 143.964 103.305 143.712 103.044 143.52C102.791 143.326 102.376 143.216 101.975 143.366C101.578 143.503 101.234 143.926 101.24 144.419C101.236 144.912 101.578 145.335 101.975 145.472C102.376 145.622 102.791 145.515 103.044 145.319C103.305 145.125 103.425 144.872 103.474 144.7C103.522 144.524 103.52 144.419 103.53 144.419C103.534 144.419 103.536 144.445 103.536 144.494C103.536 144.543 103.532 144.617 103.512 144.708C103.474 144.89 103.362 145.163 103.089 145.377C102.826 145.592 102.38 145.719 101.943 145.561C101.726 145.487 101.522 145.341 101.374 145.139C101.222 144.939 101.137 144.682 101.135 144.417C101.137 144.152 101.222 143.896 101.374 143.695C101.522 143.493 101.728 143.348 101.943 143.273C102.38 143.115 102.826 143.243 103.089 143.457C103.362 143.671 103.474 143.944 103.512 144.126C103.532 144.219 103.538 144.292 103.536 144.34C103.536 144.389 103.532 144.415 103.53 144.415V144.419Z" fill="#263238"/>
<path d="M105.079 144.508C105.063 144.508 105.079 144.266 104.974 143.851C104.869 143.445 104.597 142.845 103.984 142.382C103.68 142.155 103.297 141.963 102.856 141.886C102.419 141.812 101.925 141.828 101.453 142.006C101.216 142.089 100.987 142.212 100.778 142.37C100.566 142.523 100.373 142.713 100.216 142.936C99.8875 143.372 99.7032 143.93 99.6972 144.508C99.7032 145.085 99.8875 145.646 100.216 146.081C100.373 146.301 100.566 146.493 100.778 146.647C100.989 146.805 101.216 146.928 101.453 147.011C101.923 147.191 102.417 147.205 102.856 147.13C103.297 147.053 103.68 146.861 103.984 146.635C104.597 146.172 104.871 145.574 104.974 145.165C105.079 144.751 105.063 144.506 105.079 144.508C105.083 144.508 105.083 144.567 105.079 144.682C105.079 144.739 105.077 144.81 105.063 144.892C105.053 144.975 105.043 145.07 105.013 145.175C104.917 145.592 104.652 146.21 104.026 146.694C103.717 146.93 103.324 147.132 102.87 147.215C102.419 147.296 101.906 147.284 101.418 147.102C101.173 147.017 100.934 146.89 100.718 146.728C100.497 146.568 100.297 146.372 100.13 146.142C99.7883 145.691 99.5959 145.107 99.5898 144.508C99.5959 143.908 99.7883 143.326 100.13 142.875C100.297 142.647 100.497 142.448 100.718 142.289C100.936 142.127 101.173 142 101.418 141.915C101.906 141.733 102.419 141.721 102.87 141.802C103.326 141.884 103.719 142.087 104.026 142.323C104.652 142.806 104.917 143.425 105.013 143.841C105.043 143.946 105.053 144.041 105.063 144.124C105.077 144.207 105.079 144.278 105.079 144.335C105.081 144.448 105.079 144.508 105.079 144.508Z" fill="#263238"/>
<path d="M103.387 142.583C103.347 142.65 103.108 142.563 102.731 142.527C102.359 142.486 101.828 142.519 101.344 142.775C100.86 143.034 100.538 143.455 100.364 143.786C100.184 144.12 100.123 144.366 100.046 144.36C99.9814 144.36 99.9024 144.085 100.018 143.651C100.125 143.226 100.469 142.646 101.099 142.311C101.729 141.977 102.403 142.015 102.816 142.163C103.241 142.311 103.426 142.529 103.389 142.583H103.387Z" fill="white"/>
<path d="M104.068 143.015C103.948 143.097 103.831 143.138 103.803 143.11C103.774 143.081 103.811 142.964 103.89 142.841C103.969 142.719 104.1 142.663 104.171 142.732C104.242 142.8 104.189 142.932 104.07 143.015H104.068Z" fill="white"/>
<path d="M119.491 154.755C119.455 154.897 115.822 154.101 111.375 152.981C106.929 151.859 103.353 150.836 103.387 150.694C103.423 150.553 107.056 151.347 111.503 152.469C115.949 153.591 119.525 154.614 119.489 154.755H119.491Z" fill="#263238"/>
<path d="M98.0684 139.91C98.0684 139.91 98.0684 139.887 98.0705 139.847C98.0745 139.807 98.0846 139.744 98.1008 139.665C98.1373 139.507 98.2021 139.275 98.3499 139.002C98.4977 138.733 98.7447 138.426 99.1234 138.197C99.2165 138.139 99.3239 138.096 99.4292 138.044C99.5426 138.009 99.6539 137.961 99.7774 137.937C99.901 137.914 100.024 137.878 100.158 137.874C100.29 137.864 100.427 137.868 100.565 137.878C101.118 137.923 101.707 138.056 102.331 138.222C102.954 138.387 103.613 138.596 104.301 138.832C105.672 139.309 107.162 139.879 108.685 140.585C108.875 140.676 109.062 140.767 109.246 140.866C109.432 140.963 109.602 141.09 109.762 141.216C110.084 141.472 110.374 141.757 110.623 142.069C111.093 142.711 111.508 143.342 111.913 143.945C112.717 145.149 113.409 146.257 113.97 147.199C114.529 148.141 114.958 148.917 115.248 149.459C115.393 149.728 115.503 149.94 115.576 150.084C115.61 150.153 115.636 150.205 115.659 150.248C115.677 150.284 115.685 150.304 115.683 150.304C115.683 150.304 115.669 150.288 115.649 150.252C115.624 150.211 115.594 150.159 115.557 150.092C115.474 149.944 115.359 149.738 115.211 149.477C114.911 148.944 114.472 148.174 113.905 147.238C113.338 146.302 112.64 145.2 111.832 143.997C111.427 143.401 111.003 142.76 110.542 142.131C110.297 141.828 110.011 141.547 109.695 141.296C109.535 141.173 109.373 141.052 109.193 140.957C109.013 140.86 108.827 140.769 108.638 140.68C107.124 139.978 105.633 139.404 104.269 138.923C103.584 138.687 102.928 138.476 102.309 138.307C101.689 138.139 101.102 138.001 100.559 137.953C100.423 137.941 100.292 137.937 100.164 137.945C100.037 137.947 99.9131 137.981 99.7936 138.001C99.6742 138.024 99.5648 138.07 99.4535 138.102C99.3502 138.153 99.2449 138.191 99.1538 138.248C98.7812 138.466 98.5362 138.761 98.3863 139.022C98.2365 139.287 98.1636 139.515 98.1211 139.669C98.1008 139.746 98.0887 139.807 98.0806 139.847C98.0725 139.887 98.0684 139.908 98.0664 139.908L98.0684 139.91Z" fill="#263238"/>
<path d="M98.7376 124.589C98.7376 124.589 98.6991 124.671 98.612 124.811C98.525 124.95 98.4014 125.153 98.2516 125.405C97.9539 125.909 97.5692 126.622 97.2128 127.441C96.8585 128.262 96.6013 129.03 96.4393 129.592C96.3563 129.873 96.2935 130.101 96.253 130.261C96.2105 130.419 96.1842 130.505 96.1761 130.505C96.168 130.505 96.1821 130.415 96.2125 130.253C96.2409 130.091 96.2935 129.859 96.3684 129.574C96.5142 129.003 96.7613 128.227 97.1177 127.4C97.4761 126.576 97.8729 125.864 98.1888 125.367C98.3468 125.118 98.4804 124.922 98.5776 124.789C98.6748 124.655 98.7315 124.585 98.7376 124.589Z" fill="#263238"/>
<g opacity="0.3">
<path d="M97.2268 141.054C97.0263 141.12 95.9268 141.804 95.4611 142.065C94.9954 142.325 94.5884 142.736 94.4527 143.251C94.319 143.765 94.4669 144.306 94.6127 144.816C95.0926 146.484 95.6494 149.481 96.1293 151.147C96.5039 148.123 96.9129 142.972 97.2268 141.052" fill="white"/>
</g>
<path d="M112.306 165.045C112.302 165.073 109.171 164.665 105.312 164.131C101.452 163.597 98.328 163.142 98.332 163.114C98.3361 163.086 101.467 163.494 105.326 164.028C109.183 164.562 112.31 165.016 112.306 165.045Z" fill="#455A64"/>
<path d="M111.309 165.809C111.309 165.809 111.263 165.809 111.178 165.801C111.08 165.791 110.957 165.777 110.803 165.76C110.465 165.72 109.997 165.663 109.424 165.595C108.248 165.455 106.646 165.263 104.876 165.053C103.098 164.843 101.492 164.641 100.33 164.481C99.7491 164.4 99.2793 164.333 98.9553 164.281C98.8014 164.256 98.6779 164.236 98.5827 164.22C98.4977 164.206 98.4531 164.196 98.4531 164.192C98.4531 164.188 98.4997 164.192 98.5847 164.2C98.6819 164.21 98.8055 164.224 98.9593 164.24C99.2975 164.281 99.7653 164.337 100.338 164.406C101.515 164.546 103.116 164.738 104.886 164.948C106.662 165.158 108.27 165.36 109.432 165.52C110.013 165.601 110.483 165.667 110.807 165.72C110.961 165.744 111.084 165.764 111.18 165.781C111.265 165.795 111.309 165.805 111.309 165.809Z" fill="#455A64"/>
<path d="M109.119 166.381C109.129 166.407 108.606 166.365 107.78 166.282C106.952 166.199 105.808 166.072 104.548 165.924C103.287 165.777 102.145 165.635 101.321 165.528C100.922 165.473 100.592 165.429 100.345 165.395C100.114 165.36 99.9883 165.338 99.9883 165.332C99.9883 165.324 100.118 165.332 100.349 165.354C100.598 165.378 100.928 165.413 101.329 165.453C102.171 165.548 103.307 165.678 104.56 165.819C105.814 165.969 106.946 166.106 107.79 166.207C108.191 166.258 108.519 166.3 108.768 166.331C108.997 166.361 109.131 166.379 109.121 166.379L109.119 166.381Z" fill="#455A64"/>
<path d="M113.037 164.176C113.033 164.204 109.738 163.796 105.678 163.262C101.616 162.728 98.33 162.273 98.332 162.245C98.3361 162.217 101.631 162.625 105.69 163.159C109.75 163.692 113.039 164.147 113.035 164.176H113.037Z" fill="#455A64"/>
<path d="M113.608 163.367C113.604 163.395 110.194 162.971 105.99 162.421C101.787 161.869 98.3807 161.398 98.3848 161.37C98.3888 161.341 101.799 161.764 106.004 162.318C110.208 162.87 113.612 163.341 113.608 163.369V163.367Z" fill="#455A64"/>
<path d="M114.25 162.413C114.246 162.441 110.739 162.004 106.418 161.438C102.095 160.87 98.5956 160.387 98.5977 160.359C98.6017 160.33 102.109 160.767 106.43 161.333C110.751 161.901 114.252 162.384 114.248 162.413H114.25Z" fill="#455A64"/>
<path d="M114.742 161.438C114.738 161.467 111.168 161.022 106.77 160.446C102.37 159.868 98.8085 159.377 98.8125 159.348C98.8166 159.32 102.384 159.765 106.785 160.343C111.183 160.921 114.746 161.412 114.742 161.44V161.438Z" fill="#455A64"/>
<path d="M115.239 160.464C115.235 160.492 111.637 160.043 107.204 159.461C102.77 158.879 99.1776 158.384 99.1816 158.356C99.1857 158.327 102.782 158.776 107.218 159.358C111.653 159.94 115.245 160.436 115.241 160.464H115.239Z" fill="#455A64"/>
<path d="M103.625 158.24C103.653 158.247 103.305 159.997 102.845 162.15C102.386 164.303 101.991 166.043 101.963 166.037C101.934 166.031 102.282 164.281 102.742 162.128C103.202 159.975 103.597 158.234 103.625 158.24Z" fill="#455A64"/>
<path d="M102.303 158.02C102.331 158.026 101.983 159.777 101.523 161.93C101.063 164.083 100.669 165.823 100.64 165.817C100.612 165.811 100.96 164.061 101.42 161.908C101.88 159.755 102.274 158.014 102.303 158.02Z" fill="#455A64"/>
<path d="M100.975 157.8C101.004 157.806 100.676 159.461 100.24 161.499C99.8051 163.537 99.4304 165.182 99.4021 165.176C99.3737 165.17 99.7018 163.515 100.137 161.477C100.572 159.441 100.947 157.794 100.975 157.8Z" fill="#455A64"/>
<path d="M99.5411 158.101C99.5411 158.101 99.5391 158.182 99.5148 158.323C99.4844 158.487 99.45 158.687 99.4075 158.924C99.3123 159.455 99.1888 160.143 99.0511 160.903C98.9155 161.677 98.7757 162.377 98.6644 162.88C98.6077 163.131 98.5611 163.335 98.5246 163.474C98.4882 163.614 98.4659 163.691 98.4578 163.688C98.4497 163.686 98.4598 163.608 98.4841 163.466C98.5145 163.302 98.5489 163.102 98.5915 162.866C98.6866 162.334 98.8102 161.647 98.9478 160.887C99.0835 160.112 99.2212 159.413 99.3346 158.912C99.3913 158.661 99.4379 158.457 99.4743 158.317C99.5108 158.178 99.533 158.101 99.5411 158.103V158.101Z" fill="#455A64"/>
<path d="M105.16 158.515C105.188 158.521 104.852 160.211 104.409 162.29C103.965 164.368 103.583 166.048 103.554 166.041C103.526 166.035 103.862 164.345 104.306 162.267C104.749 160.189 105.132 158.509 105.16 158.515Z" fill="#455A64"/>
<path d="M106.684 158.823C106.712 158.829 106.376 160.523 105.93 162.605C105.487 164.689 105.102 166.373 105.074 166.367C105.046 166.361 105.382 164.667 105.827 162.583C106.271 160.501 106.655 158.815 106.684 158.821V158.823Z" fill="#455A64"/>
<path d="M108.255 158.906C108.284 158.912 107.95 160.592 107.51 162.656C107.069 164.722 106.69 166.389 106.662 166.383C106.633 166.377 106.968 164.699 107.407 162.633C107.846 160.569 108.227 158.9 108.255 158.906Z" fill="#455A64"/>
<path d="M109.802 159.108C109.83 159.114 109.498 160.784 109.061 162.837C108.624 164.891 108.245 166.551 108.217 166.545C108.188 166.539 108.52 164.869 108.958 162.815C109.395 160.761 109.774 159.102 109.802 159.108Z" fill="#455A64"/>
<path d="M111.328 159.409C111.356 159.415 111.046 160.978 110.637 162.898C110.228 164.818 109.872 166.371 109.844 166.365C109.815 166.359 110.125 164.796 110.534 162.876C110.943 160.955 111.299 159.403 111.328 159.409Z" fill="#455A64"/>
<path d="M112.891 159.539C112.919 159.545 112.632 161.004 112.249 162.799C111.866 164.594 111.532 166.046 111.504 166.04C111.476 166.034 111.763 164.574 112.146 162.777C112.528 160.982 112.863 159.531 112.891 159.537V159.539Z" fill="#455A64"/>
<path d="M114.427 159.789C114.455 159.795 114.295 160.658 114.068 161.719C113.842 162.779 113.635 163.634 113.607 163.628C113.578 163.622 113.738 162.758 113.965 161.697C114.192 160.638 114.399 159.783 114.427 159.789Z" fill="#455A64"/>
<path d="M164.9 165.583C164.9 165.611 154.838 165.635 142.427 165.635C130.017 165.635 119.953 165.611 119.953 165.583C119.953 165.554 130.013 165.53 142.427 165.53C154.842 165.53 164.9 165.554 164.9 165.583Z" fill="#263238"/>
<path d="M164.017 164.568C164.017 164.596 154.386 164.62 142.512 164.62C130.638 164.62 121.006 164.596 121.006 164.568C121.006 164.54 130.634 164.515 142.512 164.515C154.39 164.515 164.017 164.54 164.017 164.568Z" fill="#263238"/>
<path d="M162.68 163.529C162.68 163.557 153.572 163.581 142.34 163.581C131.108 163.581 121.998 163.557 121.998 163.529C121.998 163.501 131.104 163.476 142.34 163.476C153.576 163.476 162.68 163.501 162.68 163.529Z" fill="#263238"/>
<path d="M161.788 162.49C161.788 162.518 153.113 162.542 142.413 162.542C131.714 162.542 123.037 162.518 123.037 162.49C123.037 162.462 131.71 162.437 142.413 162.437C153.117 162.437 161.788 162.462 161.788 162.49Z" fill="#263238"/>
<path d="M160.301 161.499C160.301 161.527 152.258 161.552 142.338 161.552C132.418 161.552 124.373 161.527 124.373 161.499C124.373 161.471 132.414 161.447 142.338 161.447C152.262 161.447 160.301 161.471 160.301 161.499Z" fill="#263238"/>
<path d="M158.617 160.511C158.617 160.539 151.35 160.563 142.39 160.563C133.43 160.563 126.16 160.539 126.16 160.511C126.16 160.483 133.425 160.458 142.39 160.458C151.354 160.458 158.617 160.483 158.617 160.511Z" fill="#263238"/>
<g opacity="0.3">
<path d="M145.77 129.004L108.131 128.945C108.131 128.945 109.69 130.805 112.557 130.789C115.173 130.775 140.632 130.787 145.101 130.789C145.101 130.789 145.211 130.789 145.413 130.789C145.646 130.789 145.77 130.789 145.77 130.789C149.894 130.787 171.804 130.775 174.067 130.789C176.568 130.805 177.795 129.004 177.795 129.004H145.77Z" fill="black"/>
</g>
<path d="M177.927 128.203L170.806 115.878C170.694 115.686 170.492 115.563 170.269 115.553L145.768 114.503L143.417 114.402C143.135 114.39 142.854 114.39 142.573 114.402L140.222 114.503L115.72 115.553C115.498 115.563 115.295 115.684 115.184 115.878L108.062 128.203C107.833 128.599 108.074 129.103 108.53 129.171C108.631 129.186 108.739 129.202 108.854 129.214C109.476 129.283 134.331 129.238 142.994 129.22C151.658 129.238 176.514 129.283 177.133 129.214C177.247 129.202 177.356 129.188 177.457 129.171C177.911 129.103 178.154 128.601 177.925 128.203H177.927ZM174.649 127.686L142.996 127.9L111.343 127.686C110.842 127.682 110.533 127.142 110.784 126.711C112.149 124.354 115.577 118.456 116.125 117.774C117.122 116.539 132.531 116.375 140.728 116.377C140.776 116.39 140.827 116.396 140.88 116.396C141.36 116.392 142.085 116.388 142.996 116.383C143.907 116.388 144.632 116.392 145.112 116.396C145.164 116.396 145.215 116.39 145.264 116.377C153.46 116.377 168.872 116.539 169.866 117.774C170.415 118.456 173.843 124.354 175.208 126.711C175.457 127.142 175.147 127.682 174.649 127.686Z" fill="#263238"/>
<path d="M151.033 127.002C151.033 126.299 151.305 124.312 151.957 123.782C152.461 123.374 153.653 123.25 154.243 123.216C154.261 123.216 154.279 123.216 154.299 123.216C154.611 123.22 156.697 123.275 157.321 123.782C157.973 124.312 158.246 126.299 158.244 127.002V127.023C158.244 127.459 157.89 127.813 157.45 127.813H151.825C151.388 127.813 151.031 127.459 151.031 127.023C151.031 127.016 151.031 127.008 151.031 127.002H151.033Z" fill="#263238"/>
<g opacity="0.3">
<path d="M151.033 127.003C151.033 126.299 151.305 124.312 151.957 123.782C152.461 123.374 153.653 123.251 154.243 123.216C154.261 123.216 154.279 123.216 154.299 123.216C154.611 123.22 156.697 123.275 157.321 123.782C157.973 124.312 158.246 126.299 158.244 127.003V127.023C158.244 127.459 157.89 127.813 157.45 127.813H151.825C151.388 127.813 151.031 127.459 151.031 127.023C151.031 127.017 151.031 127.009 151.031 127.003H151.033Z" fill="black"/>
</g>
<path d="M153.873 126.485C153.873 125.335 154.316 122.082 155.386 121.215C156.212 120.546 158.164 120.346 159.128 120.289C159.158 120.289 159.188 120.287 159.219 120.289C159.729 120.295 163.143 120.386 164.166 121.217C165.235 122.084 165.678 125.339 165.678 126.487C165.678 126.499 165.678 126.509 165.678 126.521C165.678 127.237 165.097 127.817 164.38 127.817H155.171C154.454 127.817 153.873 127.237 153.873 126.521V126.487V126.485Z" fill="#263238"/>
<g opacity="0.3">
<path d="M165.155 160.119C165.155 160.119 165.003 161.038 167.159 164.081C167.817 165.011 169.909 166.885 170.691 167.574C170.881 167.742 171.128 167.829 171.383 167.818C173.554 167.723 184.021 167.24 185.758 166.731C186.544 166.5 187.135 166.232 187.576 165.973C188.342 165.522 188.789 164.683 188.757 163.798C188.702 162.296 188.609 159.654 188.609 158.962C188.609 157.98 187.925 157.153 186.649 157.309C185.809 157.41 165.155 160.121 165.155 160.121V160.119ZM171.904 159.908L185.468 158.679L185.861 164.139L175.876 165.755L171.906 159.91L171.904 159.908Z" fill="black"/>
</g>
<g opacity="0.3">
<path d="M188.298 146.102C188.298 146.102 189.32 149.203 182.821 150.646C176.24 152.108 166.502 154.756 166.502 154.756L171.732 151.034C171.732 151.034 186.777 148.529 187.152 146.231C187.581 143.603 187.152 140.65 187.152 140.65L188.298 146.102Z" fill="black"/>
</g>
<path d="M162.908 160.026C162.908 160.026 162.931 160.016 162.977 160.002C163.028 159.987 163.095 159.967 163.18 159.943C163.366 159.892 163.629 159.818 163.963 159.725C164.648 159.545 165.638 159.288 166.871 159.005C169.335 158.433 172.764 157.748 176.57 157.129C178.476 156.822 180.292 156.539 181.953 156.329C182.781 156.219 183.568 156.114 184.305 156.015C185.041 155.916 185.731 155.819 186.369 155.841C187.003 155.86 187.59 156.015 187.997 156.322C188.41 156.618 188.691 156.961 188.876 157.264C189.062 157.568 189.151 157.833 189.192 158.014C189.234 158.196 189.234 158.295 189.234 158.295C189.214 158.304 189.218 157.885 188.841 157.287C188.655 156.992 188.371 156.656 187.962 156.371C187.559 156.074 186.99 155.928 186.365 155.916C185.737 155.9 185.049 155.999 184.314 156.102C183.577 156.203 182.791 156.31 181.963 156.424C180.306 156.638 178.49 156.923 176.585 157.232C172.778 157.851 169.35 158.524 166.883 159.078C165.65 159.351 164.656 159.597 163.969 159.763C163.631 159.848 163.366 159.915 163.18 159.961C163.093 159.981 163.026 159.998 162.973 160.01C162.927 160.02 162.902 160.024 162.902 160.024L162.908 160.026Z" fill="#263238"/>
<path d="M189.123 152.008C189.123 152.008 189.115 151.968 189.113 151.893C189.111 151.806 189.107 151.697 189.103 151.562C189.095 151.261 189.085 150.848 189.071 150.345C189.04 149.318 188.971 147.901 188.834 146.338C188.694 144.776 188.51 143.369 188.36 142.352C188.285 141.855 188.222 141.448 188.176 141.149C188.155 141.016 188.139 140.908 188.127 140.822C188.117 140.747 188.113 140.706 188.117 140.706C188.121 140.706 188.131 140.745 188.147 140.817C188.165 140.902 188.188 141.01 188.216 141.141C188.273 141.422 188.348 141.832 188.433 142.34C188.603 143.354 188.797 144.763 188.937 146.328C189.075 147.893 189.131 149.314 189.143 150.343C189.149 150.856 189.147 151.273 189.143 151.562C189.139 151.695 189.135 151.806 189.133 151.893C189.129 151.968 189.127 152.008 189.123 152.008Z" fill="#263238"/>
<path d="M184.601 138.04C184.581 138.04 184.577 137.688 184.472 137.128C184.368 136.57 184.168 135.81 183.907 134.981C183.645 134.152 183.376 133.412 183.182 132.879C183.089 132.628 183.012 132.416 182.949 132.246C182.894 132.096 182.868 132.012 182.874 132.01C182.88 132.008 182.92 132.086 182.987 132.23C183.052 132.375 183.145 132.588 183.251 132.853C183.465 133.382 183.745 134.12 184.006 134.951C184.269 135.782 184.459 136.55 184.544 137.116C184.571 137.255 184.577 137.387 184.591 137.5C184.605 137.613 184.609 137.71 184.609 137.791C184.609 137.951 184.609 138.04 184.601 138.04Z" fill="#263238"/>
<path d="M183.373 139.455C183.373 139.455 186.761 138.222 187.194 140.844C187.627 143.465 187.583 146.075 187.014 146.991C186.445 147.909 181.215 149.158 181.215 149.158L172.169 151.143C172.169 151.143 171.519 151.278 171.91 150.543C172.35 149.72 174.745 144.444 176.13 143.162C178.686 140.795 183.373 139.453 183.373 139.453V139.455Z" fill="#F5F5F5"/>
<g opacity="0.3">
<path d="M180.039 149.419C180.039 149.419 180.025 143.239 180.478 142.554C180.932 141.869 186.264 139.404 186.264 139.404C186.264 139.404 185.745 138.964 184.68 139.166C183.615 139.368 181.843 139.849 180.373 140.603C178.901 141.357 176.546 142.437 175.667 143.686C175.285 144.228 174.485 145.525 173.721 146.932C172.729 148.762 171.79 150.719 171.79 150.826C171.79 151.05 171.737 151.254 172.616 151.068C174.653 150.634 180.039 149.423 180.039 149.423V149.419Z" fill="black"/>
</g>
<path d="M177.088 148.861C178.3 148.861 179.283 147.88 179.283 146.669C179.283 145.459 178.3 144.478 177.088 144.478C175.875 144.478 174.893 145.459 174.893 146.669C174.893 147.88 175.875 148.861 177.088 148.861Z" fill="#F5F5F5"/>
<path d="M174.895 146.669C174.895 146.669 174.869 146.473 174.944 146.13C175.019 145.792 175.233 145.291 175.739 144.899C175.991 144.707 176.308 144.543 176.677 144.474C177.044 144.409 177.459 144.418 177.853 144.565C178.052 144.634 178.246 144.737 178.422 144.868C178.601 144.998 178.765 145.157 178.898 145.343C179.176 145.709 179.332 146.182 179.336 146.667C179.332 147.155 179.174 147.626 178.898 147.994C178.765 148.18 178.601 148.339 178.422 148.469C178.246 148.6 178.054 148.703 177.853 148.772C177.457 148.919 177.044 148.929 176.677 148.863C176.308 148.794 175.991 148.63 175.739 148.438C175.233 148.046 175.019 147.545 174.944 147.207C174.869 146.864 174.895 146.667 174.895 146.667C174.909 146.667 174.895 146.864 174.984 147.197C175.069 147.525 175.29 148.008 175.784 148.38C176.029 148.562 176.337 148.715 176.691 148.778C177.044 148.836 177.44 148.824 177.819 148.681C178.009 148.614 178.194 148.515 178.362 148.388C178.532 148.264 178.688 148.111 178.813 147.933C179.077 147.583 179.224 147.132 179.228 146.669C179.224 146.207 179.077 145.756 178.813 145.406C178.686 145.228 178.532 145.074 178.362 144.951C178.194 144.826 178.009 144.725 177.819 144.658C177.44 144.515 177.044 144.502 176.691 144.561C176.337 144.622 176.029 144.777 175.784 144.959C175.29 145.331 175.069 145.812 174.984 146.142C174.897 146.475 174.909 146.673 174.895 146.671V146.669Z" fill="#263238"/>
<path d="M177.089 146.575C176.283 146.575 175.583 147.021 175.22 147.678C175.052 147.373 174.957 147.025 174.957 146.653C174.957 145.477 175.913 144.523 177.091 144.523C178.27 144.523 179.226 145.477 179.226 146.653C179.226 147.025 179.13 147.375 178.962 147.678C178.6 147.019 177.899 146.575 177.093 146.575H177.089Z" fill="#E0E0E0"/>
<path d="M176.145 146.597C176.145 147.119 176.568 147.541 177.09 147.541C177.613 147.541 178.036 147.119 178.036 146.597C178.036 146.076 177.613 145.653 177.09 145.653C176.568 145.653 176.145 146.076 176.145 146.597Z" fill="white"/>
<path d="M176.143 146.597C176.143 146.597 176.137 146.577 176.135 146.536C176.133 146.496 176.135 146.437 176.154 146.362C176.182 146.215 176.273 145.992 176.496 145.819C176.708 145.643 177.073 145.538 177.429 145.667C177.784 145.784 178.093 146.158 178.089 146.599C178.093 147.04 177.784 147.416 177.429 147.531C177.073 147.658 176.708 147.553 176.496 147.379C176.275 147.203 176.184 146.983 176.156 146.835C176.139 146.761 176.135 146.7 176.137 146.662C176.137 146.621 176.141 146.601 176.146 146.601C176.156 146.601 176.154 146.686 176.194 146.827C176.235 146.967 176.33 147.169 176.54 147.323C176.743 147.478 177.075 147.563 177.395 147.444C177.713 147.333 177.986 146.997 177.982 146.603C177.986 146.209 177.713 145.873 177.395 145.762C177.075 145.643 176.743 145.728 176.54 145.881C176.33 146.035 176.235 146.237 176.194 146.377C176.154 146.518 176.156 146.603 176.146 146.603L176.143 146.597Z" fill="#263238"/>
<path d="M176.261 145.115C176.225 145.058 176.369 144.87 176.717 144.741C177.055 144.612 177.612 144.573 178.136 144.85C178.659 145.129 178.938 145.612 179.019 145.964C179.104 146.324 179.029 146.55 178.963 146.55C178.886 146.554 178.823 146.358 178.671 146.1C178.523 145.841 178.266 145.517 177.887 145.315C177.509 145.115 177.096 145.083 176.798 145.105C176.498 145.123 176.3 145.182 176.261 145.115Z" fill="white"/>
<path d="M175.712 145.463C175.593 145.38 175.534 145.257 175.595 145.198C175.655 145.139 175.777 145.2 175.856 145.323C175.935 145.445 175.981 145.556 175.961 145.576C175.941 145.594 175.831 145.546 175.71 145.463H175.712Z" fill="white"/>
<path d="M142.543 139.778C142.543 139.778 142.571 139.774 142.63 139.772C142.693 139.772 142.776 139.768 142.885 139.766C143.114 139.764 143.442 139.76 143.863 139.756C144.718 139.752 145.947 139.744 147.461 139.736C150.505 139.728 154.698 139.718 159.331 139.707C161.65 139.707 163.857 139.705 165.868 139.703C166.872 139.703 167.826 139.703 168.719 139.703C169.164 139.703 169.596 139.703 170.011 139.703C170.428 139.677 170.849 139.8 171.153 140.043C171.73 140.534 172.254 140.981 172.714 141.373C172.943 141.569 173.155 141.749 173.352 141.917C173.552 142.075 173.769 142.172 173.971 142.224C174.176 142.277 174.362 142.285 174.526 142.275C174.688 142.271 174.826 142.267 174.939 142.263C175.047 142.261 175.132 142.259 175.194 142.259C175.251 142.259 175.281 142.259 175.281 142.259C175.281 142.259 175.253 142.263 175.194 142.267C175.132 142.271 175.049 142.275 174.941 142.283C174.828 142.289 174.69 142.295 174.528 142.305C174.366 142.319 174.172 142.315 173.963 142.263C173.755 142.212 173.53 142.115 173.321 141.955C173.123 141.79 172.906 141.61 172.675 141.416C172.214 141.028 171.687 140.587 171.108 140.1C170.815 139.869 170.424 139.756 170.013 139.782C169.598 139.782 169.166 139.784 168.721 139.786C167.828 139.788 166.874 139.792 165.87 139.794C163.861 139.798 161.652 139.802 159.333 139.807C154.7 139.807 150.507 139.807 147.463 139.807C145.949 139.8 144.72 139.796 143.865 139.794C143.444 139.79 143.116 139.788 142.887 139.786C142.78 139.784 142.695 139.782 142.632 139.782C142.575 139.782 142.545 139.778 142.545 139.776L142.543 139.778Z" fill="#263238"/>
<path d="M100.101 168.593C100.21 168.364 100.441 168.2 100.897 168.251C102.162 168.395 115.429 168.69 117.256 168.251C119.084 167.812 125.175 160.911 127.753 160.442C129.915 160.048 140.431 159.838 143.764 159.933C147.099 159.835 157.614 160.048 159.775 160.442C162.352 160.913 168.352 168.488 170.18 168.926C172.009 169.365 185.367 168.395 186.633 168.251C187.09 168.198 187.321 168.362 187.428 168.593C187.653 169.068 187.289 169.616 186.76 169.632C183.936 169.711 173.023 169.836 170.982 169.799C168.84 169.761 146.935 169.361 143.264 169.294C137.729 169.328 118.821 169.45 116.818 169.478C114.457 169.51 103.588 169.711 100.761 169.632C100.235 169.618 99.868 169.07 100.093 168.593H100.101Z" fill="#263238"/>
<path d="M147.488 115.308C147.379 115.308 147.468 117.208 145.931 117.172C144.394 117.136 141.498 117.172 141.498 117.172L140.225 114.797L147.488 115.308Z" fill="#263238"/>
<path d="M146.806 117.833C147.02 117.833 147.221 117.934 147.346 118.108C147.713 118.607 148.446 119.64 148.466 119.963C148.493 120.394 148.25 120.746 147.804 120.8C147.381 120.851 139.273 120.806 138.433 120.8C138.38 120.8 138.33 120.794 138.279 120.78C138.058 120.726 137.483 120.544 137.526 120.151C137.566 119.794 138.19 118.708 138.518 118.158C138.639 117.956 138.856 117.833 139.093 117.833H146.806Z" fill="#263238"/>
<path d="M171.604 114.797C171.604 114.797 171.616 114.811 171.634 114.839C171.655 114.873 171.681 114.916 171.711 114.968C171.782 115.09 171.879 115.257 172.001 115.47C172.254 115.916 172.612 116.549 173.052 117.325C173.935 118.904 175.145 121.073 176.486 123.471C177.569 125.428 178.568 127.231 179.363 128.67L179.353 128.658C180.309 129.41 181.097 130.031 181.651 130.467C181.919 130.681 182.129 130.849 182.281 130.971C182.348 131.025 182.403 131.07 182.443 131.104C182.48 131.134 182.498 131.152 182.496 131.152C182.496 131.152 182.474 131.14 182.435 131.114C182.391 131.082 182.334 131.041 182.265 130.989C182.111 130.871 181.894 130.71 181.621 130.504C181.06 130.073 180.266 129.465 179.298 128.723L179.292 128.717L179.288 128.708C178.487 127.273 177.482 125.472 176.393 123.519C175.064 121.118 173.862 118.943 172.987 117.36C172.558 116.575 172.211 115.937 171.964 115.486C171.849 115.27 171.758 115.098 171.691 114.974C171.663 114.92 171.64 114.875 171.622 114.841C171.608 114.811 171.6 114.795 171.602 114.792L171.604 114.797Z" fill="#263238"/>
<path d="M167.865 113.658C167.869 113.646 168.072 113.685 168.392 113.784C168.71 113.887 169.149 114.057 169.564 114.366C169.977 114.677 170.265 115.051 170.453 115.326C170.639 115.605 170.733 115.789 170.72 115.795C170.706 115.803 170.591 115.633 170.392 115.369C170.192 115.108 169.902 114.75 169.501 114.449C169.098 114.15 168.675 113.972 168.367 113.852C168.058 113.735 167.861 113.673 167.865 113.656V113.658Z" fill="#263238"/>
<g opacity="0.3">
<path d="M179.31 128.706L179.504 128.84C179.583 128.743 174.827 138.695 172.589 141.32L171.117 140.075C174.292 137.007 176.663 132.238 179.31 128.706Z" fill="black"/>
</g>
<path d="M169.874 167.835C169.874 167.835 169.829 167.835 169.757 167.792C169.684 167.752 169.58 167.685 169.453 167.588C169.194 167.396 168.831 167.089 168.374 166.682C167.46 165.868 166.172 164.655 164.627 163.108C164.241 162.722 163.84 162.314 163.427 161.883C163.008 161.459 162.611 160.976 162.115 160.575C161.616 160.177 161.035 159.848 160.395 159.617C159.756 159.385 159.063 159.249 158.346 159.197C157.988 159.17 157.623 159.17 157.253 159.168C156.882 159.164 156.508 159.162 156.129 159.158C155.372 159.152 154.6 159.144 153.813 159.138C152.239 159.124 150.611 159.11 148.943 159.094C142.269 159.027 136.228 158.966 131.851 158.922C129.666 158.895 127.898 158.873 126.671 158.857C126.063 158.847 125.59 158.839 125.264 158.835C125.106 158.831 124.984 158.829 124.897 158.827C124.814 158.825 124.771 158.821 124.771 158.821C124.771 158.821 124.814 158.817 124.897 158.817C124.984 158.817 125.106 158.817 125.264 158.817C125.59 158.817 126.063 158.817 126.671 158.819C127.898 158.827 129.666 158.837 131.851 158.849C136.228 158.885 142.269 158.934 148.943 158.99C150.611 159.007 152.239 159.021 153.813 159.037C154.598 159.045 155.372 159.051 156.129 159.059C156.508 159.063 156.882 159.067 157.253 159.069C157.621 159.073 157.99 159.073 158.352 159.1C159.077 159.156 159.778 159.294 160.428 159.53C161.076 159.765 161.665 160.102 162.169 160.507C162.673 160.917 163.068 161.402 163.483 161.827C163.894 162.257 164.295 162.668 164.68 163.056C166.219 164.606 167.497 165.829 168.402 166.65C168.853 167.06 169.212 167.372 169.467 167.57C169.593 167.669 169.694 167.74 169.765 167.782C169.835 167.826 169.878 167.831 169.876 167.835H169.874Z" fill="#263238"/>
<g opacity="0.3">
<path d="M180.784 155.78C181.409 155.162 182.041 154.539 182.784 154.07C183.527 153.601 184.596 153.051 185.271 153.488C185.613 153.86 185.888 154.29 186.085 154.753C186.152 154.911 186.208 155.097 186.133 155.251C186.038 155.443 185.793 155.491 185.58 155.517C184.031 155.712 182.482 155.906 180.931 156.102C180.842 156.114 180.729 156.114 180.686 156.035C180.64 155.95 180.715 155.849 180.784 155.78Z" fill="white"/>
</g>
<path d="M181.971 168.977C181.971 168.977 181.969 168.987 181.967 168.991C181.867 169.335 182.127 169.717 182.485 169.709L185.85 169.652C186.114 169.646 186.332 169.385 186.365 169.124L186.387 168.939C186.428 168.607 186.12 168.304 185.788 168.328L182.449 168.573C182.226 168.589 182.029 168.761 181.969 168.977H181.971Z" fill="white"/>
<path d="M119.176 167.02C119.176 166.992 130.029 166.967 143.414 166.967C156.798 166.967 167.654 166.992 167.654 167.02C167.654 167.048 156.802 167.072 143.414 167.072C130.025 167.072 119.176 167.048 119.176 167.02Z" fill="#455A64"/>
<path d="M156.969 168.783H158.39L158.491 167.02H156.861L156.969 168.783Z" fill="#455A64"/>
<path d="M143.672 168.783H145.093L145.192 167.02H143.564L143.672 168.783Z" fill="#455A64"/>
<path d="M130.375 168.783H131.796L131.896 167.02H130.268L130.375 168.783Z" fill="#455A64"/>
<path d="M119.928 166.381C122.499 164.17 125.964 160.767 127.746 160.442C129.909 160.048 140.424 159.838 143.757 159.933C147.092 159.835 157.607 160.048 159.768 160.442C161.426 160.745 164.502 163.99 166.97 166.381H119.924H119.928Z" fill="#455A64"/>
<path d="M188.359 165.223C188.359 165.223 188.315 165.196 188.236 165.136C188.151 165.071 188.035 164.982 187.89 164.871C187.582 164.63 187.147 164.291 186.602 163.866L186.628 163.874C184.962 164.087 182.449 164.41 179.64 164.768C178.273 164.938 176.975 165.097 175.819 165.241L175.835 165.235C174.43 165.989 173.242 166.628 172.393 167.083C171.978 167.301 171.646 167.477 171.411 167.6C171.302 167.657 171.215 167.699 171.148 167.733C171.087 167.764 171.057 167.778 171.055 167.776C171.055 167.774 171.083 167.756 171.14 167.721C171.205 167.685 171.29 167.634 171.395 167.574C171.628 167.444 171.956 167.26 172.365 167.032C173.209 166.569 174.392 165.918 175.789 165.152L175.797 165.148H175.807C176.963 165 178.259 164.837 179.628 164.663C182.439 164.319 184.952 164.01 186.62 163.806H186.634L186.644 163.814C187.181 164.248 187.61 164.598 187.914 164.843C188.056 164.96 188.167 165.053 188.25 165.122C188.325 165.186 188.363 165.221 188.361 165.223H188.359Z" fill="#263238"/>
<path d="M171.056 161.364C171.056 161.364 170.368 160.204 171.056 159.911C171.846 159.575 185.032 157.996 185.568 157.948C186.638 157.853 187.026 158.336 187.277 159.589C187.528 160.842 188.081 163.951 187.026 164.855C185.971 165.759 184.313 166.159 181.049 166.359C177.783 166.559 176.066 166.67 174.458 165.767C172.85 164.863 171.058 161.362 171.058 161.362L171.056 161.364Z" fill="#263238"/>
<path d="M171.73 151.034C171.697 151.02 171.819 150.652 172.082 150.003C172.345 149.354 172.748 148.424 173.301 147.298C173.583 146.738 173.89 146.124 174.259 145.481C174.627 144.84 175.034 144.159 175.549 143.488C175.808 143.158 176.11 142.815 176.45 142.53C176.79 142.239 177.169 141.976 177.565 141.743C177.962 141.511 178.367 141.301 178.778 141.08C179.189 140.862 179.609 140.642 180.042 140.429C180.905 140.005 181.777 139.633 182.654 139.362C183.091 139.227 183.531 139.117 183.962 139.03C184.391 138.942 184.837 138.879 185.282 138.899C185.726 138.921 186.181 139.045 186.544 139.316C186.904 139.588 187.129 139.97 187.265 140.334C187.404 140.7 187.477 141.058 187.542 141.398C187.605 141.731 187.666 142.053 187.724 142.358C187.967 143.583 188.15 144.579 188.251 145.273C188.352 145.966 188.374 146.354 188.34 146.36C188.303 146.366 188.212 145.99 188.048 145.311C187.884 144.626 187.649 143.646 187.36 142.437C187.287 142.133 187.216 141.808 187.143 141.479C187.068 141.151 186.989 140.813 186.858 140.496C186.73 140.179 186.54 139.888 186.268 139.689C185.995 139.493 185.639 139.398 185.26 139.384C184.877 139.372 184.476 139.431 184.061 139.524C183.646 139.611 183.227 139.722 182.806 139.853C181.964 140.12 181.119 140.484 180.271 140.9C179.846 141.109 179.43 141.325 179.021 141.541C178.612 141.759 178.203 141.968 177.825 142.188C177.444 142.406 177.094 142.645 176.772 142.914C176.446 143.181 176.185 143.474 175.927 143.789C175.425 144.42 175.01 145.081 174.631 145.703C174.253 146.326 173.927 146.924 173.627 147.47C173.038 148.566 172.584 149.467 172.264 150.088C171.946 150.709 171.76 151.05 171.726 151.034H171.73Z" fill="#263238"/>
<path d="M183.63 144.408C182.603 144.408 181.71 144.976 181.248 145.815C181.034 145.427 180.912 144.982 180.912 144.509C180.912 143.011 182.129 141.796 183.63 141.796C185.13 141.796 186.347 143.011 186.347 144.509C186.347 144.982 186.225 145.427 186.011 145.815C185.549 144.976 184.656 144.408 183.63 144.408Z" fill="#E0E0E0"/>
<path d="M182.455 144.42C182.455 145.065 182.98 145.588 183.625 145.588C184.271 145.588 184.796 145.065 184.796 144.42C184.796 143.775 184.271 143.251 183.625 143.251C182.98 143.251 182.455 143.775 182.455 144.42Z" fill="white"/>
<path d="M182.456 144.42C182.456 144.42 182.45 144.394 182.45 144.345C182.45 144.296 182.454 144.222 182.474 144.131C182.512 143.949 182.624 143.676 182.897 143.462C183.16 143.247 183.606 143.12 184.043 143.278C184.258 143.352 184.464 143.498 184.612 143.7C184.764 143.9 184.849 144.157 184.851 144.422C184.849 144.687 184.764 144.943 184.612 145.143C184.464 145.346 184.258 145.491 184.043 145.566C183.606 145.724 183.16 145.596 182.897 145.382C182.624 145.168 182.512 144.895 182.474 144.713C182.454 144.62 182.448 144.547 182.45 144.499C182.45 144.45 182.454 144.424 182.456 144.424C182.466 144.424 182.464 144.529 182.512 144.705C182.561 144.879 182.68 145.129 182.942 145.323C183.195 145.517 183.61 145.627 184.011 145.477C184.408 145.34 184.752 144.917 184.746 144.424C184.75 143.931 184.408 143.508 184.011 143.371C183.61 143.221 183.195 143.328 182.942 143.524C182.68 143.718 182.561 143.971 182.512 144.143C182.464 144.319 182.466 144.424 182.456 144.424V144.42Z" fill="#263238"/>
<path d="M180.912 144.509C180.912 144.509 180.908 144.45 180.912 144.335C180.912 144.278 180.914 144.207 180.928 144.125C180.938 144.042 180.948 143.947 180.979 143.842C181.072 143.425 181.339 142.807 181.965 142.323C182.275 142.087 182.668 141.885 183.121 141.802C183.573 141.721 184.085 141.733 184.573 141.915C184.818 142 185.057 142.127 185.274 142.289C185.494 142.449 185.695 142.645 185.861 142.875C186.203 143.326 186.395 143.91 186.401 144.509C186.397 145.109 186.203 145.691 185.861 146.142C185.695 146.37 185.494 146.569 185.274 146.728C185.055 146.89 184.818 147.017 184.573 147.102C184.085 147.286 183.573 147.296 183.121 147.215C182.666 147.133 182.273 146.93 181.965 146.694C181.339 146.211 181.074 145.592 180.979 145.176C180.948 145.071 180.938 144.976 180.928 144.893C180.914 144.81 180.912 144.739 180.912 144.682C180.91 144.569 180.912 144.509 180.912 144.509C180.928 144.509 180.912 144.751 181.017 145.166C181.123 145.572 181.394 146.172 182.007 146.635C182.311 146.862 182.694 147.054 183.135 147.131C183.573 147.205 184.067 147.191 184.539 147.011C184.775 146.928 185.004 146.805 185.213 146.647C185.425 146.494 185.618 146.302 185.776 146.081C186.104 145.645 186.288 145.085 186.294 144.509C186.288 143.933 186.104 143.373 185.776 142.936C185.618 142.716 185.425 142.524 185.213 142.37C185.002 142.212 184.775 142.089 184.539 142.006C184.069 141.826 183.575 141.812 183.135 141.887C182.694 141.964 182.311 142.156 182.007 142.382C181.394 142.845 181.121 143.443 181.017 143.852C180.912 144.266 180.928 144.511 180.912 144.509Z" fill="#263238"/>
<path d="M182.604 142.584C182.568 142.529 182.754 142.311 183.177 142.163C183.59 142.016 184.264 141.977 184.894 142.311C185.522 142.649 185.868 143.227 185.976 143.651C186.089 144.086 186.012 144.361 185.947 144.361C185.868 144.365 185.807 144.118 185.629 143.787C185.455 143.455 185.133 143.035 184.649 142.776C184.163 142.519 183.635 142.487 183.262 142.527C182.886 142.564 182.647 142.653 182.606 142.584H182.604Z" fill="white"/>
<path d="M181.922 143.015C181.803 142.932 181.75 142.801 181.821 142.732C181.892 142.663 182.024 142.72 182.103 142.841C182.181 142.962 182.218 143.08 182.19 143.11C182.159 143.138 182.044 143.098 181.924 143.015H181.922Z" fill="white"/>
<path d="M166.502 154.755C166.466 154.614 170.042 153.591 174.488 152.469C178.935 151.347 182.57 150.553 182.604 150.694C182.64 150.836 179.064 151.859 174.616 152.981C170.169 154.103 166.536 154.897 166.5 154.755H166.502Z" fill="#263238"/>
<path d="M187.919 139.91C187.919 139.91 187.913 139.89 187.905 139.849C187.897 139.809 187.885 139.748 187.865 139.671C187.822 139.518 187.751 139.289 187.599 139.024C187.448 138.764 187.202 138.468 186.832 138.25C186.741 138.193 186.636 138.153 186.532 138.105C186.421 138.072 186.312 138.026 186.192 138.003C186.073 137.983 185.949 137.949 185.822 137.947C185.694 137.939 185.56 137.943 185.427 137.955C184.884 138.001 184.299 138.139 183.677 138.309C183.056 138.479 182.401 138.689 181.717 138.925C180.352 139.404 178.862 139.978 177.347 140.682C177.159 140.771 176.973 140.862 176.793 140.959C176.612 141.054 176.45 141.173 176.29 141.298C175.974 141.549 175.689 141.83 175.444 142.133C174.982 142.762 174.559 143.403 174.154 143.999C173.346 145.2 172.65 146.304 172.081 147.24C171.514 148.178 171.074 148.946 170.775 149.479C170.627 149.742 170.511 149.948 170.428 150.094C170.39 150.161 170.359 150.211 170.337 150.254C170.317 150.29 170.305 150.306 170.303 150.306C170.303 150.306 170.309 150.286 170.327 150.25C170.347 150.207 170.376 150.153 170.41 150.086C170.483 149.942 170.592 149.73 170.738 149.461C171.028 148.922 171.457 148.145 172.016 147.201C172.577 146.259 173.267 145.151 174.073 143.947C174.48 143.344 174.893 142.714 175.363 142.071C175.612 141.759 175.904 141.474 176.224 141.218C176.386 141.092 176.554 140.967 176.74 140.868C176.924 140.769 177.11 140.678 177.301 140.587C178.821 139.881 180.314 139.311 181.685 138.834C182.371 138.6 183.029 138.392 183.655 138.224C184.279 138.058 184.87 137.925 185.421 137.88C185.558 137.868 185.694 137.866 185.828 137.876C185.961 137.88 186.085 137.917 186.208 137.939C186.332 137.963 186.443 138.012 186.557 138.046C186.662 138.098 186.769 138.141 186.862 138.2C187.241 138.43 187.488 138.735 187.636 139.004C187.784 139.277 187.85 139.509 187.885 139.667C187.903 139.746 187.911 139.807 187.915 139.849C187.919 139.89 187.919 139.912 187.917 139.912L187.919 139.91Z" fill="#263238"/>
<g opacity="0.3">
<path d="M188.764 141.054C188.964 141.12 190.064 141.804 190.529 142.065C190.995 142.325 191.402 142.736 191.538 143.251C191.671 143.765 191.524 144.306 191.378 144.816C190.898 146.484 190.341 149.481 189.861 151.147C189.487 148.123 189.078 142.972 188.764 141.052" fill="white"/>
</g>
<path d="M173.684 165.045C173.68 165.017 176.804 164.56 180.663 164.028C184.523 163.494 187.653 163.086 187.657 163.114C187.661 163.143 184.537 163.6 180.678 164.131C176.82 164.665 173.688 165.073 173.684 165.045Z" fill="#455A64"/>
<path d="M174.682 165.809C174.682 165.809 174.726 165.795 174.811 165.781C174.906 165.765 175.03 165.744 175.184 165.72C175.508 165.67 175.978 165.601 176.559 165.52C177.721 165.358 179.327 165.158 181.105 164.948C182.874 164.738 184.478 164.546 185.653 164.406C186.226 164.337 186.693 164.281 187.031 164.24C187.185 164.224 187.311 164.21 187.406 164.2C187.491 164.192 187.538 164.19 187.538 164.192C187.538 164.196 187.493 164.206 187.408 164.22C187.313 164.236 187.189 164.257 187.036 164.281C186.712 164.331 186.242 164.4 185.661 164.481C184.498 164.643 182.893 164.843 181.115 165.053C179.345 165.263 177.743 165.455 176.567 165.595C175.994 165.664 175.526 165.72 175.188 165.761C175.034 165.777 174.908 165.791 174.813 165.801C174.728 165.809 174.682 165.811 174.682 165.809Z" fill="#455A64"/>
<path d="M176.87 166.381C176.86 166.381 176.993 166.361 177.222 166.333C177.469 166.3 177.799 166.26 178.2 166.209C179.042 166.108 180.176 165.973 181.43 165.821C182.683 165.68 183.819 165.552 184.661 165.455C185.062 165.415 185.394 165.381 185.642 165.356C185.872 165.336 186.002 165.326 186.002 165.334C186.002 165.342 185.876 165.364 185.646 165.397C185.399 165.431 185.068 165.476 184.67 165.53C183.843 165.637 182.703 165.779 181.442 165.926C180.18 166.074 179.038 166.199 178.21 166.284C177.384 166.367 176.862 166.41 176.872 166.383L176.87 166.381Z" fill="#455A64"/>
<path d="M172.955 164.176C172.951 164.148 176.24 163.691 180.299 163.159C184.361 162.625 187.656 162.217 187.658 162.245C187.662 162.274 184.374 162.73 180.312 163.262C176.252 163.796 172.957 164.204 172.953 164.176H172.955Z" fill="#455A64"/>
<path d="M172.383 163.367C172.379 163.339 175.785 162.868 179.986 162.316C184.19 161.764 187.602 161.339 187.606 161.368C187.61 161.396 184.206 161.867 180 162.419C175.797 162.971 172.387 163.395 172.383 163.365V163.367Z" fill="#455A64"/>
<path d="M171.74 162.413C171.736 162.385 175.237 161.902 179.558 161.334C183.882 160.765 187.389 160.329 187.391 160.359C187.395 160.387 183.894 160.871 179.571 161.439C175.249 162.007 171.742 162.443 171.738 162.413H171.74Z" fill="#455A64"/>
<path d="M171.248 161.439C171.244 161.41 174.808 160.919 179.206 160.341C183.606 159.763 187.174 159.318 187.178 159.348C187.182 159.377 183.62 159.868 179.22 160.446C174.822 161.024 171.252 161.469 171.248 161.439Z" fill="#455A64"/>
<path d="M170.752 160.464C170.748 160.436 174.34 159.941 178.775 159.358C183.209 158.776 186.807 158.327 186.811 158.356C186.815 158.384 183.223 158.879 178.789 159.462C174.354 160.044 170.756 160.492 170.752 160.464Z" fill="#455A64"/>
<path d="M182.365 158.24C182.393 158.234 182.788 159.975 183.248 162.128C183.707 164.281 184.056 166.031 184.027 166.037C183.999 166.043 183.604 164.303 183.144 162.15C182.685 159.997 182.337 158.247 182.365 158.24Z" fill="#455A64"/>
<path d="M183.691 158.02C183.719 158.014 184.114 159.755 184.574 161.908C185.034 164.061 185.382 165.811 185.353 165.817C185.325 165.823 184.93 164.083 184.471 161.93C184.011 159.777 183.663 158.026 183.691 158.02Z" fill="#455A64"/>
<path d="M185.015 157.8C185.044 157.794 185.418 159.441 185.854 161.477C186.289 163.515 186.617 165.17 186.589 165.176C186.56 165.182 186.186 163.537 185.75 161.499C185.317 159.464 184.987 157.806 185.015 157.8Z" fill="#455A64"/>
<path d="M186.453 158.101C186.453 158.101 186.483 158.176 186.52 158.315C186.556 158.455 186.605 158.657 186.66 158.909C186.773 159.413 186.911 160.11 187.046 160.885C187.184 161.645 187.308 162.332 187.403 162.864C187.445 163.1 187.482 163.3 187.51 163.464C187.534 163.605 187.543 163.686 187.536 163.686C187.528 163.686 187.506 163.612 187.47 163.472C187.433 163.333 187.385 163.13 187.33 162.878C187.216 162.374 187.079 161.677 186.943 160.901C186.805 160.141 186.682 159.453 186.587 158.922C186.544 158.685 186.508 158.485 186.479 158.321C186.455 158.18 186.447 158.099 186.453 158.099V158.101Z" fill="#455A64"/>
<path d="M180.834 158.515C180.862 158.509 181.245 160.189 181.688 162.267C182.132 164.345 182.468 166.035 182.439 166.041C182.411 166.048 182.028 164.368 181.585 162.29C181.141 160.211 180.805 158.521 180.834 158.515Z" fill="#455A64"/>
<path d="M179.308 158.823C179.337 158.817 179.719 160.501 180.165 162.585C180.608 164.669 180.946 166.363 180.918 166.369C180.89 166.375 180.507 164.691 180.062 162.607C179.618 160.525 179.28 158.831 179.308 158.825V158.823Z" fill="#455A64"/>
<path d="M177.736 158.906C177.764 158.9 178.145 160.569 178.584 162.633C179.026 164.699 179.358 166.377 179.33 166.383C179.301 166.389 178.921 164.722 178.481 162.656C178.042 160.592 177.708 158.912 177.736 158.906Z" fill="#455A64"/>
<path d="M176.191 159.108C176.219 159.102 176.598 160.761 177.036 162.815C177.473 164.869 177.805 166.539 177.777 166.545C177.748 166.551 177.37 164.891 176.932 162.837C176.495 160.784 176.163 159.114 176.191 159.108Z" fill="#455A64"/>
<path d="M174.664 159.409C174.692 159.403 175.047 160.955 175.458 162.876C175.867 164.796 176.177 166.359 176.148 166.365C176.12 166.371 175.765 164.818 175.354 162.898C174.945 160.978 174.636 159.415 174.664 159.409Z" fill="#455A64"/>
<path d="M173.102 159.538C173.13 159.532 173.464 160.984 173.847 162.779C174.229 164.574 174.517 166.035 174.489 166.042C174.46 166.048 174.126 164.598 173.743 162.801C173.361 161.006 173.073 159.546 173.102 159.54V159.538Z" fill="#455A64"/>
<path d="M171.566 159.789C171.594 159.783 171.801 160.638 172.027 161.697C172.254 162.756 172.414 163.622 172.386 163.628C172.357 163.634 172.151 162.779 171.924 161.719C171.697 160.66 171.537 159.795 171.566 159.789Z" fill="#455A64"/>
<path d="M121.09 165.583C121.09 165.554 131.152 165.53 143.562 165.53C155.973 165.53 166.036 165.554 166.036 165.583C166.036 165.611 155.977 165.635 143.562 165.635C131.147 165.635 121.09 165.611 121.09 165.583Z" fill="#263238"/>
<path d="M121.973 164.568C121.973 164.54 131.603 164.515 143.477 164.515C155.351 164.515 164.983 164.54 164.983 164.568C164.983 164.596 155.355 164.62 143.477 164.62C131.599 164.62 121.973 164.596 121.973 164.568Z" fill="#263238"/>
<path d="M123.312 163.529C123.312 163.501 132.42 163.476 143.653 163.476C154.885 163.476 163.995 163.501 163.995 163.529C163.995 163.557 154.889 163.581 143.653 163.581C132.416 163.581 123.312 163.557 123.312 163.529Z" fill="#263238"/>
<path d="M124.203 162.49C124.203 162.462 132.878 162.437 143.577 162.437C154.277 162.437 162.954 162.462 162.954 162.49C162.954 162.518 154.281 162.542 143.577 162.542C132.874 162.542 124.203 162.518 124.203 162.49Z" fill="#263238"/>
<path d="M125.689 161.499C125.689 161.471 133.732 161.447 143.652 161.447C153.572 161.447 161.617 161.471 161.617 161.499C161.617 161.527 153.576 161.552 143.652 161.552C133.728 161.552 125.689 161.527 125.689 161.499Z" fill="#263238"/>
<path d="M127.377 160.511C127.377 160.483 134.644 160.458 143.604 160.458C152.565 160.458 159.834 160.483 159.834 160.511C159.834 160.539 152.569 160.563 143.604 160.563C134.64 160.563 127.377 160.539 127.377 160.511Z" fill="#263238"/>
<path d="M143.258 117.012H142.707V118.001H143.258V117.012Z" fill="#263238"/>
<g opacity="0.3">
<path d="M112.23 135.546C112.23 135.546 113.223 135.208 113.028 134.466C113.028 134.466 115.906 136.148 119.822 136.089C123.736 136.031 138.08 136.906 138.08 136.906L139.724 139.172C139.724 139.172 115.436 138.61 114.535 139.196L112.23 135.546Z" fill="white"/>
</g>
<g opacity="0.3">
<path d="M103.118 137.348C102.917 137.348 109.308 139.542 110.136 140.231L111.44 139.946L106.878 132.394L106.354 132.272C106.354 132.272 104.786 137.357 103.116 137.348H103.118Z" fill="white"/>
</g>
<g opacity="0.3">
<path d="M118.484 114.396C118.606 114.396 143.502 113.333 143.461 113.008C143.421 112.682 132.361 112.722 127.503 113.008C122.648 113.293 118.484 114.396 118.484 114.396Z" fill="white"/>
</g>
<g opacity="0.2">
<path d="M108.062 128.204L128.301 123.216L132.116 114.874L115.747 115.553C115.48 115.563 115.374 115.644 115.241 115.874L108.062 128.204Z" fill="white"/>
</g>
<path d="M83.1313 104.903H78.5957V182.009H83.1313V104.903Z" fill="url(#paint1_linear_4002_4836)"/>
<path opacity="0.05" d="M81.6212 106.415H80.1094V182.009H81.6212V106.415Z" fill="white"/>
<path d="M86.464 181.869H75.2664C75.1559 181.869 75.0664 181.959 75.0664 182.069V184.832C75.0664 184.943 75.1559 185.032 75.2664 185.032H86.464C86.5745 185.032 86.664 184.943 86.664 184.832V182.069C86.664 181.959 86.5745 181.869 86.464 181.869Z" fill="url(#paint2_linear_4002_4836)"/>
<path opacity="0.05" d="M81.3922 181.869H80.3379V185.032H81.3922V181.869Z" fill="white"/>
<path d="M96.826 66H64.1743C61.8689 66 60 67.8645 60 70.1644V102.739C60 105.039 61.8689 106.903 64.1743 106.903H96.826C99.1314 106.903 101 105.039 101 102.739V70.1644C101 67.8645 99.1314 66 96.826 66Z" fill="url(#paint3_linear_4002_4836)"/>
<path d="M91.4069 82.3141C91.4069 87.3178 87.3713 91.3439 82.1675 91.3439H78.2081V99.6213H72.1738V73.2842H82.1675C87.3722 73.2842 91.4069 77.3103 91.4069 82.3141ZM85.3727 82.3141C85.3727 80.3953 84.0146 78.9279 82.1675 78.9279H78.2081V85.7003H82.1675C84.0156 85.7003 85.3727 84.2328 85.3727 82.3141Z" fill="white"/>
<path d="M96.8258 104.713H64.1741C63.0832 104.713 62.1953 103.828 62.1953 102.739V70.1659C62.1953 69.0777 63.0832 68.1919 64.1741 68.1919H96.8258C97.9167 68.1919 98.8046 69.0777 98.8046 70.1659V102.739C98.8046 103.828 97.9167 104.713 96.8258 104.713ZM64.1741 68.9641C63.5099 68.9641 62.9704 69.5033 62.9704 70.165V102.738C62.9704 103.401 63.5108 103.939 64.1741 103.939H96.8258C97.489 103.939 98.0295 103.4 98.0295 102.738V70.165C98.0295 69.5023 97.489 68.9641 96.8258 68.9641H64.1741Z" fill="white"/>
<mask id="mask0_4002_4836" style="mask-type:alpha" maskUnits="userSpaceOnUse" x="60" y="66" width="41" height="41">
<path d="M96.826 66H64.1743C61.8689 66 60 67.8645 60 70.1644V102.739C60 105.039 61.8689 106.903 64.1743 106.903H96.826C99.1314 106.903 101 105.039 101 102.739V70.1644C101 67.8645 99.1314 66 96.826 66Z" fill="url(#paint4_linear_4002_4836)"/>
</mask>
<g mask="url(#mask0_4002_4836)">
<path opacity="0.1" d="M71.3378 105.017C86.0261 105.017 97.9333 93.1376 97.9333 78.4841C97.9333 63.8307 86.0261 51.9517 71.3378 51.9517C56.6494 51.9517 44.7422 63.8307 44.7422 78.4841C44.7422 93.1376 56.6494 105.017 71.3378 105.017Z" fill="white"/>
</g>
<path d="M67.6904 71.119L67.3368 70.7654L66.9833 71.119L65.0512 73.051L64.6977 73.4046L65.0512 73.7581L94.0058 102.713L94.3594 103.066L94.7129 102.713L96.645 100.781L96.9985 100.427L96.645 100.074L67.6904 71.119Z" fill="white" stroke="url(#paint5_linear_4002_4836)"/>
<path d="M91.9408 395V359.85H96.6908L98.7408 366.65V395H91.9408ZM116.241 395L95.3908 368L96.6908 359.85L117.541 386.85L116.241 395ZM116.241 395L114.291 388.4V359.85H121.141V395H116.241ZM144.719 395.55C142.152 395.55 139.752 395.083 137.519 394.15C135.319 393.217 133.386 391.933 131.719 390.3C130.086 388.633 128.802 386.7 127.869 384.5C126.936 382.267 126.469 379.883 126.469 377.35C126.469 374.817 126.919 372.467 127.819 370.3C128.752 368.1 130.036 366.183 131.669 364.55C133.336 362.883 135.269 361.6 137.469 360.7C139.669 359.767 142.052 359.3 144.619 359.3C147.219 359.3 149.619 359.767 151.819 360.7C154.019 361.6 155.936 362.883 157.569 364.55C159.236 366.183 160.536 368.1 161.469 370.3C162.402 372.5 162.869 374.867 162.869 377.4C162.869 379.933 162.402 382.3 161.469 384.5C160.536 386.7 159.236 388.633 157.569 390.3C155.936 391.933 154.019 393.217 151.819 394.15C149.652 395.083 147.286 395.55 144.719 395.55ZM144.619 389.2C146.886 389.2 148.852 388.7 150.519 387.7C152.186 386.7 153.486 385.317 154.419 383.55C155.386 381.783 155.869 379.717 155.869 377.35C155.869 375.617 155.602 374.033 155.069 372.6C154.536 371.167 153.769 369.933 152.769 368.9C151.769 367.833 150.586 367.017 149.219 366.45C147.852 365.883 146.319 365.6 144.619 365.6C142.419 365.6 140.469 366.1 138.769 367.1C137.102 368.067 135.786 369.433 134.819 371.2C133.886 372.967 133.419 375.017 133.419 377.35C133.419 379.117 133.686 380.733 134.219 382.2C134.786 383.667 135.552 384.917 136.519 385.95C137.519 386.983 138.702 387.783 140.069 388.35C141.469 388.917 142.986 389.2 144.619 389.2Z" fill="white"/>
<circle cx="70.5" cy="422.5" r="3.5" fill="white"/>
<circle cx="66" cy="353" r="6" fill="white"/>
<circle cx="187" cy="412" r="6" fill="white"/>
<circle cx="126" cy="325" r="4" fill="white"/>
<defs>
<linearGradient id="paint0_linear_4002_4836" x1="126" y1="0" x2="126" y2="252" gradientUnits="userSpaceOnUse">
<stop stop-color="#EEEEEE"/>
<stop offset="1" stop-color="#FAFAFA"/>
</linearGradient>
<linearGradient id="paint1_linear_4002_4836" x1="78.5957" y1="143.457" x2="83.1325" y2="143.457" gradientUnits="userSpaceOnUse">
<stop stop-color="#3C3C3B"/>
<stop offset="1" stop-color="#1D1D1B"/>
</linearGradient>
<linearGradient id="paint2_linear_4002_4836" x1="75.0664" y1="183.45" x2="86.664" y2="183.45" gradientUnits="userSpaceOnUse">
<stop stop-color="#3C3C3B"/>
<stop offset="1" stop-color="#1D1D1B"/>
</linearGradient>
<linearGradient id="paint3_linear_4002_4836" x1="61.0126" y1="67.0102" x2="100.564" y2="106.655" gradientUnits="userSpaceOnUse">
<stop stop-color="#FD8182"/>
<stop offset="1" stop-color="#E82C2F"/>
</linearGradient>
<linearGradient id="paint4_linear_4002_4836" x1="61.0126" y1="67.0102" x2="100.564" y2="106.655" gradientUnits="userSpaceOnUse">
<stop stop-color="#03ACFB"/>
<stop offset="1" stop-color="#0269FB"/>
</linearGradient>
<linearGradient id="paint5_linear_4002_4836" x1="65.7632" y1="71.7006" x2="95.3282" y2="101.39" gradientUnits="userSpaceOnUse">
<stop stop-color="#FB8586"/>
<stop offset="0.66749" stop-color="#F15E60"/>
<stop offset="0.823256" stop-color="#F05557"/>
<stop offset="0.857687" stop-color="#EE4244"/>
<stop offset="1" stop-color="#EB393B"/>
</linearGradient>
</defs>
</svg>
