<svg width="13" height="18" viewBox="0 0 13 18" fill="none" xmlns="http://www.w3.org/2000/svg">
<path d="M11.2493 6.33317H10.4577V4.74984C10.4577 2.56484 8.68435 0.791504 6.49935 0.791504C4.31435 0.791504 2.54102 2.56484 2.54102 4.74984V6.33317H1.74935C0.878516 6.33317 0.166016 7.04567 0.166016 7.9165V15.8332C0.166016 16.704 0.878516 17.4165 1.74935 17.4165H11.2493C12.1202 17.4165 12.8327 16.704 12.8327 15.8332V7.9165C12.8327 7.04567 12.1202 6.33317 11.2493 6.33317ZM4.12435 4.74984C4.12435 3.43567 5.18518 2.37484 6.49935 2.37484C7.81352 2.37484 8.87435 3.43567 8.87435 4.74984V6.33317H4.12435V4.74984ZM11.2493 15.8332H1.74935V7.9165H11.2493V15.8332ZM6.49935 13.4582C7.37018 13.4582 8.08268 12.7457 8.08268 11.8748C8.08268 11.004 7.37018 10.2915 6.49935 10.2915C5.62852 10.2915 4.91602 11.004 4.91602 11.8748C4.91602 12.7457 5.62852 13.4582 6.49935 13.4582Z" fill="#191D31"/>
</svg>
