<svg width="19" height="19" viewBox="0 0 19 19" fill="none" xmlns="http://www.w3.org/2000/svg">
<path d="M0.59375 15.6504L1.90475 17.7158" stroke="#191D31" stroke-width="1.5" stroke-linecap="round" stroke-linejoin="round"/>
<path d="M7.84375 6.44971L12.8265 14.2999" stroke="#191D31" stroke-width="1.5" stroke-linecap="round" stroke-linejoin="round"/>
<path d="M2.47918 10.1333L2.83384 9.2031L2.00576 7.03077C1.94631 6.87408 1.94215 6.70178 1.99398 6.54241C2.04581 6.38303 2.15051 6.24614 2.29076 6.15439L4.23668 4.88377L4.84389 2.64019C4.88775 2.47839 4.98564 2.33646 5.12129 2.23796C5.25694 2.13946 5.4222 2.09032 5.58964 2.09869L7.9108 2.21664L9.72055 0.75602C9.85117 0.650698 10.0139 0.593262 10.1817 0.593262C10.3495 0.593262 10.5122 0.650698 10.6428 0.75602L12.4526 2.21664L14.7738 2.10106C14.9412 2.09269 15.1065 2.14183 15.2421 2.24033C15.3778 2.33883 15.4756 2.48076 15.5195 2.64256L16.1267 4.88614L18.0726 6.15677C18.213 6.24841 18.3178 6.3853 18.3696 6.54471C18.4215 6.70412 18.4172 6.87647 18.3576 7.03314L17.5303 9.20548L18.3576 11.377C18.4173 11.5338 18.4216 11.7063 18.3697 11.8658C18.3179 12.0254 18.2131 12.1624 18.0726 12.2542L16.1267 13.5209L15.5163 15.7652C15.4728 15.9272 15.375 16.0694 15.2393 16.1681C15.1036 16.2668 14.9382 16.316 14.7706 16.3075L12.4494 16.1919L10.6397 17.6494M4.00234 16.5648L4.69584 17.6304C4.81051 17.8184 4.96239 17.9809 5.14216 18.1081C5.32194 18.2353 5.5258 18.3244 5.74125 18.3699C5.95669 18.4154 6.17916 18.4164 6.39501 18.3728C6.61085 18.3292 6.81552 18.242 6.99643 18.1165C7.36628 17.8503 7.62041 17.4528 7.7068 17.0054C7.79319 16.558 7.7053 16.0945 7.46114 15.7098L7.33209 15.523M12.5642 13.8866L1.64239 17.3034L0.855469 16.0637L8.10555 6.86294L12.5642 13.8866Z" stroke="#191D31" stroke-width="1.5" stroke-linecap="round" stroke-linejoin="round"/>
</svg>
