<svg width="19" height="20" viewBox="0 0 19 20" fill="none" xmlns="http://www.w3.org/2000/svg">
<path d="M12.4688 1.6875C11.6343 1.68731 10.8114 1.88259 10.066 2.25768C9.32059 2.63278 8.67341 3.17727 8.17633 3.84751C7.67925 4.51776 7.34607 5.29512 7.20351 6.11731C7.06095 6.9395 7.11296 7.78366 7.35537 8.58213L1.1875 14.75V18.3125H4.75L10.9179 12.1446C11.6529 12.3677 12.4273 12.4298 13.1885 12.3265C13.9496 12.2232 14.6796 11.957 15.3285 11.5462C15.9775 11.1353 16.5303 10.5893 16.9492 9.94544C17.3681 9.30159 17.6432 8.575 17.7559 7.8152C17.8686 7.05539 17.8162 6.28022 17.6022 5.54251C17.3882 4.8048 17.0177 4.12189 16.5159 3.54033C16.0141 2.95877 15.3928 2.49222 14.6944 2.17248C13.996 1.85274 13.2369 1.68732 12.4688 1.6875ZM12.4688 11.1875C12.06 11.1874 11.6534 11.127 11.2622 11.0082L10.5812 10.8016L10.0783 11.3045L8.18959 13.1932L7.37081 12.375L6.53125 13.2146L7.35003 14.0333L6.40834 14.975L5.58956 14.1562L4.75 14.9958L5.56878 15.8146L4.25837 17.125H2.375V15.2416L8.19494 9.42169L8.69844 8.91878L8.49181 8.23775C8.23803 7.40115 8.25452 6.50583 8.53893 5.67914C8.82334 4.85245 9.36118 4.1365 10.076 3.63312C10.7907 3.12973 11.646 2.86456 12.5202 2.87531C13.3944 2.88607 14.2429 3.17221 14.9451 3.69302C15.6473 4.21384 16.1674 4.94281 16.4313 5.77624C16.6953 6.60968 16.6898 7.50513 16.4155 8.33523C16.1412 9.16534 15.6121 9.88781 14.9036 10.3999C14.195 10.912 13.343 11.1876 12.4688 11.1875Z" fill="#191D31"/>
<path d="M13.0625 7.625C13.7183 7.625 14.25 7.09334 14.25 6.4375C14.25 5.78166 13.7183 5.25 13.0625 5.25C12.4067 5.25 11.875 5.78166 11.875 6.4375C11.875 7.09334 12.4067 7.625 13.0625 7.625Z" fill="#191D31"/>
</svg>
