<svg width="15" height="16" viewBox="0 0 15 16" fill="none" xmlns="http://www.w3.org/2000/svg">
<path d="M7.5 15.125C5.67917 15.125 4.09253 14.5214 2.7401 13.3141C1.38767 12.1068 0.6125 10.5993 0.414583 8.79167H2.0375C2.22222 10.1639 2.83247 11.2986 3.86823 12.1958C4.90399 13.0931 6.11458 13.5417 7.5 13.5417C9.04375 13.5417 10.3533 13.004 11.4286 11.9286C12.504 10.8533 13.0417 9.54375 13.0417 8C13.0417 6.45625 12.504 5.1467 11.4286 4.07135C10.3533 2.99601 9.04375 2.45833 7.5 2.45833C6.58958 2.45833 5.73854 2.66944 4.94688 3.09167C4.15521 3.51389 3.48889 4.09444 2.94792 4.83333H5.125V6.41667H0.375V1.66667H1.95833V3.52708C2.63125 2.68264 3.4526 2.02951 4.4224 1.56771C5.39219 1.1059 6.41806 0.875 7.5 0.875C8.48958 0.875 9.41649 1.06302 10.2807 1.43906C11.145 1.8151 11.897 2.32309 12.537 2.96302C13.1769 3.60295 13.6849 4.35503 14.0609 5.21927C14.437 6.08351 14.625 7.01042 14.625 8C14.625 8.98958 14.437 9.91649 14.0609 10.7807C13.6849 11.645 13.1769 12.397 12.537 13.037C11.897 13.6769 11.145 14.1849 10.2807 14.5609C9.41649 14.937 8.48958 15.125 7.5 15.125ZM9.71667 11.325L6.70833 8.31667V4.04167H8.29167V7.68333L10.825 10.2167L9.71667 11.325Z" fill="#191D31"/>
</svg>
