<svg width="56" height="56" viewBox="0 0 56 56" fill="none" xmlns="http://www.w3.org/2000/svg">
<rect width="56" height="56" rx="28" fill="white"/>
<path d="M14 41C13.9237 41 13.8467 40.9913 13.7705 40.9738C13.3192 40.8663 13 40.4638 13 40C13 30.913 14.1495 23.3555 28 23.0118V16C28 15.6025 28.2352 15.2433 28.5987 15.084C28.961 14.9258 29.3857 14.9943 29.6787 15.2658L42.6787 27.2658C42.8837 27.454 43 27.7208 43 28C43 28.2793 42.8837 28.546 42.6787 28.7345L29.6787 40.7345C29.3867 41.006 28.962 41.0763 28.5987 40.9163C28.2352 40.7568 28 40.3975 28 40V33.0118C18.499 33.2393 16.746 36.7443 14.8945 40.4473C14.7228 40.792 14.372 41 14 41ZM29 31C29.5527 31 30 31.4473 30 32V37.7158L40.5255 28L30 18.2843V24C30 24.5528 29.5527 25 29 25C17.953 25 15.5742 29.2725 15.1065 36.0968C17.1777 33.3145 20.708 31 29 31Z" fill="url(#paint0_linear_3026_5501)"/>
<defs>
<linearGradient id="paint0_linear_3026_5501" x1="50.156" y1="47.9344" x2="11.7522" y2="46.4087" gradientUnits="userSpaceOnUse">
<stop stop-color="#24C5FA"/>
<stop offset="1" stop-color="#2774F2"/>
</linearGradient>
</defs>
</svg>
