<svg width="32" height="32" viewBox="0 0 32 32" fill="none" xmlns="http://www.w3.org/2000/svg">
<g clip-path="url(#clip0_2180_4722)">
<circle cx="16" cy="16" r="16" fill="white"/>
<path d="M16.1765 27H16.1699C12.7688 26.9778 10.154 25.8956 8.39718 23.7825C6.83327 21.9024 6.0271 19.2864 6 16.008V15.992C6.0271 12.7128 6.83327 10.0975 8.39718 8.21745C10.1532 6.10445 12.7688 5.02219 16.1691 5H16.1823C18.7896 5.01664 20.9709 5.6639 22.6661 6.92208C24.2596 8.10498 25.381 9.79092 26 11.934L24.0625 12.4554C23.0142 8.82594 20.3609 6.97042 16.1756 6.9411C13.4123 6.96012 11.323 7.79836 9.9643 9.43205C8.69184 10.9619 8.03424 13.1716 8.01042 15.9992C8.03506 18.8277 8.69261 21.0373 9.9643 22.5665C11.323 24.2001 13.4123 25.0383 16.1756 25.0573C18.6664 25.0399 20.3149 24.4798 21.6859 23.1836C23.2506 21.7044 23.2219 19.8901 22.7211 18.7865C22.4264 18.136 21.8911 17.5941 21.1695 17.1837C20.9881 18.4212 20.58 19.4258 19.9496 20.1825C19.1089 21.1926 17.9169 21.7449 16.408 21.8233C15.266 21.8827 14.1659 21.6221 13.3121 21.0888C12.3024 20.4582 11.7113 19.4931 11.648 18.3713C11.5864 17.2804 12.0347 16.2773 12.9098 15.5468C13.7464 14.8488 14.9228 14.4392 16.3127 14.364C17.3372 14.3085 18.2953 14.3521 19.1811 14.4947C19.0637 13.8142 18.8257 13.2746 18.471 12.8848C17.9833 12.3484 17.2289 12.0743 16.2298 12.068H16.2019C15.3998 12.068 14.3104 12.2803 13.6158 13.2769L11.9468 12.1939C12.8762 10.8605 14.3859 10.1269 16.201 10.1269H16.242C19.2771 10.1451 21.0841 11.9364 21.2639 15.0651C21.3672 15.1072 21.4683 15.1506 21.5684 15.1959C22.9846 15.8384 24.0198 16.8114 24.5633 18.0093C25.3202 19.6794 25.39 22.4009 23.0921 24.5717C21.3369 26.2306 19.2057 26.9794 16.1821 26.9992H16.1756L16.1764 27H16.1765ZM17.1289 16.2828C16.899 16.2828 16.6658 16.2892 16.4277 16.3026C14.6832 16.3977 13.5963 17.1686 13.6579 18.2667C13.7227 19.4171 15.0379 19.9518 16.3013 19.8861C17.4646 19.8258 18.9785 19.3893 19.2321 16.4848C18.5901 16.3526 17.8842 16.2828 17.1289 16.2828V16.2828Z" fill="#25AFF8"/>
</g>
<defs>
<clipPath id="clip0_2180_4722">
<rect width="32" height="32" fill="white"/>
</clipPath>
</defs>
</svg>
