<svg width="80" height="80" viewBox="0 0 80 80" fill="none" xmlns="http://www.w3.org/2000/svg">
<path d="M40.0033 6.66602C21.6366 6.66602 6.66992 21.6327 6.66992 39.9994C6.66992 58.366 21.6366 73.3327 40.0033 73.3327C58.3699 73.3327 73.3366 58.366 73.3366 39.9994C73.3366 21.6327 58.3699 6.66602 40.0033 6.66602ZM55.9366 32.3327L37.0366 51.2327C36.5699 51.6994 35.9366 51.966 35.2699 51.966C34.6033 51.966 33.9699 51.6994 33.5033 51.2327L24.0699 41.7994C23.1033 40.8327 23.1033 39.2327 24.0699 38.266C25.0366 37.2993 26.6366 37.2993 27.6033 38.266L35.2699 45.9327L52.4033 28.7994C53.3699 27.8327 54.9699 27.8327 55.9366 28.7994C56.9033 29.766 56.9033 31.3327 55.9366 32.3327Z" fill="#41B540"/>
</svg>
