<svg width="28" height="28" viewBox="0 0 28 28" fill="none" xmlns="http://www.w3.org/2000/svg">
<path d="M14 9.33333C12.7167 9.33333 11.6181 9.79028 10.7042 10.7042C9.79028 11.6181 9.33333 12.7167 9.33333 14C9.33333 14.98 9.61178 15.8655 10.1687 16.6565C10.7263 17.4475 11.4613 18.0172 12.3737 18.3657C12.5199 18.4318 12.6303 18.5407 12.705 18.6923C12.7781 18.844 12.7843 18.9933 12.7237 19.1403C12.6622 19.278 12.5662 19.3849 12.4355 19.4612C12.3048 19.5374 12.1711 19.5448 12.0342 19.4833C10.8691 19.0649 9.93339 18.3567 9.22717 17.3588C8.52094 16.3609 8.16744 15.2413 8.16667 14C8.16667 12.3846 8.73522 11.0087 9.87233 9.87233C11.0094 8.736 12.3853 8.16744 14 8.16667C15.2312 8.16667 16.3504 8.52017 17.3577 9.22717C18.3649 9.93339 19.0758 10.8663 19.4903 12.026C19.5471 12.1637 19.5347 12.3013 19.453 12.439C19.3713 12.5767 19.2617 12.6739 19.124 12.7307C18.963 12.7913 18.809 12.7836 18.662 12.7073C18.5158 12.6311 18.4096 12.5125 18.3435 12.3515C17.9951 11.4392 17.4253 10.7081 16.6343 10.1582C15.8433 9.60828 14.9652 9.33333 14 9.33333ZM14 4.66667C11.3944 4.66667 9.1875 5.57083 7.37917 7.37917C5.57083 9.1875 4.66667 11.3944 4.66667 14C4.66667 16.5993 5.54089 18.7888 7.28933 20.5683C9.03778 22.3494 11.1946 23.2668 13.7597 23.3205C13.9261 23.3291 14.0673 23.3924 14.1832 23.5107C14.2991 23.6289 14.3547 23.7708 14.35 23.9365C14.3453 24.1022 14.2874 24.2437 14.1762 24.3612C14.0649 24.4786 13.9261 24.5346 13.7597 24.5292C12.3029 24.5066 10.9519 24.2021 9.70667 23.6157C8.46222 23.0292 7.37878 22.2549 6.45633 21.2928C5.53389 20.3307 4.81056 19.2201 4.28633 17.9608C3.76211 16.7016 3.5 15.3813 3.5 14C3.5 12.5502 3.77611 11.1868 4.32833 9.90967C4.88133 8.63256 5.63072 7.5215 6.5765 6.5765C7.5215 5.62994 8.63256 4.88056 9.90967 4.32833C11.1868 3.77611 12.5502 3.5 14 3.5C16.7689 3.5 19.1998 4.47689 21.2928 6.43067C23.3858 8.38444 24.4646 10.8201 24.5292 13.7375C24.5385 13.8993 24.4872 14.0393 24.3752 14.1575C24.2639 14.2773 24.1255 14.3395 23.9598 14.3442C23.7942 14.3488 23.6472 14.2905 23.5188 14.1692C23.3905 14.0478 23.3221 13.9039 23.3135 13.7375C23.2458 11.2844 22.3047 9.15911 20.4902 7.36167C18.6748 5.565 16.5114 4.66667 14 4.66667ZM22.449 23.6483L17.4557 18.6375L16.849 20.4843C16.7673 20.7114 16.6126 20.8242 16.3847 20.8227C16.1576 20.8196 16.0106 20.7044 15.9437 20.4773L14.2532 14.8482C14.2057 14.6646 14.2469 14.5075 14.3768 14.3768C14.5075 14.2469 14.6646 14.2057 14.8482 14.2532L20.4773 15.9437C20.7044 16.0106 20.8192 16.1576 20.8215 16.3847C20.8238 16.6118 20.7111 16.7666 20.4832 16.849L18.6375 17.4557L23.6542 22.449C23.8206 22.6154 23.9038 22.8153 23.9038 23.0487C23.9038 23.282 23.8206 23.4815 23.6542 23.6472C23.4877 23.8128 23.2871 23.8961 23.0522 23.8968C22.8173 23.8976 22.6162 23.8144 22.449 23.6472" fill="white"/>
</svg>
