<?xml version="1.0" encoding="utf-8"?>
<!-- Generator: Adobe Illustrator 25.4.1, SVG Export Plug-In . SVG Version: 6.00 Build 0)  -->
<svg version="1.1" id="Layer_1" xmlns="http://www.w3.org/2000/svg" xmlns:xlink="http://www.w3.org/1999/xlink" x="0px" y="0px"
	 viewBox="0 0 428 495" style="enable-background:new 0 0 428 495;" xml:space="preserve">
<style type="text/css">
	.st0{fill:#FFFFFF;}
	.st1{clip-path:url(#SVGID_00000085938218006735187570000011947064447794972584_);}
	.st2{fill-rule:evenodd;clip-rule:evenodd;fill:#FFFFFF;}
	.st3{fill:#D5EAD9;stroke:url(#SVGID_00000142868325957131869270000013121147002487772570_);stroke-width:18;}
	.st4{fill:#263238;}
	.st5{opacity:0.3;}
	.st6{fill:#4CD964;}
	.st7{fill:#455A64;}
	.st8{opacity:0.5;}
	.st9{fill:#F5F5F5;}
	.st10{fill:#E0E0E0;}
	.st11{opacity:0.2;}
	.st12{fill:url(#SVGID_00000070810172638485218170000009606424822032669081_);}
	.st13{opacity:5.000000e-02;fill:#FFFFFF;enable-background:new    ;}
	.st14{fill:url(#SVGID_00000112592609796999338090000011574883431015915152_);}
	.st15{fill:url(#SVGID_00000087392804877999654510000011810132388007976633_);}
	.st16{fill:url(#SVGID_00000039117228140534917900000015292790370591673786_);filter:url(#Adobe_OpacityMaskFilter);}
	.st17{mask:url(#mask0_4001_4834_00000123418832108540180020000016618412344552670849_);}
	.st18{opacity:0.1;fill:#FFFFFF;enable-background:new    ;}
</style>
<path class="st0" d="M182.8,448.1l-13.6-21.6h7.9l10.6,17.3h-4.5l10.6-17.3h7.8l-13.8,21.6H182.8z M181.9,461.7v-17.2h6.8v17.2
	H181.9z M204.6,461.7v-35.1h6.8v35.1H204.6z M209.6,461.7v-6h19.5v6H209.6z M209.6,446.6v-5.8h17.7v5.8H209.6z M209.6,432.5v-6h19.2
	v6H209.6z M244,462.2c-2.8,0-5.3-0.5-7.3-1.4c-2-1-3.8-2.4-5.4-4.4l4.5-4.5c1,1.4,2.2,2.4,3.6,3.2c1.4,0.7,3,1.1,5,1.1
	c1.8,0,3.2-0.4,4.2-1c1.1-0.7,1.6-1.7,1.6-2.9c0-1.1-0.3-1.9-0.9-2.6c-0.6-0.7-1.4-1.2-2.4-1.7c-1-0.5-2-0.9-3.2-1.2
	c-1.2-0.4-2.3-0.9-3.5-1.4c-1.2-0.5-2.2-1.1-3.2-1.8c-1-0.8-1.8-1.7-2.4-2.9c-0.6-1.2-0.9-2.7-0.9-4.5c0-2.1,0.5-3.9,1.5-5.4
	c1-1.5,2.5-2.6,4.2-3.5c1.8-0.8,3.8-1.2,6.1-1.2c2.4,0,4.6,0.4,6.5,1.3c1.9,0.9,3.5,2.1,4.7,3.5l-4.5,4.5c-1-1.1-2.1-2-3.2-2.5
	c-1.1-0.5-2.3-0.8-3.7-0.8c-1.6,0-2.8,0.3-3.7,0.9c-0.9,0.6-1.3,1.5-1.3,2.6c0,1,0.3,1.8,0.9,2.4s1.4,1.1,2.4,1.5
	c1,0.4,2.1,0.9,3.2,1.2c1.2,0.4,2.4,0.9,3.5,1.4c1.2,0.5,2.3,1.1,3.2,2c1,0.8,1.8,1.8,2.4,3.1c0.6,1.2,0.9,2.8,0.9,4.6
	c0,3.3-1.1,5.8-3.4,7.7C251.2,461.2,248,462.2,244,462.2z"/>
<g>
	<defs>
		<rect id="SVGID_1_" x="-1" y="0" width="429" height="416"/>
	</defs>
	<clipPath id="SVGID_00000139261998661171966430000002998697716491333045_">
		<use xlink:href="#SVGID_1_"  style="overflow:visible;"/>
	</clipPath>
	<g style="clip-path:url(#SVGID_00000139261998661171966430000002998697716491333045_);">
		<path class="st0" d="M109.5,230.4c0.7-1.6,0.6-3.9,0.9-5.7c0.2-1.2,0.5-2.3,1.2-3.2c0.3-0.4,0.7-0.7,1.1-0.9c0,0,0,0,0,0
			c0.5-0.1,1,0,1.6,0.2c-0.8,1.1-1,2.8-1.2,4.1c-0.2,1.2-0.3,2.5-0.8,3.6c-0.2,0.6-0.6,1-1,1.4C110.7,230.2,110.1,230.4,109.5,230.4
			L109.5,230.4z M83.8,251.6c2.1-3.3,1.6-9.6,2.4-15.1c0.4-2.7,1-5.4,2.2-7.2c0.6-0.9,1.4-1.5,2.3-1.9c0.2-0.1,0.4-0.1,0.6-0.2
			c-0.2,0.1-0.4,0.1-0.6,0.2c0.6-0.1,1.2-0.1,1.8-0.1c-2.5,2.1-3.4,7.1-3.8,11.5c-0.3,3.1-0.5,6.2-1.2,8.6c-0.4,1.4-1.1,2.5-2,3.3
			C85,251.1,84.4,251.4,83.8,251.6L83.8,251.6z"/>
		<path class="st2" d="M108.3,232.1c-2.1,1.1-5.6-0.5-8.1-1.8c-3.3-1.6-6.6-3.4-9.4-2.8c1.9-0.7,3.7-1.7,5.8-1.3
			c1.8,0.3,3.8,1.2,5.6,2.1c2.7,1.3,6.4,3.1,9.1,1.8C110.3,230.7,109.3,231.5,108.3,232.1L108.3,232.1z"/>
		<path class="st2" d="M82.5,252.9c-5.6,4.4-18.9-5.4-27.2-12.3c1.1-0.4,2.2-0.8,3.3-1.2c8.2,6.6,21.5,16.1,26.9,11.3
			C84.6,251.6,83.5,252.2,82.5,252.9L82.5,252.9z"/>
		<path class="st0" d="M345.8,241.9c0.2-1.1,1.1-1.8,1.9-2.5c1-0.9,2-1.8,2.9-2.8c0.9-0.9,1.7-2,2.4-3.1c0.3-0.5,0.5-1,0.6-1.6
			c0-0.1,0-0.1,0-0.2c0,0,0-0.5,0-1.1c0.2,0.6,0.4,1.4,0.6,2.2c0.4,2.4-1.6,4.5-3,6.1c-0.8,0.9-1.8,1.7-2.7,2.6
			c-0.3,0.3-0.7,0.6-1,0.9c-0.1,0.1-0.2,0.2-0.3,0.3c-0.1,0.1-0.2,0.3-0.3,0.4c-0.3-0.2-0.5-0.3-0.7-0.5c0,0,0,0,0,0
			c-0.1-0.2-0.3-0.4-0.3-0.7C345.8,242,345.8,242,345.8,241.9L345.8,241.9z"/>
		<path class="st0" d="M345.8,242.1c0.1,0.3,0.2,0.5,0.3,0.7c0.3,0.4,0.7,0.5,0.7,0.5c0.9,0.5,2.3,0.7,3.1,1c1,0.3,2,0.5,3,0.7
			c2,0.5,4.5,1,5.9,2.6c0.2,0.2,0.3,0.5,0.4,0.7c0.1,0.9-0.3,1.1-0.3,1.2c-0.7-0.6-1.7-1-2.6-1.3c-2-0.7-4.2-1.1-6.2-1.7
			c-1-0.3-3.2-0.6-3.7-1.7C346.2,244.1,345.7,242.9,345.8,242.1z"/>
		<path class="st0" d="M343.1,217.8c0.1,0.2,0.4,0.7,0.4,0.8c0.1,0.3,0.3,0.6,0.4,0.9c0.7,1.3,1.6,2.4,2.5,3.5
			c1.7,1.9,3.6,3.6,5.5,5.4c0.8,0.8,1.3,1.5,1.6,2.4c0,0.6,0,1.1,0,1.1c-1.2-1.6-3-2.9-4.5-4.3c-1.9-1.8-3.8-3.9-4.9-6.3
			C343.7,220.2,343.3,219,343.1,217.8L343.1,217.8z"/>
		<path class="st0" d="M349.2,259.6C349.2,259.6,349.2,259.6,349.2,259.6c0-0.1,0.1-0.4,0.3-0.7c0.5-0.6,1.2-1,1.2-1
			c1-0.1,1.9-0.4,2.3-0.4c1.5-0.2,4.1-0.9,5.2,0.4c0.2,0.2,0.3,0.5,0.4,0.8c0,0.1-0.1,0.9-0.4,1.1c0,0,0,0,0,0
			c-0.3-0.1-0.5-0.2-0.8-0.2c-2-0.3-4.1,0.3-6,0.6c-0.6,0.1-1.4,0.2-2,0c-0.1,0-0.2-0.2-0.3-0.3
			C349.2,259.8,349.2,259.7,349.2,259.6L349.2,259.6z"/>
		<path class="st0" d="M353.4,265.2c1.2-1.6,2.8-2.9,4.2-4.3c0.3-0.3,0.6-0.7,0.8-1.1c0,0,0,0,0,0c0.1-0.1,0.2-0.3,0.2-0.5
			c0-0.1,0-0.1,0.1-0.2c0,0,0-0.1,0-0.1c0-0.1,0.1-0.3,0.1-0.4c0.2,0.5,0.2,1.1,0.3,1.6c0.2,0.7,0.2,1.2-0.1,1.9
			c-0.8,1.6-2.5,2.8-3.7,4.1c-0.7,0.7-1.3,1.4-1.8,2.2c-0.2,0.4-0.4,0.7-0.6,1.1c-0.1,0.2-0.1,0.4-0.1,0.6c0,0.2,0,0.3,0,0.4
			c0,0,0,0,0,0c0,0.2,0,0.5,0.1,0.8c-0.2-0.4-0.3-0.8-0.4-1.3C352,268.2,352.1,266.9,353.4,265.2L353.4,265.2z"/>
		<path class="st0" d="M348.8,258c0-0.1-0.1-0.5,0-0.4c0-1.6,2.1-2.6,3.3-3.3c2.1-1.4,4.5-2.5,6.3-4.2c0.2-0.2,0.4-0.4,0.5-0.7
			c0,0,0,0,0-0.1c0,0,0-0.1,0.1-0.1c0.1-0.1,0.2-0.8,0.2-1c0.2,0.5,0.3,1.2,0.4,1.7c0.2,0.8,0.2,1.4-0.3,2.1
			c-0.5,0.7-1.4,1.2-2.1,1.7c-1.1,0.8-2.3,1.4-3.4,2.2c-1,0.7-2.1,1.3-3.1,2.1c0,0-0.7,0.4-1.2,1c-0.2,0.3-0.3,0.5-0.3,0.7
			c0,0,0,0,0,0c0,0.1,0,0.1,0,0.2C348.9,259.3,348.9,258.3,348.8,258L348.8,258z"/>
		<path class="st0" d="M358.4,259.8c0,0,0.1-0.2,0.2-0.5C358.5,259.4,358.4,259.6,358.4,259.8L358.4,259.8z"/>
		<path class="st0" d="M155,331.9c0-0.1,0-0.2-0.1-0.4c0.1,0.3,0.2,0.7,0.3,1C155.2,332.6,155.1,332.3,155,331.9z"/>
		<path class="st0" d="M181,344.6L181,344.6L181,344.6L181,344.6z"/>
		<path class="st0" d="M181.4,344.9c0.2,0.2,0.5,0.7,0.7,1.4c-0.4,2.5-2.8,3.3-5.1,4c-1.7,0.5-3.4,0.8-5.1,1.3
			c-0.7,0.2-1.4,0.6-2.1,1c-0.3,0.2-0.6,0.4-0.8,0.7c0,0,0,0,0,0c-0.2-0.2-0.4-0.6-0.6-1.1c-0.1-0.2-0.2-0.5-0.2-0.7
			c0,0,0,0.1,0,0.1c0-0.1,0-0.1-0.1-0.2c0.1-0.6,0.3-1.2,0.7-1.7c1.7-2.4,6.2-2.7,8.9-3.4c1.2-0.3,2.3-0.8,3.3-1.5h0
			C181.1,344.6,181.3,344.8,181.4,344.9L181.4,344.9z"/>
		<path class="st0" d="M154.8,330.9c0.1,0.4,0.1,0.8,0.2,1.1c0.1,0.4,0.2,0.6,0.2,0.6c0.1,0.2,0.1,0.4,0.2,0.5
			c0.3,0.8,0.9,1.4,1.4,2c3.3,3.4,9.1,4.1,13.6,4.5c3.2,0.3,7-0.5,10,0.7c2.1,0.9,1.7,3.4,1.7,5.2c0,0.2,0,0.4-0.1,0.7
			c-0.3-0.7-0.5-1.1-0.7-1.4c-0.2-0.3-0.4-0.3-0.4-0.3c-1.1-0.9-2.6-0.8-3.9-0.8c-1.7,0-3.4,0-5-0.1c-4.6-0.2-9.6-0.9-13.6-3.4
			C155.2,338.2,154.2,334.4,154.8,330.9L154.8,330.9z"/>
		<path class="st0" d="M161.3,322.5c-0.3,0.1,0.5,3.7,0,3.9c-2.7,0.9-4.7,3.2-5.9,5.7c-0.1,0.2-0.1,0.3-0.2,0.5
			c-0.1-0.3-0.2-0.6-0.3-1c0,0.1,0,0.2,0.1,0.4c-0.1-0.3-0.2-0.7-0.2-1.1C155.4,327.1,157.8,323.6,161.3,322.5L161.3,322.5z"/>
		<path class="st0" d="M181.4,344.9c-0.1-0.1-0.3-0.2-0.4-0.3C181,344.6,181.1,344.6,181.4,344.9z"/>
		<path class="st0" d="M291.2,167.6c1.2-5.3-1.8-10.2-1.7-15.5c0.1-3.4,2-6.3,4-8.9c4-5.4,9.8-10.3,12.2-16.7
			c0.3-0.8,0.5-1.7,0.5-2.5c0,0,0.1,0.1,0.3,0.4c0.2,0.5,0.3,0.6,0.3,0.4c0.1,0.2,0.2,0.4,0.3,0.6c0.2,1.1,0.3,2.3,0,3.4
			c-0.8,3-3,5.6-4.9,8c-3.3,4.2-7.2,8.2-9.9,12.9c-1.6,2.9-1.9,5.9-1.3,9.1c0.7,4,2.3,7.6,1.4,11.7
			C292.4,169.8,290.9,168.5,291.2,167.6L291.2,167.6z"/>
		<path class="st0" d="M289.4,99.6c-0.3-0.1-0.6-0.2-0.8-0.4c-1.4-0.6-3-0.8-4.5-0.9c-3.1-0.2-6.3,0.3-9.3,0.7c-0.3,0-1-3-1.1-3
			c4.8-0.7,9.9-1.5,14.5,0.4c1,0.4,1.5,1.1,1.8,1.9C289.8,98.8,289.5,99.5,289.4,99.6L289.4,99.6z"/>
		<path class="st0" d="M279.4,115.3c-0.2-0.4-0.3-0.8-0.3-1.3c-0.4-2.4,0.6-4.2,2.2-6.3c1.3-1.6,2.8-3,4.4-4.3
			c1.3-1.2,2.8-2.3,3.7-3.8c0.1-0.1,0.4-0.9,0.5-1.2c0.2,0.4,0.3,0.9,0.5,1.3c0.6,1.6,0.5,2.4-0.6,3.8c-2,2.5-4.9,4.3-7,6.8
			c-1,1.2-2,2.5-2.5,4c-0.1,0.3-0.2,0.6-0.2,0.9v0.3c0,0,0,0,0,0c0,0.2,0.1,0.9,0.1,1.5C279.8,116.5,279.6,115.8,279.4,115.3
			L279.4,115.3z"/>
		<path class="st0" d="M280,115.4c0.3,0.3,0.7,0.5,1.2,0.7c1.7,0.7,3.9,0.4,5.7,0.3c2.6-0.1,5.2-0.2,7.8,0.2
			c3.9,0.5,9.3,1.8,11.2,5.7c0.5,1.1,0.9,2.1,1.2,3.2c-0.1-0.2-0.2-0.4-0.3-0.6c0,0.1-0.1,0-0.3-0.4c-0.2-0.3-0.3-0.4-0.3-0.4
			c-0.3-0.3-0.5-0.6-0.8-0.8c-1-1-2.3-1.6-3.6-2.1c-4.6-1.9-9.8-1.9-14.7-1.6c-1.8,0.1-3.9,0.2-5.5-0.7c-0.6-0.3-1.1-1-1.4-1.7
			C280,116.3,280,115.4,280,115.4L280,115.4z"/>
		<path class="st0" d="M235.3,248.2c0.5-0.1,1.1-0.1,1.7,0.1c0.1,0,0.1,0,0.1,0v0c-0.5,0.3-1,0.8-1.4,1.2c-1.7,1.8-2.9,4-4.4,5.9
			c0.8-1.9,3.7-4.8,3.7-7.2C235.2,248.2,235.2,248.2,235.3,248.2L235.3,248.2z"/>
		<path class="st0" d="M251.9,269.4c0.3-0.1,0.6-0.2,0.9-0.4c0,0,0.1-0.1,0.1-0.1c0.2,0.1,0.4,0.2,0.6,0.3
			C253.2,269.3,252.6,269.3,251.9,269.4L251.9,269.4z"/>
		<path class="st0" d="M254.2,267.5C254.2,267.5,254.2,267.5,254.2,267.5c-0.4,0.6-0.8,1.1-1.3,1.5c0,0-0.1-0.1-0.1-0.1
			C253.6,268.3,254.1,267.7,254.2,267.5z"/>
		<path class="st0" d="M254.3,269.3c-0.9,0.1-1.7,0.3-2.6,0.2C251.8,269.5,252.9,269.5,254.3,269.3z"/>
		<path class="st0" d="M253.5,269.2C255.1,269.1,254.2,269.4,253.5,269.2z"/>
		<path class="st0" d="M254.3,267.4c0,0,0,0.1-0.1,0.1C254.3,267.5,254.3,267.4,254.3,267.4z"/>
		<path class="st0" d="M254.1,258c0.2,0.1,0.4,0.2,0.6,0.3c0,0,0,0,0,0c0,0,0.1,0.1,0.1,0.1c0,0,0,0.1-0.1,0.1
			c-0.4,0.6-0.5,1.5-0.6,2.1c-0.3,2.1-0.1,4.3,0.1,6.5c0,0.1,0,0.2,0,0.3c0,0-0.1,0.1-0.1,0.1c-0.2,0.2-0.6,0.8-1.5,1.4
			c-0.4-0.2-0.7-0.6-1.1-0.9c-0.1-0.1-0.1-0.1-0.2-0.2c0-0.1,0-0.1,0-0.2c-0.3-2.6-0.6-5.3,0.1-7.9c0.3-1.1,1-1.6,1.9-1.9
			c0.1,0,0.2,0,0.2-0.1C253.8,257.8,253.9,257.9,254.1,258L254.1,258z"/>
		<path class="st0" d="M234.8,247c0.2,0.4,0.3,0.8,0.3,1.3c0,2.5-2.9,5.3-3.7,7.2c-0.5,0-1,0.1-1.6,0.1c-0.4,0-0.8,0.1-1.2,0.1
			c1.1-2.6,3.8-4.8,3.6-7.9c0-0.7-0.5-1.2-0.9-1.6c-0.1-0.1-0.2-0.2-0.3-0.2c0,0-1-0.2-2-0.1c0,0,0.1,0,0.1,0
			C230.8,245.1,233.8,245,234.8,247L234.8,247z"/>
		<path class="st0" d="M230.9,246c-1,0.6-1.9,1.5-2.7,2.3c-2.1,2.2-3.8,4.8-6.2,6.7c-2.7,2.2-7,1.9-10.3,2.1c-2,0.1-0.1-0.1,0.7-0.1
			c2.3-0.2,4.6-0.2,6.6-1.6c1.3-0.9,2.3-2.2,3.3-3.3c1.9-2.1,3.8-5.1,6.5-6.2C229.9,245.8,230.9,246,230.9,246L230.9,246z"/>
		<path class="st0" d="M251.7,269.5c0.8,0,1.7-0.1,2.6-0.2c0.1,0,0.1,0,0.2,0c0.2,1.6,0.3,3.1,0.6,4.7c0.6,3.3,2.2,6.3,5.1,8.3
			c1.6,1.1,3.4,1.8,5.2,2.3c0.5,0.1,1.1,0.2,1.7,0.2c-0.9-0.1,0.7-0.3,0.8-0.3c1-0.3,2-0.5,3.1-0.6c0.6-0.1,1.3-0.1,1.9-0.2
			c0.1,0,1,0,0.5,0c-2.1,0.2-4,1-6.1,1.2c-1.8,0.1-3.5,0.1-5.2-0.3c-4.3-1-7.7-4-9.1-8.1C252.1,274.3,251.9,271.9,251.7,269.5
			L251.7,269.5z"/>
		<path class="st0" d="M254.5,269.3c-0.1,0-0.1,0-0.2,0C254.4,269.3,254.4,269.3,254.5,269.3L254.5,269.3z"/>
		<path class="st0" d="M241.3,248.8c1.9,1.3,3,3.6,4,5.5c1.2,2.5,2.2,5.1,3.2,7.6c0.8,2,1.7,4.1,3.1,5.8c0,0.1,0.1,0.1,0.2,0.2
			c0.3,0.4,0.8,0.7,1.2,1c-0.3,0.2-0.8,0.3-1.2,0.6c-0.9-0.1-1.7-0.3-2.4-0.9c-1.8-1.5-2.7-4.1-3.6-6.2c-1.2-2.8-2.2-5.7-3.6-8.5
			c-1-2.1-2.3-4.3-4.5-5.4c-0.2-0.1-0.4-0.1-0.5-0.2c0,0-0.8-0.2-1.6-0.2C237.6,247.9,239.6,247.6,241.3,248.8L241.3,248.8z"/>
		<path class="st0" d="M255.4,257.6c0.3,0,0.6,0,0.9,0c2.7,0.1,2.5,4,2.2,5.8c-0.4,2.2-1.6,5.3-4,5.8c-0.1,0-0.1,0-0.2,0
			c-1.5,0.2-2.5,0.2-2.6,0.2c0.7-0.3,2.1-1.5,2.5-2c0,0,0,0,0,0c0.1-0.1,0.1-0.1,0.1-0.1c1.4-2.2,2.1-5.4,1.3-7.9
			c-0.2-0.4-0.4-0.8-0.7-1.1c0,0-1.1-0.6-1.1-0.6C254.3,257.7,254.8,257.6,255.4,257.6L255.4,257.6z"/>
		<path class="st0" d="M315.3,322.9c0.2,0.5,0.7,1.1,0.7,1.1c-0.4-0.5-0.2-0.3,0.3,0.6c2.2,3.2,5.9,4.8,8.9,7.1
			c1.4,1.1,2.2,2.4,2.8,3.9c0,0,0,0.1,0,0.1c0,0,0,0.1,0,0.2c0,0.2,0.1,0.4,0.1,0.5c-0.2-0.3-0.4-0.6-0.7-0.9
			c-1.2-1.5-2.9-2.4-4.4-3.3c-1.8-1.1-3.4-2.5-4.9-3.9C316.8,327,315.6,324.9,315.3,322.9L315.3,322.9z"/>
		<path class="st0" d="M319.2,349.3c3-2.5,6.1-5.2,7.9-8.8c0.5-1,0.8-2.1,1-3.1c0-0.3,0-0.6,0-1c0-0.2,0-0.4-0.1-0.5
			c0-0.2,0-0.2,0-0.2c0,0,0-0.1,0-0.1c0,0.1,0.1,0.1,0.1,0.2c0.1,0.2,0.2,0.6,0.3,0.9c0.1,0.4,0.2,0.7,0.3,1.1
			c1.6,5.6-5,11-8.7,14.1C320.3,351.7,319,349.6,319.2,349.3L319.2,349.3z"/>
		<path class="st0" d="M327.6,325.7l-0.4,0c-1.5-1.6-4.2-2.4-6.1-2.6c-1.2-0.1-2.3,0.1-3.4,0.6c-0.7-0.5-1.4-1-2.1-1.5
			c2.2-3.7,10.1-1.1,11.6,2.3C327.3,324.7,327.6,325.7,327.6,325.7L327.6,325.7z"/>
		<path class="st0" d="M306.6,313.3c0.3,0.5,0.5,0.8,0.5,0.8c0,0,0,0.1,0.1,0.1c0,0,0.1,0.1,0.1,0.1c1.1,1.7,2.7,3.1,4.2,4.4
			c1.3,1.2,2.8,2.3,4.2,3.4c0.7,0.5,1.4,1,2.1,1.5c0.1,0.1,0.3,0.2,0.4,0.3c1.9,1.2,4,2.5,6.3,2.9c0.7,0.1,1.4,0.1,2-0.2
			c0.3-0.1,0.5-0.4,0.6-0.6c0.1-0.1,0.1-0.2,0.2-0.4c0,0,0.1-0.8,0-1.1c0,0.1,0.1,0.1,0.1,0.2c0.5,1.4,1.7,3.6-0.1,4.5
			c-1.5,0.8-3.8-0.4-5.2-1.1c-1.9-0.9-3.8-2.1-5.5-3.4c-0.5-0.4-1-0.7-1.4-1.1c-0.6-0.5-1.2-1-1.8-1.5c-2-1.7-4.2-3.5-5.5-5.8
			C307.3,315.4,306.8,314.3,306.6,313.3L306.6,313.3z"/>
		<path class="st0" d="M194.4,154.7c0-0.8-0.1-1.5-0.2-2.2c-0.4-2.5-1.3-4.5-2.3-6.1c-0.3-0.5,1-3.8,0.7-4.2c1.3,2.4,2.5,5.2,2.5,9
			c0,0.6-0.1,1.3-0.2,2.1c-0.2,0.8-0.5,1.6-0.6,2C194.3,155.1,194.3,154.9,194.4,154.7L194.4,154.7z"/>
		<path class="st0" d="M194.8,169.3c-0.3-0.6-0.9-0.8-1.4-1c-2.8-1.2-6.1-0.2-8.7-2.3c0.7-0.1,1.7-0.5,2.7-0.9
			c1.2-0.4,2.5-0.9,3.6-1.7c1.4,0.1,2.7,0.3,4,1.1c0.9,0.5,1,1.6,0.9,3c-0.3,1.7-0.7,2.1-0.9,2.1
			C194.9,169.4,194.9,169.3,194.8,169.3L194.8,169.3z"/>
		<path class="st0" d="M175.9,180.4c1.5-4.1,4.5-5.3,6.8-6.1c2.8-1,5.5-1.2,8.2-2.1c1.3-0.4,2.8-1.2,4-2.6c0,0,0.5-0.8,0.9-2.2
			c-0.1,0.6-0.2,1.3-0.3,2c-0.6,3.3-1.2,4.6-3.1,5.9c-2.9,1.9-5.9,1.8-8.8,2.6c-2.6,0.7-6.7,1.8-8.4,6.7
			C175.6,183.3,175.5,181.6,175.9,180.4L175.9,180.4z"/>
		<path class="st0" d="M185.4,161.7c2.5-1,5.2-1,7.5-3.8c0.6-0.7,1-1.5,1.3-2.5c0,0,0-0.1,0.1-0.2c0.1-0.4,0.4-1.2,0.6-2
			c-0.2,1.5-0.5,3-0.8,4.3c-0.7,3-1.9,4.7-3.2,5.8c-1.1,0.9-2.4,1.4-3.6,1.7c-0.9,0.4-1.9,0.8-2.7,0.9
			C184.6,165.9,185.3,161.8,185.4,161.7L185.4,161.7z"/>
		<path class="st0" d="M124.8,95.3c3.2,0.7,6.2,1.9,9.4,2.5C130.9,97.4,127.7,96.6,124.8,95.3z"/>
		<path class="st0" d="M115.9,97.2c0.1-0.3,0.3-0.6,0.5-0.8c2.6,2.8,7.1,4.5,10.2,5.8c6.2,2.7,12.8,4.3,19.4,5.3
			c0.7,0.1,0.5,5.3,1,5.3c-7.6-1.1-15.1-3.2-22.1-6.5c-3.8-1.8-8.5-4.1-9.4-8.6c0,0,0-0.1,0-0.2C115.6,97.7,115.8,97.6,115.9,97.2
			L115.9,97.2z"/>
		<path class="st0" d="M114.9,94.5c-0.1-2.3,0.4-4.2,3-4.8c0.4-0.1,0.9-0.2,1.5-0.2c1.2-0.1,2.4,0,3.6,0.2c3.5,0.6,6.9,2.1,10.3,2.8
			c0.2,1.2,0.4,2.3,0.6,3.5c0.1,1,0.1,1.8,0.3,1.9c-3.2-0.6-6.2-1.8-9.4-2.5c-0.4-0.1-0.7-0.2-1.1-0.2c-1.9-0.4-3.8-0.5-5.7,0.1
			c-0.7,0.2-1.2,0.6-1.6,1.1c0,0,0,0.1-0.1,0.1c-0.5,0.8-0.7,1.6-0.8,2.3c-0.2-0.4-0.2-0.6-0.3-1.1C115.1,96.5,115,95.5,114.9,94.5z
			"/>
		<path class="st0" d="M116.1,73.2c2.1-4.1,6.4-6.9,9.5-10.1c-0.7,0.7,1.8,4.5,1,5.4c-2.5,2.5-5.3,4.8-7.6,7.4
			c-1.1,1.2-1.9,2.6-2.6,4.1c-0.3,0.8-0.4,1.5-0.6,2.3c0,0.1,0,0.2,0,0.3c0,0.4,0,0.9,0,1.3c0-0.1,0-0.2-0.1-0.3c0,0.2,0,0.4,0,0.6
			c0-0.1,0-0.2-0.1-0.2C114.9,80.1,114.3,76.8,116.1,73.2L116.1,73.2z"/>
		<path class="st0" d="M117.9,89.6c-1.1-1.6-1.8-3.4-2.3-5.5c0-0.2,0-0.4,0-0.6c0,0.1,0,0.2,0.1,0.3c0-0.4,0-0.9,0-1.3
			c0,0.1,0.1,0.2,0.1,0.4c1.3,3.1,4,5.2,7,6.7c-1.2-0.2-2.4-0.3-3.6-0.2C118.8,89.4,118.3,89.5,117.9,89.6L117.9,89.6z"/>
		<path class="st0" d="M133.9,96c0.1,0.6,0.2,1.2,0.3,1.9C134,97.8,133.9,97,133.9,96z"/>
		<path class="st0" d="M312.7,155l-1.2-1.5c-1.7,1.7-3.8,3.2-4.2,3.4c0.7,1,1.3,1.6,1.3,1.6C310.8,157.2,312.1,155.9,312.7,155
			L312.7,155z"/>
		<path class="st0" d="M171.1,281.4l-0.1-1.9c-2.4,0.4-5,0.3-5.4,0.2c-0.1,1.2,0.1,2.1,0.1,2.1C168.2,282,170,281.7,171.1,281.4
			L171.1,281.4z"/>
		<path class="st0" d="M203.8,353.7l0.1,3.1c-1.4-0.8-4.4-2.5-4.4-2.5l-0.2-2.7C200.9,351.6,203.2,353.1,203.8,353.7L203.8,353.7z"
			/>
		<path class="st0" d="M107.3,283.3c0,0-4.9-6.3-8.1-8.1c-2.1-0.4-3,0-3,0c4.9,3.7,8.1,7.9,8.1,7.9
			C105.9,283.1,107.3,283.3,107.3,283.3L107.3,283.3z"/>
		<path class="st0" d="M113.9,355.4l-3.9,5.5l1.9,0.8l3.5-5.5L113.9,355.4z"/>
		<path class="st0" d="M143.6,385.3l3.4-0.1l0.7-1.2l-3.3,0.1L143.6,385.3z"/>
		<path class="st0" d="M16.7,276.2l-5.3-4.6l-1.1,0.2l5,4.2L16.7,276.2z"/>
		<path class="st0" d="M199.1,277.4l6.1,0.4l-1.8-1.5l-5.6-0.4L199.1,277.4z"/>
		<path class="st0" d="M177.1,298.9l2.4,4.5l0.8-1l-2.4-4.5L177.1,298.9z"/>
		<path class="st0" d="M145,310.7l0.2,3.5l1.1-0.4l-0.2-3.5L145,310.7z"/>
		<path class="st0" d="M161.6,211l8.1-0.5l-1.4-1.8l-7.4,0.5L161.6,211z"/>
		<path class="st0" d="M32.1,271.8l3.1-2.3l6.2,8.3l-3.6,2.7L32.1,271.8z"/>
		<path class="st0" d="M227.7,298l-1.2-1.5c-1.8,1.8-4,3.4-4.4,3.5c0.7,1,1.4,1.7,1.4,1.7C225.7,300.3,227,298.9,227.7,298
			L227.7,298z"/>
		<path class="st0" d="M28.9,192l-2.2-0.1c0.9,1.4,1.8,3,1.8,3.3c1.2-0.4,2,0.2,2,0.2C30.1,193.7,29.5,192.6,28.9,192L28.9,192z"/>
		<path class="st0" d="M71.6,179.6c0,0,5.2,0.9,7.2,0.3c0.3,1.3,1.5,2.8,1.5,2.8c-1.9-0.1-6.7-0.2-8-0.8
			C71.2,180.4,71.6,179.6,71.6,179.6z"/>
		<path class="st0" d="M115.6,335.1l-0.3,5.2l1.7,1.3l0.4-5.1L115.6,335.1z"/>
		<path class="st0" d="M41.1,325.1l-0.2,2.6l0.8,0.6l0.2-2.6L41.1,325.1z"/>
		<path class="st0" d="M18,283.1l-0.3,5.2l1.7,1.3l0.4-5.1L18,283.1z"/>
		<path class="st0" d="M160.3,261.3l3.9-6.2l-2.6,1.9l-3.6,5.8L160.3,261.3z"/>
		<path class="st0" d="M176.9,218.7l-0.1,8.5l2-1.4l0.1-7.8L176.9,218.7z"/>
		<path class="st0" d="M190.8,187.9l1.1,3.2c-1.7-0.1-5.3-0.3-5.3-0.3l-1.1-2.8C187.2,187.1,190,187.5,190.8,187.9L190.8,187.9z"/>
		<path class="st0" d="M56.4,202.9l-4.8,6.7l2.3,0.9l4.2-6.7L56.4,202.9z"/>
		<path class="st0" d="M185.7,285l-0.4,6.1l1.9,1.5l0.5-5.9L185.7,285z"/>
		<path class="st0" d="M37.3,291.8l3.4,0.7l1-1.2l-3.3-0.7L37.3,291.8z"/>
		<path class="st0" d="M199.7,214.8l4.5-7.3l-3,2.2l-4.2,6.8L199.7,214.8z"/>
		<path class="st0" d="M290,308.6c-1.8,4-5.8,5.6-9.9,4.7c0-1.4-0.1-2.1-0.1-2.1c4-0.1,6.7-1.4,8.1-4.1
			C288.9,307.9,290,308.6,290,308.6z"/>
		<path class="st0" d="M229,230.3l-1.9-1.1c-1.1,2.6-2.9,5.2-3.2,5.6c1.2,0.8,2.2,1.2,2.2,1.2C227.8,233.6,228.6,231.6,229,230.3z"
			/>
		<path class="st0" d="M142.1,284.2l-3.1-2c1.8-0.8,5.4-2.6,5.4-2.6l2.8,1.7C146,282.9,143,284,142.1,284.2z"/>
		<path class="st0" d="M119,314.8l0.1,3.7c-1.7-1-5.2-2.9-5.2-2.9l-0.2-3.2C115.6,312.3,118.3,314.1,119,314.8z"/>
		<path class="st0" d="M135.3,205.2l3.3,0.6l1-1.2l-3.2-0.7L135.3,205.2z"/>
		<path class="st0" d="M155.2,343.6l3.3,0.7l1-1.2l-3.2-0.7L155.2,343.6z"/>
		<path class="st0" d="M85.2,247.1l3.4,0.6l1-1.2l-3.2-0.7L85.2,247.1z"/>
		<path class="st0" d="M195.8,306.1l2.1,0.5l0.8-1.2l-2-0.6L195.8,306.1z"/>
		<path class="st0" d="M120.4,383.4l-2.3-6.8l-0.4,1.3l2.2,6.8L120.4,383.4z"/>
		<path class="st0" d="M45.2,223.7l-6.7-2.6l0.8,1.2l6.6,2.6L45.2,223.7z"/>
		<path class="st0" d="M210.4,324.2l-0.1,3.1c1.4-0.8,4.4-2.5,4.4-2.5l0.2-2.7C213.2,322.1,211,323.6,210.4,324.2L210.4,324.2z"/>
		<path class="st0" d="M286.4,354.9l3.9,5.5l-1.9,0.8l-3.5-5.5L286.4,354.9z"/>
		<path class="st0" d="M256.7,384.8l-3.4-0.2l-0.7-1.1l3.3,0.1L256.7,384.8z"/>
		<path class="st0" d="M374.9,327.4l-4.8,3.8l0.9-2.1l4.4-3.4L374.9,327.4z"/>
		<path class="st0" d="M320.3,326.2l5.1,0.7l-0.6,1.1l-5-0.7L320.3,326.2z"/>
		<path class="st0" d="M211.4,416l-3.4-4.3l1.4,0.1l3.1,4L211.4,416z"/>
		<path class="st0" d="M231.9,377.6l6.3-5.8l-0.5,1.6l-5.7,5.3L231.9,377.6z"/>
		<path class="st0" d="M284.7,334.5l0.3,5.3l-1.7,1.3L283,336L284.7,334.5z"/>
		<path class="st0" d="M349,338.4l0.2,2.6l-0.8,0.6l-0.2-2.6L349,338.4z"/>
		<path class="st0" d="M395.1,340.5l-2.7,2.3l-1.5-0.5l2.5-2.3L395.1,340.5z"/>
		<path class="st0" d="M245.1,343.1l-3.3,0.7l-1-1.2l3.2-0.7L245.1,343.1z"/>
		<path class="st0" d="M90.3,412.6l-2.1,0.5l-0.8-1.2l2-0.6L90.3,412.6z"/>
		<path class="st0" d="M279.9,382.8l2.3-6.8l0.4,1.3l-2.2,6.8L279.9,382.8z"/>
		<path class="st0" d="M56.8,277.6l4-5.1l-1.7,0.1l-3.6,4.7L56.8,277.6z"/>
		<path class="st0" d="M81.2,295.6l3.3,3.1l-8.6,8.9L72,304L81.2,295.6z"/>
		<path class="st0" d="M328.6,389.6l1.2,4.9l1.8-0.9l-1.6-4.6L328.6,389.6z"/>
		<path class="st0" d="M259.2,312.3l5.2-4.7l-2.9,1.1l-4.8,4.4L259.2,312.3z"/>
		<path class="st0" d="M392.7,264.3l4.8,3.8l-0.8-2.1l-4.5-3.4L392.7,264.3z"/>
		<path class="st0" d="M155.6,169.7l-0.2,5.1h0.7l0.2-5.1H155.6z"/>
		<path class="st0" d="M344.2,284.8l-0.1,8.1l1.9-1.3l0.1-7.4L344.2,284.8z"/>
		<path class="st0" d="M312.3,288.4l-1.7-1c-1,2.3-2.5,4.6-2.8,4.9c1,0.7,1.9,1.1,1.9,1.1C311.2,291.3,312,289.5,312.3,288.4z"/>
		<path class="st0" d="M418.6,275.2l-0.2,2.6l0.8,0.6l0.2-2.5L418.6,275.2z"/>
		<path class="st0" d="M362.8,202.5l-0.3,5.2l1.6,1.3l0.4-5.1L362.8,202.5z"/>
		<path class="st0" d="M372.5,277.3l2.7,2.3l1.5-0.5l-2.5-2.3L372.5,277.3z"/>
		<path class="st0" d="M404.7,228.1l3.4,0.7l1-1.2l-3.3-0.7L404.7,228.1z"/>
		<path class="st0" d="M237.6,300l3-9.4l-1.7,1.2l-2.7,8.7L237.6,300z"/>
		<path class="st0" d="M300.6,185.1l-1.9-1.7c-0.2,1.9-0.7,4.2-0.7,4.2l1.6,1.6C300.5,187.5,300.6,186,300.6,185.1z"/>
		<path class="st0" d="M199.1,397.6l3.3,2.3l1.5-0.6l-3.2-2.3L199.1,397.6z"/>
		<path class="st0" d="M276.3,276.4l0.8,3.3l1.5,0.4l-0.7-3.2L276.3,276.4z"/>
		<path class="st0" d="M332.3,230l2.9-9.2l-1.7,1.2l-2.6,8.4L332.3,230z"/>
		<path class="st0" d="M408.2,199.5l4-5.1l-1.7,0.1l-3.6,4.7L408.2,199.5z"/>
		<path class="st0" d="M214.8,163.9l0.1,1.9c2.4-0.4,5-0.3,5.4-0.2c0.1-1.2-0.1-2.1-0.1-2.1C217.7,163.3,215.9,163.6,214.8,163.9z"
			/>
		<path class="st0" d="M410.7,251.9l1.6,0.9c1-2.2,2.4-4.4,2.7-4.7c-1-0.7-1.8-1-1.8-1C411.7,249.2,411,250.9,410.7,251.9
			L410.7,251.9z"/>
		<path class="st0" d="M312.6,219l-1.3-2.8c1.6,0.2,5,0.6,5,0.6l1.2,2.4C315.9,219.8,313.3,219.3,312.6,219z"/>
		<path class="st0" d="M356.7,239.5l-0.9-2.6c1.4,0.1,4.3,0.2,4.3,0.2l0.9,2.3C359.6,240.1,357.3,239.7,356.7,239.5z"/>
		<path class="st0" d="M202.1,110.7l-0.1-3.1c1.4,0.8,4.4,2.5,4.4,2.5l0.2,2.7C204.9,112.8,202.7,111.3,202.1,110.7L202.1,110.7z"/>
		<path class="st0" d="M278.7,162c0,0,4.9,6.3,8.1,8.1c2.1,0.4,3,0,3,0c-4.9-3.7-8.1-7.9-8.1-7.9C280.1,162.2,278.7,162,278.7,162
			L278.7,162z"/>
		<path class="st0" d="M277.5,91.6l3.9-5.5l-1.9-0.8l-3.5,5.5L277.5,91.6z"/>
		<path class="st0" d="M358.1,29.7l0.3-5l-1.6-1.2l-0.4,4.9L358.1,29.7z"/>
		<path class="st0" d="M242.4,60l-3.4,0.1l-0.7,1.2l3.3-0.1L242.4,60z"/>
		<path class="st0" d="M380.5,178.6l5.4,4.6l1.1-0.2l-5-4.2L380.5,178.6z"/>
		<path class="st0" d="M360.5,117.3l-4.8-3.8l0.9,2.1l4.4,3.4L360.5,117.3z"/>
		<path class="st0" d="M184,156.2l-6.1-0.4l1.8,1.6l5.6,0.3L184,156.2z"/>
		<path class="st0" d="M306,118.5l5.1-0.7l-0.6-1.1l-5.1,0.7L306,118.5z"/>
		<path class="st0" d="M241,134.5l-0.1-3.5l-1.1,0.4l0.2,3.5L241,134.5z"/>
		<path class="st0" d="M248.6,155.5l-0.3,4.2c5.4-0.2,11.2,0.6,12.1,0.9c0.4-2.7,0.3-4.7,0.3-4.7C255.2,154.8,251.1,155,248.6,155.5
			z"/>
		<path class="st0" d="M158.3,147.3l1.2,1.5c1.8-1.8,4-3.4,4.4-3.5c-0.7-1-1.4-1.7-1.4-1.7C160.3,145,159,146.4,158.3,147.3
			L158.3,147.3z"/>
		<path class="st0" d="M338.3,255l2.2,0.1c-0.9-1.4-1.8-3-1.8-3.3c-1.2,0.4-2-0.3-2-0.3C337.1,253.3,337.8,254.4,338.3,255
			L338.3,255z"/>
		<path class="st0" d="M300,260.3c0,0-5.2-0.9-7.2-0.3c-0.3-1.3-1.5-2.8-1.5-2.8c1.9,0.1,6.7,0.3,8,0.8
			C300.5,259.5,300,260.3,300,260.3z"/>
		<path class="st0" d="M270.4,110.2l0.3-5.2l-1.7-1.3l-0.4,5.1L270.4,110.2z"/>
		<path class="st0" d="M334.7,106.4l0.2-2.6l-0.8-0.6l-0.2,2.5L334.7,106.4z"/>
		<path class="st0" d="M394.8,240.2l0.3-5.2l-1.7-1.3l-0.4,5.1L394.8,240.2z"/>
		<path class="st0" d="M368,162.2l0.3-5.2l-1.6-1.3l-0.4,5.1L368,162.2z"/>
		<path class="st0" d="M361.3,178.5l-3.9,6.2l2.6-1.9l3.6-5.8L361.3,178.5z"/>
		<path class="st0" d="M154.8,238.2l-7.4-4.1l0.2,2.4l6.9,3.7L154.8,238.2z"/>
		<path class="st0" d="M259.9,244.6l5.8,6.2l0.5-2.4l-5.3-5.7L259.9,244.6z"/>
		<path class="st0" d="M339.8,309l-1.1-3.2c1.7,0.1,5.3,0.3,5.3,0.3l1.1,2.8C343.3,309.8,340.6,309.4,339.8,309L339.8,309z"/>
		<path class="st0" d="M422.5,226.2l-0.1-3.8c1.7,1,5.4,3,5.4,3l0.3,3.3C425.9,228.7,423.2,226.9,422.5,226.2z"/>
		<path class="st0" d="M239.5,209.6l4.8-6.7l-2.3-0.9l-4.2,6.7L239.5,209.6z"/>
		<path class="st0" d="M200.3,160.3l0.4-6.1l-1.9-1.5l-0.5,5.9L200.3,160.3z"/>
		<path class="st0" d="M380.8,104.3l-2.6-2.3l-1.5,0.5l2.5,2.3L380.8,104.3z"/>
		<path class="st0" d="M348.6,153.5l-3.4-0.7l-1,1.2l3.3,0.7L348.6,153.5z"/>
		<path class="st0" d="M348.8,367.1l-5.7-6l-1.4,2.1l5.8,5.4L348.8,367.1z"/>
		<path class="st0" d="M364.6,265.5l2.3,7l0.4-1.4l-2.3-7L364.6,265.5z"/>
		<path class="st0" d="M328.6,196.1c-3.5-2.6-4.2-6.8-2.5-10.6c1.3,0.3,2.1,0.4,2.1,0.4c-0.8,3.9-0.1,6.8,2.2,8.8
			C329.5,195.2,328.6,196.1,328.6,196.1z"/>
		<path class="st0" d="M245.5,171.4l3.1,2c-1.8,0.8-5.4,2.6-5.4,2.6l-2.8-1.7C241.5,172.7,244.5,171.5,245.5,171.4z"/>
		<path class="st0" d="M267,130.5l-0.1-3.7c1.7,1,5.2,2.9,5.2,2.9l0.2,3.2C270.4,133,267.7,131.2,267,130.5z"/>
		<path class="st0" d="M230.7,101.7l-3.3-0.7l-1,1.2l3.2,0.7L230.7,101.7z"/>
		<path class="st0" d="M305.6,237.8l-2.6-2.2l-1.4,0.5l2.5,2.2L305.6,237.8z"/>
		<path class="st0" d="M190.2,139.2l-2.1-0.5l-0.8,1.2l2,0.6L190.2,139.2z"/>
		<path class="st0" d="M337.5,80l-11.2,1.2l1.9,1.1l11.1-1.2L337.5,80z"/>
		<path class="st0" d="M205.4,66l2.3,6.8l0.4-1.4l-2.3-6.8L205.4,66z"/>
		<path class="st0" d="M175.6,121.1l0.1-3.1c-1.4,0.8-4.4,2.5-4.4,2.5l-0.2,2.7C172.8,123.2,175,121.7,175.6,121.1L175.6,121.1z"/>
		<path class="st0" d="M99.6,90.4l-3.9-5.5l1.9-0.8l3.5,5.5L99.6,90.4z"/>
		<path class="st0" d="M129.3,60.5l3.4,0.2l0.7,1.1l-3.3-0.1L129.3,60.5z"/>
		<path class="st0" d="M49.4,67.6l4.8-3.8l-0.8,2.1l-4.5,3.4L49.4,67.6z"/>
		<path class="st0" d="M65.7,119.1l-5.1-0.7l0.6-1.1l5.1,0.7L65.7,119.1z"/>
		<path class="st0" d="M149.4,35.3l3.4,4.3l-1.4-0.1l-3.1-4L149.4,35.3z"/>
		<path class="st0" d="M154.1,67.7l-6.3,5.8l0.5-1.6l5.8-5.3L154.1,67.7z"/>
		<path class="st0" d="M98,126.4l-0.3-5.2l1.7-1.3l0.4,5.1L98,126.4z"/>
		<path class="st0" d="M36.9,106.9l-0.2-2.6l0.8-0.6l0.2,2.6L36.9,106.9z"/>
		<path class="st0" d="M140.9,102.2l3.3-0.7l1,1.2l-3.2,0.7L140.9,102.2z"/>
		<path class="st0" d="M295.7,32.7l2.1-0.5l0.8,1.2l-2,0.6L295.7,32.7z"/>
		<path class="st0" d="M111.4,66l-2.3,6.8l-0.4-1.3l2.2-6.8L111.4,66z"/>
		<path class="st0" d="M421,151.7l-2.9,9.2l1.7-1.2l2.6-8.4L421,151.7z"/>
		<path class="st0" d="M272.3,222.3l-4.5-0.2l0.5-12.4l5.4,0.2L272.3,222.3z"/>
		<path class="st0" d="M58.9,44l-1.3-4.9L55.8,40l1.6,4.6L58.9,44z"/>
		<path class="st0" d="M117.8,221.6l-2.8-0.6l-0.8,1l2.7,0.6L117.8,221.6z"/>
		<path class="st0" d="M13.2,242.2l5.3,4.6l1.1-0.2l-5-4.2L13.2,242.2z"/>
		<path class="st0" d="M226.7,267.9l0.2-5.1h-0.7l-0.2,5.1H226.7z"/>
		<path class="st0" d="M71.9,356l-1.9-4.7l-1.8,1.3l1.9,4.7L71.9,356z"/>
		<path class="st0" d="M85.7,220.1l0.1-8.1l-1.9,1.3l-0.1,7.4L85.7,220.1z"/>
		<path class="st0" d="M73.7,156.9l1.7,1c1-2.3,2.5-4.6,2.8-4.9c-1-0.7-1.9-1.1-1.9-1.1C74.7,154,74,155.7,73.7,156.9L73.7,156.9z"
			/>
		<path class="st0" d="M125.9,188.9l-0.5,1.9c2.5,0.3,5.1,1.1,5.5,1.4c0.4-1.2,0.5-2.1,0.5-2.1C129,189.1,127,188.9,125.9,188.9
			L125.9,188.9z"/>
		<path class="st0" d="M196.2,245.5l3.2-0.3c-0.8,1.5-1.4,3.5-1.4,3.5l-2.8,0.4C195,247.4,195.6,246.2,196.2,245.5z"/>
		<path class="st0" d="M0.7,225.9l0.3-5.2l-1.6-1.3l-0.4,5.1L0.7,225.9z"/>
		<path class="st0" d="M13.5,167.9l-2.6-2.3l-1.5,0.5l2.5,2.3L13.5,167.9z"/>
		<path class="st0" d="M161.6,182.3l-3.4-0.7l-1,1.2l3.3,0.7L161.6,182.3z"/>
		<path class="st0" d="M40.7,140.8l-7.5,0.6l1.4,1.7l6.8-0.6L40.7,140.8z"/>
		<path class="st0" d="M148.4,145.3l-3,9.4l1.8-1.3l2.7-8.7L148.4,145.3z"/>
		<path class="st0" d="M211.8,2.3L208.5,0L207,0.6l3.2,2.3L211.8,2.3z"/>
		<path class="st0" d="M109.7,168.9l-0.8-3.3l-1.5-0.4l0.7,3.2L109.7,168.9z"/>
		<path class="st0" d="M131.7,261.5l-7.3,0.6l1.3,1.6l6.7-0.6L131.7,261.5z"/>
		<path class="st0" d="M70.8,220.1l-2.9,9.2l1.7-1.2l2.6-8.4L70.8,220.1z"/>
	</g>
</g>
<linearGradient id="SVGID_00000125572283164057849230000009910823427826270386_" gradientUnits="userSpaceOnUse" x1="214" y1="424.4" x2="214" y2="172.4" gradientTransform="matrix(1 0 0 -1 0 494.4)">
	<stop  offset="0" style="stop-color:#EEEEEE"/>
	<stop  offset="1" style="stop-color:#FAFAFA"/>
</linearGradient>
<circle style="fill:#D5EAD9;stroke:url(#SVGID_00000125572283164057849230000009910823427826270386_);stroke-width:18;" cx="214" cy="196" r="117"/>
<path class="st4" d="M189.9,213.5c0,0-1.3-1.3-1.6,6.5c-0.3,7.4-0.9,18,0.9,22.6c0.2,0.5,0.5,0.9,1,1.2c0.4,0.2,0.9,0.5,1.5,0.6
	c1.5,0.2,7.6,0.1,7.6,0.1s3.5,0,3.5-2.8c0-2.3,0-7.4,0-7.4L189.9,213.5z"/>
<g class="st5">
	<path d="M189.9,213.5c0,0-1.3-1.3-1.6,6.5c-0.3,7.4-0.9,18,0.9,22.6c0.2,0.5,0.5,0.9,1,1.2c0.4,0.2,0.9,0.5,1.5,0.6
		c1.5,0.2,7.6,0.1,7.6,0.1s3.5,0,3.5-2.8c0-2.3,0-7.4,0-7.4L189.9,213.5z"/>
</g>
<path class="st4" d="M260.4,213.5c0,0-1.3-1.3-1.6,6.5c-0.3,7.4-0.9,18,0.9,22.6c0.2,0.5,0.5,0.9,1,1.2c0.4,0.2,0.9,0.5,1.5,0.6
	c1.5,0.2,7.6,0.1,7.6,0.1s3.5,0,3.5-2.8c0-2.3,0-7.4,0-7.4L260.4,213.5L260.4,213.5z"/>
<g class="st5">
	<path d="M260.4,213.5c0,0-1.3-1.3-1.6,6.5c-0.3,7.4-0.9,18,0.9,22.6c0.2,0.5,0.5,0.9,1,1.2c0.4,0.2,0.9,0.5,1.5,0.6
		c1.5,0.2,7.6,0.1,7.6,0.1s3.5,0,3.5-2.8c0-2.3,0-7.4,0-7.4L260.4,213.5L260.4,213.5z"/>
</g>
<path class="st4" d="M279.3,200c0,0-0.4,1.3-1.2,1.5c-0.8,0.1-7.1,0.3-7.1,0.3l-0.6,1.3h-1.2l-0.9-5.1l0.7,0.2
	c0.3,0.1,0.5,0.2,0.6,0.5c0.1,0.3,0.4,0.4,0.6,0.5L279.3,200L279.3,200z"/>
<path class="st6" d="M279,200.2c0.5,0,0.8-0.5,0.7-0.9c-0.2-1.4-1-4.3-3.8-4.7c-2.5-0.4-4.3-0.3-5.2-0.1c-0.4,0.1-0.7,0.5-0.7,0.9
	c-0.2,2,0,4.5,0.5,4.8C271.2,200.4,277,200.3,279,200.2L279,200.2z"/>
<path class="st4" d="M275.3,194.6c0,0,0.1,0.1,0.2,0.2c0.1,0.1,0.2,0.3,0.4,0.6c0.3,0.5,0.7,1.2,1.1,2c0.4,0.8,0.6,1.6,0.8,2.2
	c0.1,0.3,0.1,0.5,0.2,0.7c0,0.2,0,0.3,0,0.3c0,0,0-0.1-0.1-0.2c0-0.2-0.1-0.4-0.2-0.7c-0.2-0.6-0.4-1.3-0.8-2.2
	c-0.4-0.8-0.7-1.5-1-2c-0.1-0.3-0.3-0.5-0.4-0.6C275.3,194.7,275.2,194.6,275.3,194.6z"/>
<path class="st4" d="M277.8,218.8c0,0,1.3-1.3,1.6,6.5c0.3,7.4,0.9,18-0.9,22.6c-0.2,0.5-0.5,0.9-1,1.2c-0.4,0.2-0.9,0.5-1.5,0.6
	c-1.5,0.2-7.6,0.1-7.6,0.1s-3.5,0-3.5-2.8c0-2.3,0-7.4,0-7.4L277.8,218.8L277.8,218.8z"/>
<path class="st7" d="M277.9,218.8c0,0,0,0-0.1,0.1c0,0.1-0.1,0.2-0.2,0.3c-0.2,0.3-0.4,0.6-0.7,1.1c-0.6,1-1.5,2.4-2.7,4.3
	c-2.3,3.7-5.5,8.8-9.3,14.9l0,0c0,2.2,0,4.5,0,7c0,0.3,0,0.6,0,0.9c0,0.3,0.1,0.6,0.3,0.8c0.3,0.5,0.8,0.9,1.4,1.2
	c1.1,0.5,2.4,0.4,3.7,0.4c1.3,0,2.7,0,4,0c0.6,0,1.3,0,1.9-0.2c0.3-0.1,0.6-0.2,0.9-0.3c0.3-0.1,0.6-0.3,0.8-0.5
	c0.2-0.2,0.4-0.5,0.5-0.7c0.1-0.1,0.1-0.3,0.2-0.4c0-0.1,0.1-0.3,0.1-0.4c0.1-0.1,0.1-0.3,0.1-0.4c0-0.1,0.1-0.3,0.1-0.4
	c0.1-0.3,0.1-0.6,0.2-0.9c0.1-0.6,0.2-1.2,0.3-1.8c0-0.3,0.1-0.6,0.1-0.9c0-0.3,0.1-0.6,0.1-0.9c0.2-2.3,0.2-4.5,0.2-6.6
	c0-2.1-0.1-4-0.1-5.7c-0.1-1.8-0.1-3.3-0.2-4.7c-0.1-1.4-0.2-2.6-0.3-3.6c-0.2-1-0.3-1.7-0.6-2.2c-0.1-0.1-0.1-0.2-0.2-0.3
	c-0.1-0.1-0.2-0.1-0.2-0.1C277.9,218.7,277.9,218.8,277.9,218.8C277.9,218.8,277.9,218.8,277.9,218.8c0.1-0.1,0.1-0.1,0.2-0.1
	c0.1,0,0.2,0,0.2,0.1c0.1,0.1,0.2,0.1,0.2,0.3c0.3,0.4,0.5,1.2,0.6,2.2c0.2,1,0.3,2.2,0.4,3.6c0.1,1.4,0.1,3,0.2,4.7
	c0.1,1.8,0.1,3.7,0.2,5.7c0,2.1,0,4.3-0.2,6.6c0,0.3,0,0.6-0.1,0.9c0,0.3-0.1,0.6-0.1,0.9c-0.1,0.6-0.1,1.2-0.3,1.8
	c-0.1,0.3-0.1,0.6-0.2,0.9c0,0.1-0.1,0.3-0.1,0.5c0,0.2-0.1,0.3-0.1,0.4c0,0.1-0.1,0.3-0.1,0.4c-0.1,0.1-0.1,0.3-0.2,0.4
	c-0.1,0.3-0.3,0.6-0.6,0.8c-0.2,0.2-0.5,0.4-0.8,0.5c-0.3,0.1-0.6,0.2-0.9,0.3c-0.6,0.1-1.3,0.1-1.9,0.2c-1.3,0-2.6,0-4,0
	c-0.6,0-1.3,0-1.9,0c-0.6,0-1.3-0.1-1.9-0.4c-0.6-0.2-1.1-0.6-1.4-1.2c-0.2-0.3-0.2-0.6-0.3-0.9c-0.1-0.3,0-0.6,0-0.9
	c0-2.4,0-4.7,0-7v0l0,0c3.8-6.1,7.1-11.2,9.3-14.9c1.1-1.8,2.1-3.3,2.7-4.3c0.3-0.5,0.6-0.9,0.7-1.1
	C277.7,219.1,277.7,219,277.9,218.8C277.8,218.8,277.8,218.8,277.9,218.8L277.9,218.8z"/>
<path class="st4" d="M184.1,218.8c0,0-1.3-1.3-1.6,6.5c-0.3,7.4-0.9,18,0.9,22.6c0.2,0.5,0.5,0.9,1,1.2c0.4,0.2,0.9,0.5,1.5,0.6
	c1.5,0.2,7.6,0.1,7.6,0.1s3.5,0,3.5-2.8c0-2.3,0-7.4,0-7.4L184.1,218.8L184.1,218.8z"/>
<path class="st6" d="M279,212.1l-2.8-1.9c-0.6-2.9-5.9-8.9-5.9-8.9s-5.5-13.2-10.2-16.3c-4.7-3.1-27.8-2.7-27.8-2.7l-1.2,0
	c0,0-24.4-0.4-29.2,2.7c-4.7,3.1-10.2,16.3-10.2,16.3s-5.3,6-5.9,8.9l-2.8,1.9c-0.6,0.4-0.9,1-0.9,1.7c0.2,4.9,1.1,24.3,2.8,26.4
	c1.6,2.1,16.4,1,20.5,1c5.8,0,23.8-0.2,23.8-0.2l26.5-0.1c3-0.3,19.5,1.7,21.6-0.7c1.8-2.1,2.6-21.6,2.8-26.4
	C279.9,213.1,279.6,212.4,279,212.1L279,212.1z"/>
<path class="st7" d="M258.8,185.9c-0.1-0.2-0.3-0.3-0.6-0.4l-26.8-1.1l-0.2,0l0,0l-27.5,1.1c-0.2,0-0.5,0.1-0.6,0.4l-7,12.2
	c-0.2,0.4,0.1,0.9,0.5,0.9c0.8,0,1.9,0,3.2,0c2.2-0.1,19.3,0,28.3,0l0,0c0,0,1,0,2.8,0c1.7,0,2.8,0,2.8,0l0,0c9,0,26.1-0.1,28.3,0
	c1.4,0.1,2.6,0,3.3,0c0.4,0,0.7-0.5,0.5-0.8L258.8,185.9z"/>
<path class="st4" d="M182.7,200c0,0,0.4,1.3,1.2,1.5c0.8,0.1,7.1,0.3,7.1,0.3l0.6,1.3h1.2l0.9-5.1l-0.7,0.2
	c-0.3,0.1-0.5,0.2-0.6,0.5c-0.1,0.3-0.4,0.4-0.6,0.5L182.7,200L182.7,200z"/>
<path class="st6" d="M198.8,196.7l64.5-0.2l0.5,1.3l-31.2,0.2l-34.5-0.2L198.8,196.7z"/>
<g class="st8">
	<path d="M198.8,196.7l64.3-0.2l0.7,1.3l-31.2,0.2l-34.5-0.2L198.8,196.7z"/>
</g>
<path class="st4" d="M223,197c0-0.7-0.3-2.7-0.9-3.2c-0.5-0.4-1.7-0.5-2.3-0.6c0,0,0,0-0.1,0c-0.3,0-2.4,0.1-3,0.6
	c-0.7,0.5-0.9,2.5-0.9,3.2v0c0,0.4,0.4,0.8,0.8,0.8h5.6C222.6,197.8,223,197.5,223,197C223,197,223,197,223,197L223,197z"/>
<g class="st5">
	<path d="M223,197c0-0.7-0.3-2.7-0.9-3.2c-0.5-0.4-1.7-0.5-2.3-0.6c0,0,0,0-0.1,0c-0.3,0-2.4,0.1-3,0.6c-0.7,0.5-0.9,2.5-0.9,3.2v0
		c0,0.4,0.4,0.8,0.8,0.8h5.6C222.6,197.8,223,197.5,223,197C223,197,223,197,223,197L223,197z"/>
</g>
<path class="st4" d="M220.1,196.5c0-1.1-0.4-4.4-1.5-5.3c-0.8-0.7-2.8-0.9-3.7-0.9c0,0-0.1,0-0.1,0c-0.5,0-3.9,0.1-4.9,0.9
	c-1.1,0.9-1.5,4.1-1.5,5.3c0,0,0,0,0,0c0,0.7,0.6,1.3,1.3,1.3h9.2C219.5,197.8,220.1,197.2,220.1,196.5L220.1,196.5L220.1,196.5z"/>
<g class="st5">
	<path d="M208.8,230.1c0,0-20.7-2.7-21.5-2.8c-1.3-0.2-2,0.7-2,1.7c0,0.7-0.1,3.3-0.1,4.8c0,0.9,0.4,1.7,1.2,2.2
		c0.4,0.3,1,0.5,1.8,0.8c1.7,0.5,12.2,1,14.4,1.1c0.3,0,0.5-0.1,0.7-0.2c0.8-0.7,2.9-2.6,3.5-3.5C209,231,208.8,230.1,208.8,230.1
		L208.8,230.1z M198.1,235.8l-10-1.6l0.4-5.5l13.6,1.2L198.1,235.8L198.1,235.8z"/>
</g>
<g class="st5">
	<path d="M185.7,216.1c0,0-1,3.1,5.5,4.5c6.6,1.5,16.3,4.1,16.3,4.1l-5.2-3.7c0,0-15-2.5-15.4-4.8c-0.4-2.6,0-5.6,0-5.6L185.7,216.1
		z"/>
</g>
<path class="st4" d="M211.1,230C211.1,230,211.1,230,211.1,230c-0.1,0-0.2,0-0.3-0.1c-0.2,0-0.5-0.1-0.8-0.2
	c-0.7-0.2-1.7-0.4-2.9-0.7c-2.5-0.6-5.9-1.2-9.7-1.8c-1.9-0.3-3.7-0.6-5.4-0.8c-0.8-0.1-1.6-0.2-2.4-0.3c-0.7-0.1-1.4-0.2-2.1-0.2
	c-0.6,0-1.2,0.2-1.6,0.5c-0.4,0.3-0.7,0.6-0.9,0.9c-0.4,0.6-0.4,1-0.4,1c0,0,0-0.1,0-0.3c0-0.2,0.1-0.4,0.3-0.8
	c0.2-0.3,0.5-0.6,0.9-0.9c0.4-0.3,1-0.5,1.6-0.5c0.6,0,1.3,0.1,2.1,0.2c0.7,0.1,1.5,0.2,2.4,0.3c1.7,0.2,3.5,0.5,5.4,0.8
	c3.8,0.6,7.2,1.3,9.7,1.9c1.2,0.3,2.2,0.5,2.9,0.7c0.3,0.1,0.6,0.2,0.8,0.2C210.9,230,211,230,211.1,230
	C211.1,230,211.1,230,211.1,230L211.1,230z"/>
<path class="st4" d="M184.9,222c0,0,0,0,0-0.1c0-0.1,0-0.2,0-0.3c0-0.3,0-0.7,0-1.2c0-1,0.1-2.4,0.2-4c0.1-1.6,0.3-3,0.5-4
	c0.1-0.5,0.2-0.9,0.2-1.2c0-0.1,0.1-0.2,0.1-0.3c0-0.1,0-0.1,0-0.1c0,0,0,0,0,0.1c0,0.1,0,0.2,0,0.3c0,0.3-0.1,0.7-0.2,1.2
	c-0.1,1-0.3,2.4-0.5,4c-0.1,1.6-0.2,3-0.2,4c0,0.5,0,0.9,0,1.2c0,0.1,0,0.2,0,0.3C184.9,222,184.9,222,184.9,222z"/>
<path class="st4" d="M189.4,208c0,0,0-0.1,0-0.2c0-0.1,0-0.2,0-0.3c0-0.1,0-0.2,0-0.4c0.1-0.6,0.3-1.3,0.5-2.2
	c0.3-0.8,0.5-1.6,0.8-2.1c0.1-0.3,0.2-0.5,0.3-0.6c0.1-0.1,0.1-0.2,0.1-0.2c0,0,0,0.1-0.1,0.2c-0.1,0.2-0.1,0.4-0.2,0.6
	c-0.2,0.5-0.5,1.3-0.7,2.1s-0.5,1.6-0.6,2.1C189.4,207.7,189.4,208,189.4,208z"/>
<path class="st9" d="M190.6,209.5c0,0-3.4-1.2-3.8,1.4c-0.4,2.6-0.4,5.2,0.2,6.1c0.6,0.9,5.8,2.2,5.8,2.2l9,2c0,0,0.6,0.1,0.3-0.6
	c-0.4-0.8-2.8-6.1-4.2-7.4C195.3,210.8,190.6,209.5,190.6,209.5L190.6,209.5z"/>
<g class="st5">
	<path d="M194,219.4c0,0,0-6.2-0.4-6.9c-0.5-0.7-5.8-3.1-5.8-3.1s0.5-0.4,1.6-0.2s2.8,0.7,4.3,1.4c1.5,0.8,3.8,1.8,4.7,3.1
		c0.4,0.5,1.2,1.8,1.9,3.2c1,1.8,1.9,3.8,1.9,3.9c0,0.2,0.1,0.4-0.8,0.2C199.3,220.6,194,219.4,194,219.4L194,219.4z"/>
</g>
<path class="st9" d="M196.9,218.9c1.2,0,2.2-1,2.2-2.2c0-1.2-1-2.2-2.2-2.2c-1.2,0-2.2,1-2.2,2.2
	C194.7,217.9,195.7,218.9,196.9,218.9z"/>
<path class="st4" d="M199.1,216.7c0,0,0-0.2-0.1-0.5c-0.1-0.3-0.3-0.8-0.8-1.2c-0.2-0.2-0.6-0.3-0.9-0.4c-0.4-0.1-0.7,0-1.1,0.1
	c-0.2,0.1-0.4,0.2-0.5,0.3c-0.2,0.1-0.3,0.3-0.5,0.5c-0.3,0.3-0.4,0.8-0.4,1.3c0,0.5,0.2,0.9,0.4,1.3c0.1,0.2,0.3,0.3,0.5,0.5
	c0.2,0.1,0.4,0.2,0.5,0.3c0.4,0.1,0.8,0.2,1.1,0.1c0.4-0.1,0.7-0.2,0.9-0.4c0.5-0.4,0.7-0.9,0.8-1.2
	C199.1,216.9,199.1,216.7,199.1,216.7c0,0,0,0.2,0,0.5c-0.1,0.3-0.3,0.8-0.8,1.2c-0.3,0.2-0.6,0.4-0.9,0.4c-0.4,0.1-0.8,0.1-1.2-0.1
	c-0.2-0.1-0.4-0.2-0.6-0.3c-0.2-0.1-0.3-0.3-0.5-0.5c-0.3-0.4-0.4-0.8-0.4-1.3c0-0.5,0.2-1,0.4-1.3c0.1-0.2,0.3-0.3,0.5-0.5
	c0.2-0.1,0.4-0.2,0.6-0.3c0.4-0.1,0.8-0.2,1.2-0.1c0.4,0.1,0.7,0.2,0.9,0.4c0.5,0.4,0.7,0.9,0.8,1.2
	C199.1,216.5,199.1,216.7,199.1,216.7z"/>
<path class="st10" d="M196.9,216.6c0.8,0,1.5,0.4,1.9,1.1c0.2-0.3,0.3-0.7,0.3-1c0-1.2-1-2.1-2.1-2.1c-1.2,0-2.1,1-2.1,2.1
	c0,0.4,0.1,0.7,0.3,1C195.4,217,196.1,216.6,196.9,216.6L196.9,216.6z"/>
<path class="st0" d="M197.8,216.6c0,0.5-0.4,0.9-0.9,0.9c-0.5,0-0.9-0.4-0.9-0.9c0-0.5,0.4-0.9,0.9-0.9
	C197.4,215.7,197.8,216.1,197.8,216.6z"/>
<path class="st4" d="M197.8,216.6c0,0,0-0.1,0-0.2c0-0.1-0.1-0.3-0.3-0.5c-0.2-0.2-0.5-0.2-0.9-0.1c-0.3,0.1-0.6,0.4-0.6,0.8
	c0,0.4,0.3,0.7,0.6,0.8c0.3,0.1,0.7,0,0.9-0.1c0.2-0.2,0.3-0.4,0.3-0.5C197.8,216.7,197.8,216.6,197.8,216.6
	C197.9,216.6,197.9,216.6,197.8,216.6c0,0.1,0,0.2,0,0.2c0,0.1-0.1,0.4-0.3,0.5c-0.2,0.2-0.6,0.3-0.9,0.2c-0.4-0.1-0.7-0.5-0.7-0.9
	c0-0.4,0.3-0.8,0.7-0.9c0.4-0.1,0.7,0,0.9,0.2c0.2,0.2,0.3,0.4,0.3,0.5C197.9,216.4,197.9,216.5,197.8,216.6
	C197.9,216.6,197.9,216.6,197.8,216.6L197.8,216.6z"/>
<path class="st0" d="M197.7,215.1c0,0.1-0.2,0-0.5,0c-0.3,0-0.7,0-1.1,0.2c-0.4,0.2-0.6,0.5-0.8,0.8c-0.2,0.3-0.2,0.5-0.3,0.5
	c-0.1,0-0.1-0.2-0.1-0.6c0.1-0.4,0.4-0.8,0.9-1.1c0.5-0.3,1.1-0.2,1.4-0.1C197.6,214.9,197.8,215.1,197.7,215.1z"/>
<path class="st0" d="M198.3,215.5c-0.1,0.1-0.2,0.1-0.3,0.1c0,0,0-0.1,0.1-0.3c0.1-0.1,0.2-0.2,0.3-0.1
	C198.5,215.3,198.4,215.4,198.3,215.5L198.3,215.5z"/>
<path class="st4" d="M231.4,209.8C231.4,209.8,231.4,209.8,231.4,209.8c-0.1,0-0.2,0-0.3,0c-0.2,0-0.6,0-1,0c-0.9,0-2.1,0-3.6,0
	c-3,0-7.2,0-11.9,0c-2.3,0-4.5,0-6.5,0c-1,0-2,0-2.9,0c-0.4,0-0.9,0-1.3,0c-0.4,0-0.8,0.1-1.1,0.3c-0.6,0.5-1.1,0.9-1.6,1.3
	c-0.2,0.2-0.4,0.4-0.6,0.5c-0.2,0.2-0.4,0.3-0.6,0.3c-0.2,0.1-0.4,0.1-0.6,0c-0.2,0-0.3,0-0.4,0c-0.1,0-0.2,0-0.3,0
	c-0.1,0-0.1,0-0.1,0c0,0,0,0,0.1,0c0.1,0,0.1,0,0.3,0c0.1,0,0.3,0,0.4,0c0.2,0,0.4,0,0.6-0.1c0.2-0.1,0.4-0.1,0.6-0.3
	c0.2-0.2,0.4-0.4,0.6-0.5c0.5-0.4,1-0.8,1.6-1.3c0.3-0.2,0.7-0.4,1.1-0.3c0.4,0,0.8,0,1.3,0c0.9,0,1.8,0,2.9,0c2,0,4.2,0,6.5,0
	c4.6,0,8.8,0,11.9,0c1.5,0,2.7,0,3.6,0c0.4,0,0.7,0,1,0C231.2,209.8,231.3,209.8,231.4,209.8C231.4,209.8,231.4,209.8,231.4,209.8
	L231.4,209.8z"/>
<path class="st4" d="M273.9,238.6c-0.1-0.2-0.3-0.4-0.8-0.3c-1.3,0.1-14.5,0.4-16.4,0c-1.8-0.4-7.9-7.3-10.5-7.8
	c-2.2-0.4-12.7-0.6-16-0.5c-3.3-0.1-13.9,0.1-16,0.5c-2.6,0.5-8.6,8-10.4,8.5c-1.8,0.4-15.2-0.5-16.5-0.7c-0.5-0.1-0.7,0.1-0.8,0.3
	c-0.2,0.5,0.1,1,0.7,1c2.8,0.1,13.7,0.2,15.8,0.2c2.1,0,24-0.4,27.7-0.5c5.5,0,24.4,0.2,26.4,0.2c2.4,0,13.2,0.2,16.1,0.2
	C273.8,239.6,274.1,239.1,273.9,238.6L273.9,238.6z"/>
<path class="st4" d="M226.5,185.3c0.1,0,0.4,1.9,2,1.9c1.5,0,5.3,0,5.3,0v-2.4L226.5,185.3L226.5,185.3z"/>
<path class="st6" d="M183,200.2c-0.5,0-0.8-0.5-0.7-0.9c0.2-1.4,1-4.3,3.8-4.7c2.5-0.4,4.3-0.3,5.2-0.1c0.4,0.1,0.7,0.5,0.7,0.9
	c0.2,2,0,4.5-0.5,4.8C190.8,200.4,185,200.3,183,200.2L183,200.2z"/>
<path class="st4" d="M202.4,184.8C202.4,184.8,202.4,184.8,202.4,184.8c0,0.1-0.1,0.1-0.1,0.2c-0.1,0.1-0.2,0.3-0.3,0.5
	c-0.2,0.5-0.6,1.1-1,1.9c-0.9,1.6-2.1,3.8-3.4,6.2c-1.1,2-2.1,3.8-2.9,5.2l0,0l0,0c-1,0.7-1.8,1.3-2.3,1.8c-0.3,0.2-0.5,0.4-0.6,0.5
	c-0.1,0.1-0.1,0.1-0.2,0.1c0,0-0.1,0-0.1,0c0,0,0,0,0.1,0c0,0,0.1-0.1,0.2-0.1c0.2-0.1,0.4-0.3,0.6-0.5c0.6-0.4,1.3-1.1,2.3-1.8l0,0
	c0.8-1.4,1.8-3.2,2.9-5.2c1.3-2.4,2.6-4.6,3.4-6.1c0.4-0.8,0.8-1.4,1.1-1.9c0.1-0.2,0.2-0.4,0.3-0.5
	C202.3,184.9,202.3,184.9,202.4,184.8C202.4,184.8,202.4,184.8,202.4,184.8L202.4,184.8z"/>
<path class="st4" d="M206.1,183.7c0,0-0.2,0.1-0.5,0.2c-0.3,0.1-0.7,0.3-1.1,0.6c-0.4,0.3-0.7,0.7-0.9,0.9c-0.2,0.3-0.3,0.4-0.3,0.4
	c0,0,0.1-0.2,0.3-0.5c0.2-0.3,0.5-0.6,0.9-1c0.4-0.3,0.9-0.5,1.2-0.6C205.9,183.7,206.1,183.6,206.1,183.7L206.1,183.7z"/>
<g class="st5">
	<path d="M194.7,198.7l-0.2,0.1c-0.1-0.1,4.7,9.9,6.9,12.5l1.5-1.2C199.7,207,197.3,202.2,194.7,198.7z"/>
</g>
<path class="st4" d="M204.1,237.8c0,0,0,0,0.1-0.1c0.1,0,0.2-0.1,0.3-0.2c0.3-0.2,0.6-0.5,1.1-0.9c0.9-0.8,2.2-2,3.7-3.6
	c0.4-0.4,0.8-0.8,1.2-1.2c0.4-0.4,0.8-0.9,1.3-1.3c0.5-0.4,1.1-0.7,1.7-1c0.6-0.2,1.4-0.4,2.1-0.4c0.4,0,0.7,0,1.1,0
	c0.4,0,0.7,0,1.1,0c0.8,0,1.5,0,2.3,0c1.6,0,3.2,0,4.9,0c6.7-0.1,12.7-0.1,17.1-0.1c2.2,0,4,0,5.2,0c0.6,0,1.1,0,1.4,0
	c0.2,0,0.3,0,0.4,0c0.1,0,0.1,0,0.1,0s0,0-0.1,0c-0.1,0-0.2,0-0.4,0c-0.3,0-0.8,0-1.4,0c-1.2,0-3,0-5.2,0.1
	c-4.4,0-10.4,0.1-17.1,0.2c-1.7,0-3.3,0-4.9,0c-0.8,0-1.6,0-2.3,0c-0.4,0-0.8,0-1.1,0c-0.4,0-0.7,0-1.1,0c-0.7,0.1-1.4,0.2-2,0.4
	c-0.6,0.2-1.2,0.6-1.7,1c-0.5,0.4-0.9,0.9-1.3,1.3c-0.4,0.4-0.8,0.8-1.2,1.2c-1.5,1.5-2.8,2.8-3.7,3.6c-0.5,0.4-0.8,0.7-1.1,0.9
	c-0.1,0.1-0.2,0.2-0.3,0.2C204.2,237.8,204.1,237.8,204.1,237.8L204.1,237.8z"/>
<g class="st5">
	<path class="st0" d="M193.2,225.8c-0.6-0.6-1.3-1.2-2-1.7c-0.7-0.5-1.8-1-2.5-0.6c-0.3,0.4-0.6,0.8-0.8,1.3c-0.1,0.2-0.1,0.3,0,0.5
		c0.1,0.2,0.3,0.2,0.6,0.3c1.5,0.2,3.1,0.4,4.6,0.6c0.1,0,0.2,0,0.2-0.1C193.4,225.9,193.3,225.8,193.2,225.8z"/>
</g>
<g class="st5">
	<path d="M211.3,222.8c11.9,3.2,24.4,2.4,36.6,1c1.9-0.2,3.9-0.5,5.2-1.9"/>
</g>
<path class="st4" d="M255.5,211.9c-4.6-0.7-14.4-1-24-1c-9.7,0-19.4,0.3-24,1c-1.5,0.2-2.4,1.6-2,3c0,0,0,0,0,0.1
	c0.5,1.7,2.5,7,5.7,7.8c1.5,0.4,9.8,0.7,18.7,0.8v0c0.6,0,1.1,0,1.7,0c0.6,0,1.1,0,1.7,0v0c8.9-0.1,17.2-0.4,18.7-0.8
	c3.2-0.8,5.2-6.1,5.7-7.8c0,0,0,0,0-0.1C257.9,213.6,257,212.1,255.5,211.9z"/>
<path class="st4" d="M256.7,222.1c0,0,0,0-0.1,0.1c-0.1,0-0.2,0.1-0.4,0.2c-0.2,0.1-0.4,0.2-0.6,0.3c-0.1,0.1-0.2,0.1-0.4,0.2
	c-0.1,0.1-0.3,0.1-0.4,0.2c-1.2,0.6-3.1,1.3-5.5,1.9c-2.4,0.6-5.2,1.1-8.5,1.4c-3.2,0.3-6.8,0.4-10.5,0.3c-3.7,0-7.3-0.2-10.5-0.6
	c-3.2-0.4-6-1.1-8.4-1.9c-2.3-0.8-4.1-1.6-5.3-2.3c-0.3-0.2-0.6-0.3-0.8-0.4c-0.2-0.1-0.4-0.2-0.6-0.3c-0.2-0.1-0.3-0.2-0.3-0.2
	c-0.1,0-0.1-0.1-0.1-0.1s0,0,0.1,0.1c0.1,0,0.2,0.1,0.4,0.2c0.2,0.1,0.3,0.2,0.6,0.3c0.2,0.1,0.5,0.3,0.8,0.4c1.2,0.6,3,1.5,5.3,2.2
	c2.3,0.8,5.2,1.4,8.4,1.8c3.2,0.4,6.7,0.6,10.5,0.6c3.7,0,7.3,0,10.5-0.3c3.2-0.3,6.1-0.8,8.4-1.4c2.4-0.6,4.2-1.3,5.5-1.9
	c0.2-0.1,0.3-0.1,0.4-0.2c0.1-0.1,0.3-0.1,0.4-0.2c0.2-0.1,0.4-0.2,0.6-0.3c0.2-0.1,0.3-0.1,0.4-0.2
	C256.7,222.1,256.7,222.1,256.7,222.1L256.7,222.1z"/>
<path class="st7" d="M257.3,214.5c0,0-11.6,0.1-25.8,0.1c-14.3,0-25.8,0-25.8-0.1c0,0,11.6-0.1,25.8-0.1
	C245.7,214.5,257.3,214.5,257.3,214.5z"/>
<path class="st7" d="M257.3,212.9c0,0-11.6,0.1-25.8,0.1c-14.3,0-25.8,0-25.8-0.1s11.6-0.1,25.8-0.1
	C245.7,212.9,257.3,212.9,257.3,212.9z"/>
<path class="st7" d="M250,211.4c0,0-8.3,0.1-18.5,0.1c-10.2,0-18.5,0-18.5-0.1c0,0,8.3-0.1,18.5-0.1
	C241.7,211.3,250,211.3,250,211.4z"/>
<path class="st7" d="M257.3,216.1c0,0-11.6,0.1-25.8,0.1c-14.3,0-25.8,0-25.8-0.1c0,0,11.6-0.1,25.8-0.1
	C245.7,216,257.3,216.1,257.3,216.1z"/>
<path class="st7" d="M256.1,217.7c0,0-11.1,0.1-24.8,0.1c-13.7,0-24.8,0-24.8-0.1s11.1-0.1,24.8-0.1
	C245,217.6,256.1,217.7,256.1,217.7z"/>
<path class="st7" d="M255.6,219.3c0,0-10.8,0.1-24.1,0.1c-13.3,0-24.1,0-24.1-0.1s10.8-0.1,24.1-0.1S255.6,219.3,255.6,219.3z"/>
<path class="st7" d="M254.4,220.9c0,0-10.2,0.1-22.9,0.1c-12.6,0-22.9,0-22.9-0.1s10.2-0.1,22.9-0.1
	C244.1,220.8,254.4,220.9,254.4,220.9z"/>
<path class="st7" d="M252.8,222.5c0,0-9.5,0.1-21.2,0.1c-11.7,0-21.2,0-21.2-0.1c0,0,9.5-0.1,21.2-0.1S252.8,222.4,252.8,222.5z"/>
<path class="st0" d="M192,239C192,239,192,239,192,239c0.1,0.4-0.2,0.7-0.5,0.7l-3.4-0.1c-0.3,0-0.5-0.3-0.5-0.5l0-0.2
	c0-0.3,0.3-0.6,0.6-0.6l3.3,0.2C191.8,238.6,192,238.8,192,239L192,239z"/>
<path class="st7" d="M254.8,237c0,0-10.9,0.1-24.2,0.1c-13.4,0-24.2,0-24.2-0.1s10.9-0.1,24.2-0.1C244,237,254.8,237,254.8,237z"/>
<path class="st7" d="M217,238.8h-1.4l-0.1-1.8h1.6L217,238.8z"/>
<path class="st7" d="M230.3,238.8h-1.4l-0.1-1.8h1.6L230.3,238.8z"/>
<path class="st7" d="M243.6,238.8h-1.4l-0.1-1.8h1.6L243.6,238.8z"/>
<path class="st7" d="M254.1,236.4c-2.6-2.2-6-5.6-7.8-5.9c-2.2-0.4-12.7-0.6-16-0.5c-3.3-0.1-13.9,0.1-16,0.5
	c-1.7,0.3-4.7,3.5-7.2,5.9H254.1L254.1,236.4z"/>
<path class="st4" d="M185.6,235.2c0,0,0,0,0.1-0.1c0.1-0.1,0.2-0.2,0.3-0.3c0.3-0.2,0.7-0.6,1.3-1l0,0h0c1.7,0.2,4.2,0.5,7,0.9
	c1.4,0.2,2.7,0.3,3.8,0.5h0l0,0c1.4,0.8,2.6,1.4,3.4,1.9c0.4,0.2,0.7,0.4,1,0.5c0.1,0.1,0.2,0.1,0.3,0.1c0.1,0,0.1,0.1,0.1,0.1
	c0,0,0,0-0.1,0c-0.1,0-0.2-0.1-0.3-0.1c-0.2-0.1-0.6-0.3-1-0.5c-0.8-0.5-2-1.1-3.4-1.8l0,0c-1.2-0.1-2.5-0.3-3.8-0.5
	c-2.8-0.4-5.3-0.7-7-0.9l0,0c-0.5,0.4-1,0.8-1.3,1c-0.1,0.1-0.3,0.2-0.3,0.3C185.7,235.2,185.6,235.2,185.6,235.2L185.6,235.2z"/>
<path class="st4" d="M202.9,231.4c0,0,0.7-1.2,0-1.5c-0.8-0.3-14-1.9-14.5-2c-1.1-0.1-1.5,0.4-1.7,1.6c-0.3,1.3-0.8,4.4,0.3,5.3
	c1.1,0.9,2.7,1.3,6,1.5c3.3,0.2,5,0.3,6.6-0.6C201.1,234.9,202.9,231.4,202.9,231.4L202.9,231.4z"/>
<path class="st4" d="M202.3,221c0,0-0.2-0.3-0.5-0.9c-0.3-0.6-0.8-1.5-1.4-2.6c-0.3-0.5-0.6-1.1-1-1.8c-0.4-0.6-0.8-1.3-1.3-1.9
	c-0.3-0.3-0.5-0.6-0.8-0.9c-0.3-0.3-0.7-0.5-1.1-0.7c-0.4-0.2-0.8-0.4-1.2-0.6c-0.4-0.2-0.8-0.4-1.2-0.6c-0.8-0.4-1.7-0.8-2.5-1
	c-0.4-0.1-0.8-0.2-1.3-0.3c-0.4-0.1-0.8-0.2-1.2-0.1c-0.4,0-0.7,0.1-1,0.3c-0.3,0.2-0.5,0.5-0.6,0.8c-0.1,0.3-0.2,0.7-0.3,1
	c-0.1,0.3-0.1,0.7-0.2,1c-0.3,1.2-0.5,2.2-0.7,2.9c-0.2,0.7-0.3,1.1-0.3,1c0,0,0-0.4,0.1-1.1c0.1-0.7,0.3-1.7,0.5-2.9
	c0.1-0.3,0.1-0.6,0.2-1c0.1-0.3,0.1-0.7,0.3-1.1c0.1-0.4,0.4-0.7,0.7-1c0.4-0.3,0.8-0.4,1.3-0.4c0.4,0,0.9,0,1.3,0.1
	c0.4,0.1,0.9,0.2,1.3,0.3c0.9,0.3,1.7,0.6,2.6,1.1c0.4,0.2,0.9,0.4,1.3,0.7c0.4,0.2,0.8,0.4,1.2,0.7c0.4,0.2,0.8,0.5,1.1,0.8
	c0.3,0.3,0.6,0.6,0.9,1c0.5,0.7,0.9,1.4,1.3,2c0.4,0.6,0.7,1.3,1,1.8c0.6,1.1,1,2.1,1.2,2.7C202.2,220.7,202.3,221,202.3,221
	L202.3,221z"/>
<path class="st10" d="M190.4,214.4c1,0,1.9,0.6,2.4,1.4c0.2-0.4,0.3-0.8,0.3-1.3c0-1.5-1.2-2.7-2.7-2.7c-1.5,0-2.7,1.2-2.7,2.7
	c0,0.5,0.1,0.9,0.3,1.3C188.4,215,189.3,214.4,190.4,214.4z"/>
<path class="st0" d="M190.4,215.6c0.6,0,1.2-0.5,1.2-1.2c0-0.6-0.5-1.2-1.2-1.2c-0.6,0-1.2,0.5-1.2,1.2
	C189.2,215.1,189.7,215.6,190.4,215.6z"/>
<path class="st4" d="M191.5,214.4c0,0,0-0.1-0.1-0.3c0-0.2-0.2-0.4-0.4-0.6c-0.3-0.2-0.7-0.3-1.1-0.2c-0.4,0.1-0.7,0.6-0.7,1.1
	c0,0.5,0.3,0.9,0.7,1.1c0.4,0.1,0.8,0,1.1-0.2c0.3-0.2,0.4-0.4,0.4-0.6C191.5,214.5,191.5,214.4,191.5,214.4
	C191.5,214.4,191.5,214.4,191.5,214.4c0,0.1,0,0.2,0,0.3c0,0.2-0.1,0.5-0.4,0.7c-0.3,0.2-0.7,0.3-1.1,0.2c-0.2-0.1-0.4-0.2-0.6-0.4
	c-0.2-0.2-0.2-0.5-0.2-0.7c0-0.3,0.1-0.5,0.2-0.7c0.1-0.2,0.4-0.3,0.6-0.4c0.4-0.2,0.9,0,1.1,0.2c0.3,0.2,0.4,0.5,0.4,0.7
	C191.5,214.2,191.5,214.3,191.5,214.4C191.5,214.4,191.5,214.4,191.5,214.4L191.5,214.4z"/>
<path class="st4" d="M193.1,214.5c0,0,0-0.2-0.1-0.7c-0.1-0.4-0.4-1-1-1.5c-0.3-0.2-0.7-0.4-1.1-0.5c-0.4-0.1-0.9-0.1-1.4,0.1
	c-0.2,0.1-0.5,0.2-0.7,0.4c-0.2,0.2-0.4,0.3-0.6,0.6c-0.3,0.4-0.5,1-0.5,1.6c0,0.6,0.2,1.1,0.5,1.6c0.2,0.2,0.3,0.4,0.6,0.6
	c0.2,0.2,0.4,0.3,0.7,0.4c0.5,0.2,1,0.2,1.4,0.1c0.4-0.1,0.8-0.3,1.1-0.5c0.6-0.5,0.9-1.1,1-1.5
	C193.1,214.8,193.1,214.5,193.1,214.5c0,0,0,0.1,0,0.2c0,0.1,0,0.1,0,0.2c0,0.1,0,0.2-0.1,0.3c-0.1,0.4-0.4,1-1,1.5
	c-0.3,0.2-0.7,0.4-1.2,0.5c-0.5,0.1-1,0.1-1.5-0.1c-0.2-0.1-0.5-0.2-0.7-0.4c-0.2-0.2-0.4-0.4-0.6-0.6c-0.3-0.5-0.5-1-0.5-1.6
	c0-0.6,0.2-1.2,0.5-1.6c0.2-0.2,0.4-0.4,0.6-0.6c0.2-0.2,0.5-0.3,0.7-0.4c0.5-0.2,1-0.2,1.5-0.1c0.5,0.1,0.8,0.3,1.2,0.5
	c0.6,0.5,0.9,1.1,1,1.5c0,0.1,0,0.2,0.1,0.3c0,0.1,0,0.2,0,0.2C193.1,214.4,193.1,214.5,193.1,214.5z"/>
<path class="st0" d="M191.4,212.6c0,0.1-0.3,0-0.7-0.1c-0.4,0-0.9,0-1.4,0.2c-0.5,0.3-0.8,0.7-1,1c-0.2,0.3-0.2,0.6-0.3,0.6
	c-0.1,0-0.1-0.3,0-0.7c0.1-0.4,0.5-1,1.1-1.3c0.6-0.3,1.3-0.3,1.7-0.1C191.2,212.3,191.4,212.5,191.4,212.6L191.4,212.6z"/>
<path class="st0" d="M192.1,213c-0.1,0.1-0.2,0.1-0.3,0.1c0,0,0-0.1,0.1-0.3c0.1-0.1,0.2-0.2,0.3-0.1
	C192.2,212.8,192.2,212.9,192.1,213L192.1,213z"/>
<path class="st4" d="M207.5,224.8c0,0.1-3.7-0.7-8.1-1.8c-4.4-1.1-8-2.1-8-2.3c0-0.1,3.7,0.7,8.1,1.8
	C203.9,223.6,207.5,224.6,207.5,224.8L207.5,224.8z"/>
<path class="st4" d="M186.1,209.9C186.1,209.9,186.1,209.9,186.1,209.9c0-0.1,0-0.2,0-0.2c0-0.2,0.1-0.4,0.2-0.7
	c0.1-0.3,0.4-0.6,0.8-0.8c0.1-0.1,0.2-0.1,0.3-0.2c0.1,0,0.2-0.1,0.3-0.1c0.1,0,0.2-0.1,0.4-0.1c0.1,0,0.3,0,0.4,0
	c0.6,0,1.1,0.2,1.8,0.3c0.6,0.2,1.3,0.4,2,0.6c1.4,0.5,2.9,1,4.4,1.8c0.2,0.1,0.4,0.2,0.6,0.3c0.2,0.1,0.4,0.2,0.5,0.4
	c0.3,0.3,0.6,0.5,0.9,0.9c0.5,0.6,0.9,1.3,1.3,1.9c0.8,1.2,1.5,2.3,2.1,3.3c0.6,0.9,1,1.7,1.3,2.3c0.1,0.3,0.3,0.5,0.3,0.6
	c0,0.1,0.1,0.1,0.1,0.2c0,0,0,0.1,0,0.1c0,0,0,0,0-0.1c0,0-0.1-0.1-0.1-0.2c-0.1-0.1-0.2-0.4-0.3-0.6c-0.3-0.5-0.7-1.3-1.3-2.2
	c-0.6-0.9-1.3-2-2.1-3.2c-0.4-0.6-0.8-1.2-1.3-1.9c-0.2-0.3-0.5-0.6-0.8-0.8c-0.2-0.1-0.3-0.2-0.5-0.3c-0.2-0.1-0.4-0.2-0.6-0.3
	c-1.5-0.7-3-1.3-4.4-1.8c-0.7-0.2-1.3-0.4-2-0.6c-0.6-0.2-1.2-0.3-1.8-0.4c-0.1,0-0.3,0-0.4,0c-0.1,0-0.3,0-0.4,0.1
	c-0.1,0-0.2,0.1-0.3,0.1c-0.1,0.1-0.2,0.1-0.3,0.1c-0.4,0.2-0.6,0.5-0.8,0.8c-0.2,0.3-0.2,0.5-0.3,0.6
	C186.1,209.7,186.1,209.8,186.1,209.9C186.1,209.9,186.1,209.9,186.1,209.9L186.1,209.9z"/>
<path class="st4" d="M186.7,194.6c0,0,0,0.1-0.1,0.2c-0.1,0.1-0.2,0.3-0.4,0.6c-0.3,0.5-0.7,1.2-1,2c-0.4,0.8-0.6,1.6-0.8,2.2
	c-0.1,0.3-0.1,0.5-0.2,0.7c0,0.2-0.1,0.2-0.1,0.2c0,0,0-0.1,0-0.3c0-0.2,0.1-0.4,0.2-0.7c0.1-0.6,0.4-1.3,0.8-2.2
	c0.4-0.8,0.8-1.5,1.1-2c0.2-0.2,0.3-0.4,0.4-0.6C186.7,194.7,186.7,194.6,186.7,194.6z"/>
<g class="st5">
	<path class="st0" d="M185.2,211.1c-0.2,0.1-1.3,0.8-1.8,1c-0.5,0.3-0.9,0.7-1,1.2c-0.1,0.5,0,1.1,0.2,1.6c0.5,1.7,1,4.7,1.5,6.3
		C184.5,218.1,184.9,213,185.2,211.1"/>
</g>
<path class="st7" d="M200.3,235c0,0-3.1-0.4-7-0.9c-3.9-0.5-7-1-7-1s3.1,0.4,7,0.9C197.2,234.6,200.3,235,200.3,235z"/>
<path class="st7" d="M199.3,235.8c0,0,0,0-0.1,0c-0.1,0-0.2,0-0.4,0c-0.3,0-0.8-0.1-1.4-0.2c-1.2-0.1-2.8-0.3-4.5-0.5
	c-1.8-0.2-3.4-0.4-4.5-0.6c-0.6-0.1-1.1-0.1-1.4-0.2c-0.2,0-0.3,0-0.4-0.1c-0.1,0-0.1,0-0.1,0s0,0,0.1,0c0.1,0,0.2,0,0.4,0
	c0.3,0,0.8,0.1,1.4,0.2c1.2,0.1,2.8,0.3,4.5,0.5c1.8,0.2,3.4,0.4,4.5,0.6c0.6,0.1,1.1,0.1,1.4,0.2c0.2,0,0.3,0,0.4,0.1
	C199.3,235.8,199.3,235.8,199.3,235.8z"/>
<path class="st7" d="M197.1,236.4c0,0-0.5,0-1.3-0.1c-0.8-0.1-2-0.2-3.2-0.4c-1.3-0.1-2.4-0.3-3.2-0.4c-0.4-0.1-0.7-0.1-1-0.1
	c-0.2,0-0.4-0.1-0.4-0.1c0,0,0.1,0,0.4,0c0.2,0,0.6,0.1,1,0.1c0.8,0.1,2,0.2,3.2,0.4c1.3,0.1,2.4,0.3,3.2,0.4c0.4,0.1,0.7,0.1,1,0.1
	C197,236.4,197.1,236.4,197.1,236.4L197.1,236.4z"/>
<path class="st7" d="M201,234.2c0,0-3.3-0.4-7.4-0.9c-4.1-0.5-7.3-1-7.3-1c0,0,3.3,0.4,7.4,0.9C197.8,233.7,201,234.1,201,234.2
	L201,234.2z"/>
<path class="st7" d="M201.6,233.4c0,0-3.4-0.4-7.6-0.9c-4.2-0.6-7.6-1-7.6-1.1c0,0,3.4,0.4,7.6,0.9
	C198.2,232.9,201.6,233.3,201.6,233.4L201.6,233.4z"/>
<path class="st7" d="M202.2,232.4c0,0-3.5-0.4-7.8-1c-4.3-0.6-7.8-1.1-7.8-1.1c0,0,3.5,0.4,7.8,1
	C198.8,231.9,202.3,232.4,202.2,232.4L202.2,232.4z"/>
<path class="st7" d="M202.7,231.4c0,0-3.6-0.4-8-1c-4.4-0.6-8-1.1-8-1.1c0,0,3.6,0.4,8,1C199.2,230.9,202.7,231.4,202.7,231.4
	L202.7,231.4z"/>
<path class="st7" d="M203.2,230.5c0,0-3.6-0.4-8-1c-4.4-0.6-8-1.1-8-1.1c0,0,3.6,0.4,8,1C199.7,229.9,203.2,230.4,203.2,230.5
	L203.2,230.5z"/>
<path class="st7" d="M191.6,228.2c0,0-0.3,1.8-0.8,3.9c-0.5,2.2-0.9,3.9-0.9,3.9c0,0,0.3-1.8,0.8-3.9
	C191.2,230,191.6,228.2,191.6,228.2z"/>
<path class="st7" d="M190.3,228c0,0-0.3,1.8-0.8,3.9c-0.5,2.2-0.9,3.9-0.9,3.9c0,0,0.3-1.8,0.8-3.9C189.9,229.8,190.3,228,190.3,228
	z"/>
<path class="st7" d="M189,227.8c0,0-0.3,1.7-0.7,3.7c-0.4,2-0.8,3.7-0.8,3.7c0,0,0.3-1.7,0.7-3.7C188.6,229.4,188.9,227.8,189,227.8
	z"/>
<path class="st7" d="M187.5,228.1c0,0,0,0.1,0,0.2c0,0.2-0.1,0.4-0.1,0.6c-0.1,0.5-0.2,1.2-0.4,2c-0.1,0.8-0.3,1.5-0.4,2
	c-0.1,0.3-0.1,0.5-0.1,0.6c0,0.1-0.1,0.2-0.1,0.2c0,0,0-0.1,0-0.2c0-0.2,0.1-0.4,0.1-0.6c0.1-0.5,0.2-1.2,0.4-2
	c0.1-0.8,0.3-1.5,0.4-2c0.1-0.3,0.1-0.5,0.1-0.6C187.5,228.2,187.5,228.1,187.5,228.1L187.5,228.1z"/>
<path class="st7" d="M193.2,228.5c0,0-0.3,1.7-0.8,3.8c-0.4,2.1-0.8,3.8-0.9,3.8c0,0,0.3-1.7,0.8-3.8
	C192.7,230.2,193.1,228.5,193.2,228.5z"/>
<path class="st7" d="M194.7,228.8c0,0-0.3,1.7-0.8,3.8c-0.4,2.1-0.8,3.8-0.9,3.8c0,0,0.3-1.7,0.8-3.8
	C194.3,230.5,194.7,228.8,194.7,228.8L194.7,228.8z"/>
<path class="st7" d="M196.3,228.9c0,0-0.3,1.7-0.7,3.8c-0.4,2.1-0.8,3.7-0.8,3.7c0,0,0.3-1.7,0.7-3.8
	C195.8,230.6,196.2,228.9,196.3,228.9z"/>
<path class="st7" d="M197.8,229.1c0,0-0.3,1.7-0.7,3.7c-0.4,2.1-0.8,3.7-0.8,3.7c0,0,0.3-1.7,0.7-3.7
	C197.4,230.8,197.8,229.1,197.8,229.1z"/>
<path class="st7" d="M199.3,229.4c0,0-0.3,1.6-0.7,3.5c-0.4,1.9-0.8,3.5-0.8,3.5c0,0,0.3-1.6,0.7-3.5
	C198.9,231,199.3,229.4,199.3,229.4z"/>
<path class="st7" d="M200.9,229.5c0,0-0.3,1.5-0.6,3.3c-0.4,1.8-0.7,3.2-0.7,3.2c0,0,0.3-1.5,0.6-3.3
	C200.5,231,200.9,229.5,200.9,229.5L200.9,229.5z"/>
<path class="st7" d="M202.4,229.8c0,0-0.1,0.9-0.4,1.9c-0.2,1.1-0.4,1.9-0.5,1.9c0,0,0.1-0.9,0.4-1.9
	C202.2,230.6,202.4,229.8,202.4,229.8z"/>
<path class="st4" d="M252.9,235.6c0,0-10.1,0.1-22.5,0.1c-12.4,0-22.5,0-22.5-0.1c0,0,10.1-0.1,22.5-0.1
	C242.8,235.5,252.9,235.6,252.9,235.6z"/>
<path class="st4" d="M252,234.6c0,0-9.6,0.1-21.5,0.1c-11.9,0-21.5,0-21.5-0.1s9.6-0.1,21.5-0.1C242.4,234.5,252,234.5,252,234.6z"
	/>
<path class="st4" d="M250.7,233.5c0,0-9.1,0.1-20.3,0.1c-11.2,0-20.3,0-20.3-0.1s9.1-0.1,20.3-0.1
	C241.6,233.5,250.7,233.5,250.7,233.5z"/>
<path class="st4" d="M249.8,232.5c0,0-8.7,0.1-19.4,0.1c-10.7,0-19.4,0-19.4-0.1s8.7-0.1,19.4-0.1
	C241.1,232.4,249.8,232.5,249.8,232.5z"/>
<path class="st4" d="M248.3,231.5c0,0-8,0.1-18,0.1s-18,0-18-0.1s8-0.1,18-0.1S248.3,231.5,248.3,231.5z"/>
<path class="st4" d="M246.6,230.5c0,0-7.3,0.1-16.2,0.1s-16.2,0-16.2-0.1s7.3-0.1,16.2-0.1C239.4,230.5,246.6,230.5,246.6,230.5z"/>
<g class="st5">
	<path d="M233.8,199l-37.6-0.1c0,0,1.6,1.9,4.4,1.8c2.6,0,28.1,0,32.5,0c0,0,0.1,0,0.3,0c0.2,0,0.4,0,0.4,0c4.1,0,26,0,28.3,0
		c2.5,0,3.7-1.8,3.7-1.8H233.8z"/>
</g>
<path class="st4" d="M265.9,198.2l-7.1-12.3c-0.1-0.2-0.3-0.3-0.5-0.3l-24.5-1l-2.4-0.1c-0.3,0-0.6,0-0.8,0l-2.4,0.1l-24.5,1
	c-0.2,0-0.4,0.1-0.5,0.3l-7.1,12.3c-0.2,0.4,0,0.9,0.5,1c0.1,0,0.2,0,0.3,0c0.6,0.1,25.5,0,34.1,0c8.7,0,33.5,0.1,34.1,0
	c0.1,0,0.2,0,0.3,0C265.9,199.1,266.2,198.6,265.9,198.2L265.9,198.2z M262.6,197.7l-31.7,0.2l-31.7-0.2c-0.5,0-0.8-0.5-0.6-1
	c1.4-2.4,4.8-8.3,5.3-8.9c1-1.2,16.4-1.4,24.6-1.4c0,0,0.1,0,0.2,0c0.5,0,1.2,0,2.1,0c0.9,0,1.6,0,2.1,0c0.1,0,0.1,0,0.2,0
	c8.2,0,23.6,0.2,24.6,1.4c0.5,0.7,4,6.6,5.3,8.9C263.5,197.1,263.1,197.7,262.6,197.7z"/>
<path class="st4" d="M239,197c0-0.7,0.3-2.7,0.9-3.2c0.5-0.4,1.7-0.5,2.3-0.6c0,0,0,0,0.1,0c0.3,0,2.4,0.1,3,0.6
	c0.7,0.5,0.9,2.5,0.9,3.2v0c0,0.4-0.4,0.8-0.8,0.8h-5.6C239.4,197.8,239,197.5,239,197C239,197,239,197,239,197L239,197z"/>
<g class="st5">
	<path d="M239,197c0-0.7,0.3-2.7,0.9-3.2c0.5-0.4,1.7-0.5,2.3-0.6c0,0,0,0,0.1,0c0.3,0,2.4,0.1,3,0.6c0.7,0.5,0.9,2.5,0.9,3.2v0
		c0,0.4-0.4,0.8-0.8,0.8h-5.6C239.4,197.8,239,197.5,239,197C239,197,239,197,239,197L239,197z"/>
</g>
<path class="st4" d="M241.9,196.5c0-1.1,0.4-4.4,1.5-5.3c0.8-0.7,2.8-0.9,3.7-0.9c0,0,0.1,0,0.1,0c0.5,0,3.9,0.1,4.9,0.9
	c1.1,0.9,1.5,4.1,1.5,5.3c0,0,0,0,0,0c0,0.7-0.6,1.3-1.3,1.3h-9.2C242.5,197.8,241.9,197.2,241.9,196.5L241.9,196.5L241.9,196.5z"/>
<g class="st5">
	<path d="M253.2,230.1c0,0-0.2,0.9,2,4c0.7,0.9,2.8,2.8,3.5,3.5c0.2,0.2,0.4,0.3,0.7,0.2c2.2-0.1,12.6-0.6,14.4-1.1
		c0.8-0.2,1.4-0.5,1.8-0.8c0.8-0.5,1.2-1.3,1.2-2.2c-0.1-1.5-0.1-4.1-0.1-4.8c0-1-0.7-1.8-2-1.7
		C273.8,227.4,253.2,230.1,253.2,230.1L253.2,230.1z M259.9,229.9l13.6-1.2l0.4,5.5l-10,1.6L259.9,229.9L259.9,229.9z"/>
</g>
<g class="st5">
	<path d="M276.3,216.1c0,0,1,3.1-5.5,4.5c-6.6,1.5-16.3,4.1-16.3,4.1l5.2-3.7c0,0,15-2.5,15.4-4.8c0.4-2.6,0-5.6,0-5.6L276.3,216.1z
		"/>
</g>
<path class="st4" d="M250.9,230C250.9,230,250.9,230,250.9,230c0.1,0,0.2-0.1,0.3-0.1c0.2-0.1,0.4-0.1,0.8-0.2
	c0.7-0.2,1.7-0.4,2.9-0.7c2.5-0.6,5.9-1.3,9.7-1.9c1.9-0.3,3.7-0.6,5.4-0.8c0.8-0.1,1.6-0.2,2.4-0.3c0.7-0.1,1.4-0.2,2.1-0.2
	c0.6,0,1.2,0.2,1.6,0.5c0.4,0.3,0.7,0.6,0.9,0.9c0.2,0.3,0.3,0.6,0.3,0.8c0,0.2,0,0.3,0,0.3c0,0,0-0.4-0.4-1
	c-0.2-0.3-0.5-0.6-0.9-0.9c-0.4-0.3-1-0.4-1.6-0.5c-0.6,0-1.3,0.1-2.1,0.2c-0.7,0.1-1.5,0.2-2.4,0.3c-1.7,0.2-3.5,0.5-5.4,0.8
	c-3.8,0.6-7.2,1.3-9.7,1.8c-1.2,0.3-2.2,0.5-2.9,0.7c-0.3,0.1-0.6,0.2-0.8,0.2C251.1,230,251,230,250.9,230
	C250.9,230,250.9,230,250.9,230L250.9,230z"/>
<path class="st4" d="M277.1,222c0,0,0,0,0-0.1c0-0.1,0-0.2,0-0.3c0-0.3,0-0.7,0-1.2c0-1-0.1-2.4-0.2-4c-0.1-1.6-0.3-3-0.5-4
	c-0.1-0.5-0.1-0.9-0.2-1.2c0-0.1,0-0.2,0-0.3c0-0.1,0-0.1,0-0.1s0,0,0,0.1c0,0.1,0,0.2,0.1,0.3c0.1,0.3,0.1,0.7,0.2,1.2
	c0.2,1,0.4,2.4,0.5,4c0.1,1.6,0.2,3,0.2,4c0,0.5,0,0.9,0,1.2c0,0.1,0,0.2,0,0.3C277.1,222,277.1,222,277.1,222z"/>
<path class="st4" d="M272.6,208c0,0,0-0.4-0.1-0.9c-0.1-0.6-0.3-1.3-0.6-2.1c-0.3-0.8-0.5-1.6-0.7-2.1c-0.1-0.3-0.2-0.5-0.2-0.6
	c-0.1-0.2-0.1-0.2-0.1-0.2c0,0,0,0.1,0.1,0.2c0.1,0.1,0.2,0.4,0.3,0.6c0.2,0.5,0.5,1.3,0.8,2.1c0.3,0.8,0.5,1.6,0.5,2.2
	c0,0.1,0,0.3,0,0.4s0,0.2,0,0.3C272.6,208,272.6,208,272.6,208z"/>
<path class="st9" d="M271.4,209.5c0,0,3.4-1.2,3.8,1.4c0.4,2.6,0.4,5.2-0.2,6.1c-0.6,0.9-5.8,2.2-5.8,2.2l-9,2c0,0-0.6,0.1-0.3-0.6
	c0.4-0.8,2.8-6.1,4.2-7.4C266.7,210.8,271.4,209.5,271.4,209.5L271.4,209.5z"/>
<g class="st5">
	<path d="M268,219.4c0,0,0-6.2,0.4-6.9c0.5-0.7,5.8-3.1,5.8-3.1s-0.5-0.4-1.6-0.2s-2.8,0.7-4.3,1.4c-1.5,0.8-3.8,1.8-4.7,3.1
		c-0.4,0.5-1.2,1.8-1.9,3.2c-1,1.8-1.9,3.8-1.9,3.9c0,0.2-0.1,0.4,0.8,0.2C262.7,220.6,268,219.4,268,219.4L268,219.4z"/>
</g>
<path class="st9" d="M265.1,218.9c1.2,0,2.2-1,2.2-2.2c0-1.2-1-2.2-2.2-2.2c-1.2,0-2.2,1-2.2,2.2
	C262.9,217.9,263.9,218.9,265.1,218.9z"/>
<path class="st4" d="M262.9,216.7c0,0,0-0.2,0-0.5c0.1-0.3,0.3-0.8,0.8-1.2c0.3-0.2,0.6-0.4,0.9-0.4c0.4-0.1,0.8-0.1,1.2,0.1
	c0.2,0.1,0.4,0.2,0.6,0.3c0.2,0.1,0.3,0.3,0.5,0.5c0.3,0.4,0.4,0.8,0.4,1.3c0,0.5-0.2,1-0.4,1.3c-0.1,0.2-0.3,0.3-0.5,0.5
	c-0.2,0.1-0.4,0.2-0.6,0.3c-0.4,0.1-0.8,0.2-1.2,0.1c-0.4-0.1-0.7-0.2-0.9-0.4c-0.5-0.4-0.7-0.9-0.8-1.2
	C262.9,216.9,262.9,216.7,262.9,216.7c0,0,0,0.2,0.1,0.5c0.1,0.3,0.3,0.8,0.8,1.2c0.2,0.2,0.6,0.3,0.9,0.4c0.4,0.1,0.7,0,1.1-0.1
	c0.2-0.1,0.4-0.2,0.5-0.3c0.2-0.1,0.3-0.3,0.5-0.5c0.3-0.4,0.4-0.8,0.4-1.3c0-0.5-0.2-0.9-0.4-1.3c-0.1-0.2-0.3-0.3-0.5-0.5
	c-0.2-0.1-0.4-0.2-0.5-0.3c-0.4-0.1-0.8-0.2-1.1-0.1c-0.4,0.1-0.7,0.2-0.9,0.4c-0.5,0.4-0.7,0.9-0.8,1.2
	C262.9,216.5,262.9,216.7,262.9,216.7L262.9,216.7z"/>
<path class="st10" d="M265.1,216.6c-0.8,0-1.5,0.4-1.9,1.1c-0.2-0.3-0.3-0.7-0.3-1c0-1.2,1-2.1,2.1-2.1c1.2,0,2.1,1,2.1,2.1
	c0,0.4-0.1,0.7-0.3,1C266.6,217,265.9,216.6,265.1,216.6L265.1,216.6z"/>
<path class="st0" d="M264.1,216.6c0,0.5,0.4,0.9,0.9,0.9c0.5,0,0.9-0.4,0.9-0.9c0-0.5-0.4-0.9-0.9-0.9
	C264.6,215.7,264.1,216.1,264.1,216.6z"/>
<path class="st4" d="M264.1,216.6C264.1,216.6,264.1,216.6,264.1,216.6c0-0.1,0-0.2,0-0.2c0-0.1,0.1-0.4,0.3-0.5
	c0.2-0.2,0.6-0.3,0.9-0.2c0.4,0.1,0.7,0.5,0.7,0.9c0,0.4-0.3,0.8-0.7,0.9c-0.4,0.1-0.7,0-0.9-0.2c-0.2-0.2-0.3-0.4-0.3-0.5
	C264.1,216.8,264.1,216.7,264.1,216.6C264.1,216.6,264.1,216.6,264.1,216.6c0,0,0,0.1,0.1,0.2c0,0.1,0.1,0.3,0.3,0.5
	c0.2,0.2,0.5,0.2,0.9,0.1c0.3-0.1,0.6-0.4,0.6-0.8c0-0.4-0.3-0.7-0.6-0.8c-0.3-0.1-0.7,0-0.9,0.1c-0.2,0.2-0.3,0.4-0.3,0.5
	C264.2,216.5,264.2,216.6,264.1,216.6L264.1,216.6z"/>
<path class="st0" d="M264.3,215.1c0-0.1,0.1-0.2,0.5-0.4c0.3-0.1,0.9-0.2,1.4,0.1c0.5,0.3,0.8,0.8,0.9,1.1c0.1,0.4,0,0.6-0.1,0.6
	c-0.1,0-0.1-0.2-0.3-0.4c-0.1-0.3-0.4-0.6-0.8-0.8c-0.4-0.2-0.8-0.2-1.1-0.2C264.5,215.1,264.3,215.2,264.3,215.1z"/>
<path class="st0" d="M263.7,215.5c-0.1-0.1-0.2-0.2-0.1-0.3c0.1-0.1,0.2,0,0.3,0.1c0.1,0.1,0.1,0.2,0.1,0.3
	C263.9,215.6,263.8,215.5,263.7,215.5L263.7,215.5z"/>
<path class="st4" d="M230.5,209.8C230.5,209.8,230.6,209.8,230.5,209.8c0.1,0,0.2,0,0.3,0c0.2,0,0.6,0,1,0c0.9,0,2.1,0,3.6,0
	c3,0,7.2,0,11.9,0c2.3,0,4.5,0,6.5,0c1,0,2,0,2.9,0c0.4,0,0.9,0,1.3,0c0.4,0,0.8,0.1,1.1,0.3c0.6,0.5,1.1,0.9,1.6,1.3
	c0.2,0.2,0.4,0.4,0.6,0.5c0.2,0.2,0.4,0.3,0.6,0.3c0.2,0.1,0.4,0.1,0.6,0.1c0.2,0,0.3,0,0.4,0c0.1,0,0.2,0,0.3,0c0.1,0,0.1,0,0.1,0
	s0,0-0.1,0c-0.1,0-0.1,0-0.3,0c-0.1,0-0.3,0-0.4,0c-0.2,0-0.4,0-0.6,0c-0.2-0.1-0.4-0.1-0.6-0.3c-0.2-0.2-0.4-0.3-0.6-0.5
	c-0.5-0.4-1-0.8-1.6-1.3c-0.3-0.2-0.7-0.3-1.1-0.3c-0.4,0-0.8,0-1.3,0c-0.9,0-1.8,0-2.9,0c-2,0-4.2,0-6.5,0c-4.6,0-8.8,0-11.9,0
	c-1.5,0-2.7,0-3.6,0c-0.4,0-0.7,0-1,0C230.8,209.8,230.7,209.8,230.5,209.8C230.6,209.8,230.5,209.8,230.5,209.8L230.5,209.8z"/>
<path class="st4" d="M188.1,238.6c0.1-0.2,0.3-0.4,0.8-0.3c1.3,0.1,14.5,0.4,16.4,0c1.8-0.4,7.9-7.3,10.5-7.8
	c2.2-0.4,12.7-0.6,16-0.5c3.3-0.1,13.8,0.1,16,0.5c2.6,0.5,8.6,8,10.4,8.5c1.8,0.4,15.2-0.5,16.5-0.7c0.5-0.1,0.7,0.1,0.8,0.3
	c0.2,0.5-0.1,1-0.7,1c-2.8,0.1-13.7,0.2-15.8,0.2c-2.1,0-24-0.4-27.7-0.5c-5.5,0-24.4,0.2-26.4,0.2c-2.4,0-13.2,0.2-16.1,0.2
	C188.2,239.6,187.9,239.1,188.1,238.6L188.1,238.6z"/>
<path class="st4" d="M235.5,185.3c-0.1,0,0,1.9-1.6,1.9s-4.4,0-4.4,0l-1.3-2.4L235.5,185.3z"/>
<path class="st4" d="M234.8,187.8c0.2,0,0.4,0.1,0.5,0.3c0.4,0.5,1.1,1.5,1.1,1.9c0,0.4-0.2,0.8-0.7,0.8c-0.4,0.1-8.5,0-9.4,0
	c-0.1,0-0.1,0-0.2,0c-0.2-0.1-0.8-0.2-0.8-0.6c0-0.4,0.7-1.4,1-2c0.1-0.2,0.3-0.3,0.6-0.3H234.8z"/>
<path class="st4" d="M259.6,184.8C259.6,184.8,259.6,184.8,259.6,184.8c0.1,0.1,0.1,0.1,0.1,0.2c0.1,0.1,0.2,0.3,0.3,0.5
	c0.3,0.4,0.6,1.1,1.1,1.9c0.9,1.6,2.1,3.7,3.4,6.1c1.1,2,2.1,3.8,2.9,5.2l0,0c1,0.8,1.7,1.4,2.3,1.8c0.3,0.2,0.5,0.4,0.6,0.5
	c0.1,0.1,0.1,0.1,0.2,0.1c0,0,0.1,0,0.1,0c0,0,0,0-0.1,0c0,0-0.1-0.1-0.2-0.1c-0.2-0.1-0.4-0.3-0.6-0.5c-0.6-0.4-1.4-1-2.3-1.8l0,0
	l0,0c-0.8-1.4-1.8-3.2-2.9-5.2c-1.3-2.4-2.5-4.6-3.4-6.2c-0.4-0.8-0.8-1.4-1-1.9c-0.1-0.2-0.2-0.4-0.3-0.5
	C259.7,184.9,259.6,184.9,259.6,184.8C259.6,184.8,259.6,184.8,259.6,184.8L259.6,184.8z"/>
<path class="st4" d="M255.9,183.7c0,0,0.2,0,0.5,0.1c0.3,0.1,0.8,0.3,1.2,0.6c0.4,0.3,0.7,0.7,0.9,1c0.2,0.3,0.3,0.5,0.3,0.5
	c0,0-0.1-0.2-0.3-0.4c-0.2-0.3-0.5-0.6-0.9-0.9c-0.4-0.3-0.8-0.5-1.1-0.6C256.1,183.7,255.9,183.7,255.9,183.7L255.9,183.7z"/>
<g class="st5">
	<path d="M267.3,198.7l0.2,0.1c0.1-0.1-4.7,9.9-6.9,12.5l-1.5-1.2C262.3,207,264.7,202.2,267.3,198.7z"/>
</g>
<path class="st4" d="M257.9,237.8c0,0,0,0-0.1,0c-0.1,0-0.2-0.1-0.3-0.2c-0.3-0.2-0.6-0.5-1.1-0.9c-0.9-0.8-2.2-2-3.7-3.6
	c-0.4-0.4-0.8-0.8-1.2-1.2c-0.4-0.4-0.8-0.9-1.3-1.3c-0.5-0.4-1.1-0.7-1.7-1c-0.6-0.2-1.3-0.4-2-0.4c-0.4,0-0.7,0-1.1,0
	c-0.4,0-0.7,0-1.1,0c-0.8,0-1.5,0-2.3,0c-1.6,0-3.2,0-4.9,0c-6.7-0.1-12.7-0.1-17.1-0.2c-2.2,0-4,0-5.2-0.1c-0.6,0-1.1,0-1.4,0
	c-0.2,0-0.3,0-0.4,0c-0.1,0-0.1,0-0.1,0s0,0,0.1,0c0.1,0,0.2,0,0.4,0c0.3,0,0.8,0,1.4,0c1.2,0,3,0,5.2,0c4.4,0,10.4,0.1,17.1,0.1
	c1.7,0,3.3,0,4.9,0c0.8,0,1.6,0,2.3,0c0.4,0,0.8,0,1.1,0c0.4,0,0.7,0,1.1,0c0.7,0.1,1.4,0.2,2.1,0.4c0.6,0.2,1.2,0.6,1.7,1
	c0.5,0.4,0.9,0.9,1.3,1.3c0.4,0.4,0.8,0.8,1.2,1.2c1.5,1.6,2.8,2.8,3.7,3.6c0.5,0.4,0.8,0.7,1.1,0.9c0.1,0.1,0.2,0.2,0.3,0.2
	C257.8,237.8,257.9,237.8,257.9,237.8L257.9,237.8z"/>
<g class="st5">
	<path class="st0" d="M268.8,225.8c0.6-0.6,1.3-1.2,2-1.7c0.7-0.5,1.8-1,2.5-0.6c0.3,0.4,0.6,0.8,0.8,1.3c0.1,0.2,0.1,0.3,0,0.5
		c-0.1,0.2-0.3,0.2-0.6,0.3c-1.5,0.2-3.1,0.4-4.6,0.6c-0.1,0-0.2,0-0.2-0.1C268.6,225.9,268.7,225.8,268.8,225.8z"/>
</g>
<path class="st0" d="M270,239C270,239,270,239,270,239c-0.1,0.4,0.2,0.7,0.5,0.7l3.4-0.1c0.3,0,0.5-0.3,0.5-0.5l0-0.2
	c0-0.3-0.3-0.6-0.6-0.6l-3.3,0.2C270.2,238.6,270,238.8,270,239L270,239z"/>
<path class="st7" d="M207.2,237c0,0,10.9-0.1,24.2-0.1c13.4,0,24.2,0,24.2,0.1s-10.9,0.1-24.2,0.1C218,237.1,207.2,237,207.2,237z"
	/>
<path class="st7" d="M245,238.8h1.4l0.1-1.8h-1.6L245,238.8z"/>
<path class="st7" d="M231.7,238.8h1.4l0.1-1.8h-1.6L231.7,238.8z"/>
<path class="st7" d="M218.4,238.8h1.4l0.1-1.8h-1.6L218.4,238.8z"/>
<path class="st7" d="M207.9,236.4c2.6-2.2,6-5.6,7.8-5.9c2.2-0.4,12.7-0.6,16-0.5c3.3-0.1,13.8,0.1,16,0.5c1.7,0.3,4.7,3.5,7.2,5.9
	H207.9L207.9,236.4z"/>
<path class="st4" d="M276.4,235.2c0,0,0,0-0.1-0.1c-0.1-0.1-0.2-0.2-0.3-0.3c-0.3-0.2-0.7-0.6-1.3-1l0,0c-1.7,0.2-4.2,0.5-7,0.9
	c-1.4,0.2-2.7,0.3-3.8,0.5l0,0c-1.4,0.8-2.6,1.4-3.4,1.8c-0.4,0.2-0.7,0.4-1,0.5c-0.1,0.1-0.2,0.1-0.3,0.1c-0.1,0-0.1,0-0.1,0
	c0,0,0,0,0.1-0.1c0.1,0,0.1-0.1,0.3-0.1c0.2-0.1,0.6-0.3,1-0.5c0.8-0.5,2-1.1,3.4-1.9l0,0h0c1.2-0.1,2.5-0.3,3.8-0.5
	c2.8-0.3,5.3-0.7,7-0.9h0l0,0c0.5,0.4,1,0.8,1.3,1c0.1,0.1,0.3,0.2,0.3,0.3C276.3,235.2,276.4,235.2,276.4,235.2L276.4,235.2z"/>
<path class="st4" d="M259.1,231.4c0,0-0.7-1.2,0-1.5c0.8-0.3,14-1.9,14.5-2c1.1-0.1,1.5,0.4,1.7,1.6c0.3,1.3,0.8,4.4-0.3,5.3
	c-1.1,0.9-2.7,1.3-6,1.5c-3.3,0.2-5,0.3-6.6-0.6C260.9,234.9,259.1,231.4,259.1,231.4L259.1,231.4z"/>
<path class="st4" d="M259.7,221c0,0,0.1-0.4,0.4-1c0.3-0.6,0.7-1.6,1.2-2.7c0.3-0.6,0.6-1.2,1-1.8c0.4-0.6,0.8-1.3,1.3-2
	c0.3-0.3,0.6-0.7,0.9-1c0.3-0.3,0.7-0.6,1.1-0.8c0.4-0.2,0.8-0.4,1.2-0.7c0.4-0.2,0.8-0.4,1.3-0.7c0.9-0.4,1.7-0.8,2.6-1.1
	c0.4-0.1,0.9-0.2,1.3-0.3c0.4-0.1,0.9-0.2,1.3-0.1c0.4,0,0.9,0.1,1.3,0.4c0.4,0.3,0.6,0.7,0.7,1c0.1,0.4,0.2,0.7,0.3,1.1
	c0.1,0.3,0.1,0.7,0.2,1c0.2,1.2,0.4,2.2,0.5,2.9c0.1,0.7,0.1,1.1,0.1,1.1c0,0-0.1-0.4-0.3-1c-0.2-0.7-0.4-1.7-0.7-2.9
	c-0.1-0.3-0.1-0.6-0.2-1c-0.1-0.3-0.2-0.7-0.3-1c-0.1-0.3-0.3-0.6-0.6-0.8c-0.3-0.2-0.6-0.3-1-0.3c-0.4,0-0.8,0-1.2,0.1
	c-0.4,0.1-0.8,0.2-1.3,0.3c-0.8,0.3-1.7,0.6-2.5,1c-0.4,0.2-0.8,0.4-1.2,0.6c-0.4,0.2-0.8,0.4-1.2,0.6c-0.4,0.2-0.7,0.5-1.1,0.7
	c-0.3,0.3-0.6,0.6-0.8,0.9c-0.5,0.6-0.9,1.3-1.3,1.9c-0.4,0.6-0.7,1.2-1,1.8c-0.6,1.1-1,2-1.4,2.6
	C259.9,220.7,259.8,221.1,259.7,221L259.7,221z"/>
<path class="st10" d="M271.6,214.4c-1,0-1.9,0.6-2.4,1.4c-0.2-0.4-0.3-0.8-0.3-1.3c0-1.5,1.2-2.7,2.7-2.7c1.5,0,2.7,1.2,2.7,2.7
	c0,0.5-0.1,0.9-0.3,1.3C273.5,215,272.7,214.4,271.6,214.4z"/>
<path class="st0" d="M270.5,214.4c0,0.6,0.5,1.2,1.2,1.2c0.6,0,1.2-0.5,1.2-1.2s-0.5-1.2-1.2-1.2C271,213.3,270.5,213.8,270.5,214.4
	z"/>
<path class="st4" d="M270.5,214.4C270.5,214.4,270.5,214.4,270.5,214.4c0-0.1,0-0.2,0-0.3c0-0.2,0.1-0.5,0.4-0.7
	c0.3-0.2,0.7-0.3,1.1-0.2c0.2,0.1,0.4,0.2,0.6,0.4c0.2,0.2,0.2,0.5,0.2,0.7c0,0.3-0.1,0.5-0.2,0.7c-0.1,0.2-0.4,0.3-0.6,0.4
	c-0.4,0.2-0.9,0-1.1-0.2c-0.3-0.2-0.4-0.5-0.4-0.7C270.5,214.6,270.4,214.5,270.5,214.4C270.5,214.4,270.5,214.4,270.5,214.4
	c0,0,0,0.1,0.1,0.3c0,0.2,0.2,0.4,0.4,0.6c0.3,0.2,0.7,0.3,1.1,0.2c0.4-0.1,0.7-0.6,0.7-1.1c0-0.5-0.3-0.9-0.7-1.1
	c-0.4-0.2-0.8,0-1.1,0.2c-0.3,0.2-0.4,0.4-0.4,0.6C270.5,214.3,270.5,214.4,270.5,214.4L270.5,214.4z"/>
<path class="st4" d="M268.9,214.5c0,0,0-0.1,0-0.2c0-0.1,0-0.1,0-0.2c0-0.1,0-0.2,0.1-0.3c0.1-0.4,0.4-1,1-1.5
	c0.3-0.2,0.7-0.4,1.2-0.5c0.5-0.1,1-0.1,1.5,0.1c0.2,0.1,0.5,0.2,0.7,0.4c0.2,0.2,0.4,0.4,0.6,0.6c0.3,0.5,0.5,1,0.5,1.6
	c0,0.6-0.2,1.2-0.5,1.6c-0.2,0.2-0.4,0.4-0.6,0.6c-0.2,0.2-0.5,0.3-0.7,0.4c-0.5,0.2-1,0.2-1.5,0.1c-0.5-0.1-0.8-0.3-1.2-0.5
	c-0.6-0.5-0.9-1.1-1-1.5c0-0.1,0-0.2-0.1-0.3c0-0.1,0-0.2,0-0.2C268.9,214.6,268.9,214.5,268.9,214.5c0,0,0,0.2,0.1,0.7
	c0.1,0.4,0.4,1,1,1.5c0.3,0.2,0.7,0.4,1.1,0.5c0.4,0.1,0.9,0.1,1.4-0.1c0.2-0.1,0.5-0.2,0.7-0.4c0.2-0.2,0.4-0.3,0.6-0.6
	c0.3-0.4,0.5-1,0.5-1.6c0-0.6-0.2-1.1-0.5-1.6c-0.2-0.2-0.4-0.4-0.6-0.6c-0.2-0.2-0.4-0.3-0.7-0.4c-0.5-0.2-1-0.2-1.4-0.1
	c-0.4,0.1-0.8,0.3-1.1,0.5c-0.6,0.5-0.9,1.1-1,1.5C268.9,214.3,268.9,214.5,268.9,214.5z"/>
<path class="st0" d="M270.6,212.6c0-0.1,0.1-0.3,0.6-0.4c0.4-0.1,1.1-0.2,1.7,0.1c0.6,0.3,1,0.9,1.1,1.3c0.1,0.4,0,0.7,0,0.7
	c-0.1,0-0.1-0.2-0.3-0.6c-0.2-0.3-0.5-0.8-1-1c-0.5-0.3-1-0.3-1.4-0.2C270.9,212.6,270.6,212.7,270.6,212.6L270.6,212.6z"/>
<path class="st0" d="M269.9,213c-0.1-0.1-0.2-0.2-0.1-0.3c0.1-0.1,0.2,0,0.3,0.1c0.1,0.1,0.1,0.2,0.1,0.3
	C270.2,213.1,270,213.1,269.9,213L269.9,213z"/>
<path class="st4" d="M254.5,224.8c0-0.1,3.5-1.2,8-2.3c4.4-1.1,8.1-1.9,8.1-1.8c0,0.1-3.5,1.2-8,2.3
	C258.2,224.1,254.5,224.9,254.5,224.8L254.5,224.8z"/>
<path class="st4" d="M275.9,209.9C275.9,209.9,275.9,209.9,275.9,209.9c0-0.1,0-0.2-0.1-0.2c0-0.2-0.1-0.4-0.3-0.6
	c-0.2-0.3-0.4-0.6-0.8-0.8c-0.1-0.1-0.2-0.1-0.3-0.1c-0.1,0-0.2-0.1-0.3-0.1c-0.1,0-0.2-0.1-0.4-0.1c-0.1,0-0.3,0-0.4,0
	c-0.5,0-1.1,0.2-1.8,0.4c-0.6,0.2-1.3,0.4-2,0.6c-1.4,0.5-2.9,1.1-4.4,1.8c-0.2,0.1-0.4,0.2-0.6,0.3c-0.2,0.1-0.3,0.2-0.5,0.3
	c-0.3,0.3-0.6,0.5-0.8,0.8c-0.5,0.6-0.9,1.3-1.3,1.9c-0.8,1.2-1.5,2.3-2.1,3.2c-0.6,0.9-1,1.7-1.3,2.2c-0.1,0.3-0.3,0.5-0.3,0.6
	c0,0.1-0.1,0.1-0.1,0.2c0,0,0,0.1,0,0.1c0,0,0,0,0-0.1c0,0,0-0.1,0.1-0.2c0.1-0.1,0.2-0.4,0.3-0.6c0.3-0.5,0.7-1.3,1.3-2.3
	c0.6-0.9,1.3-2.1,2.1-3.3c0.4-0.6,0.8-1.2,1.3-1.9c0.2-0.3,0.5-0.6,0.9-0.9c0.2-0.1,0.3-0.3,0.5-0.4c0.2-0.1,0.4-0.2,0.6-0.3
	c1.5-0.7,3-1.3,4.4-1.8c0.7-0.2,1.3-0.4,2-0.6c0.6-0.2,1.2-0.3,1.8-0.3c0.1,0,0.3,0,0.4,0c0.1,0,0.3,0,0.4,0.1
	c0.1,0,0.2,0.1,0.3,0.1c0.1,0.1,0.2,0.1,0.3,0.2c0.4,0.2,0.6,0.5,0.8,0.8c0.1,0.3,0.2,0.5,0.2,0.7
	C275.9,209.7,275.9,209.8,275.9,209.9C275.9,209.9,275.9,209.9,275.9,209.9L275.9,209.9z"/>
<g class="st5">
	<path class="st0" d="M276.8,211.1c0.2,0.1,1.3,0.8,1.8,1c0.5,0.3,0.9,0.7,1,1.2c0.1,0.5,0,1.1-0.2,1.6c-0.5,1.7-1,4.7-1.5,6.3
		C277.5,218.1,277.1,213,276.8,211.1"/>
</g>
<path class="st7" d="M261.7,235c0,0,3.1-0.5,7-1c3.9-0.5,7-0.9,7-0.9c0,0-3.1,0.5-7,1C264.8,234.7,261.7,235.1,261.7,235z"/>
<path class="st7" d="M262.7,235.8c0,0,0,0,0.1,0c0.1,0,0.2,0,0.4-0.1c0.3-0.1,0.8-0.1,1.4-0.2c1.2-0.2,2.8-0.4,4.5-0.6
	c1.8-0.2,3.4-0.4,4.5-0.5c0.6-0.1,1-0.1,1.4-0.2c0.2,0,0.3,0,0.4,0c0.1,0,0.1,0,0.1,0c0,0,0,0-0.1,0c-0.1,0-0.2,0-0.4,0.1
	c-0.3,0-0.8,0.1-1.4,0.2c-1.2,0.2-2.8,0.4-4.5,0.6c-1.8,0.2-3.4,0.4-4.5,0.5c-0.6,0.1-1,0.1-1.4,0.2c-0.2,0-0.3,0-0.4,0
	C262.7,235.8,262.7,235.8,262.7,235.8z"/>
<path class="st7" d="M264.9,236.4c0,0,0.1,0,0.4,0c0.2,0,0.6-0.1,1-0.1c0.8-0.1,2-0.2,3.2-0.4c1.3-0.1,2.4-0.3,3.2-0.4
	c0.4,0,0.7-0.1,1-0.1c0.2,0,0.4,0,0.4,0s-0.1,0-0.4,0.1c-0.2,0-0.6,0.1-1,0.1c-0.8,0.1-2,0.2-3.2,0.4c-1.3,0.1-2.4,0.3-3.2,0.4
	C265.4,236.4,264.9,236.4,264.9,236.4L264.9,236.4z"/>
<path class="st7" d="M261,234.2c0,0,3.3-0.5,7.3-1c4.1-0.5,7.4-0.9,7.4-0.9c0,0-3.3,0.5-7.3,1C264.3,233.8,261,234.2,261,234.2
	L261,234.2z"/>
<path class="st7" d="M260.4,233.4c0,0,3.4-0.5,7.6-1.1c4.2-0.6,7.6-1,7.6-0.9c0,0-3.4,0.5-7.6,1.1
	C263.8,233,260.4,233.4,260.4,233.4L260.4,233.4z"/>
<path class="st7" d="M259.7,232.4c0,0,3.5-0.5,7.8-1.1c4.3-0.6,7.8-1,7.8-1c0,0-3.5,0.5-7.8,1.1C263.2,232,259.7,232.4,259.7,232.4
	L259.7,232.4z"/>
<path class="st7" d="M259.2,231.4c0,0,3.6-0.5,8-1.1c4.4-0.6,8-1,8-1c0,0-3.6,0.5-8,1.1C262.8,231,259.3,231.5,259.2,231.4z"/>
<path class="st7" d="M258.8,230.5c0,0,3.6-0.5,8-1.1c4.4-0.6,8-1,8-1c0,0-3.6,0.5-8,1.1C262.4,230,258.8,230.5,258.8,230.5z"/>
<path class="st7" d="M270.4,228.2c0,0,0.4,1.7,0.9,3.9c0.5,2.2,0.8,3.9,0.8,3.9c0,0-0.4-1.7-0.9-3.9
	C270.7,230,270.3,228.2,270.4,228.2z"/>
<path class="st7" d="M271.7,228c0,0,0.4,1.7,0.9,3.9s0.8,3.9,0.8,3.9c0,0-0.4-1.7-0.9-3.9C272,229.8,271.7,228,271.7,228z"/>
<path class="st7" d="M273,227.8c0,0,0.4,1.6,0.8,3.7c0.4,2,0.8,3.7,0.7,3.7c0,0-0.4-1.6-0.8-3.7C273.3,229.5,273,227.8,273,227.8z"
	/>
<path class="st7" d="M274.5,228.1c0,0,0,0.1,0.1,0.2c0,0.1,0.1,0.3,0.1,0.6c0.1,0.5,0.3,1.2,0.4,2c0.1,0.8,0.3,1.4,0.4,2
	c0,0.2,0.1,0.4,0.1,0.6c0,0.1,0,0.2,0,0.2c0,0,0-0.1-0.1-0.2c0-0.1-0.1-0.3-0.1-0.6c-0.1-0.5-0.3-1.2-0.4-2c-0.1-0.8-0.3-1.4-0.4-2
	c0-0.2-0.1-0.4-0.1-0.6C274.5,228.2,274.4,228.1,274.5,228.1L274.5,228.1z"/>
<path class="st7" d="M268.8,228.5c0,0,0.4,1.7,0.9,3.8c0.4,2.1,0.8,3.8,0.8,3.8c0,0-0.4-1.7-0.9-3.8
	C269.1,230.2,268.8,228.5,268.8,228.5z"/>
<path class="st7" d="M267.3,228.8c0,0,0.4,1.7,0.9,3.8c0.4,2.1,0.8,3.8,0.8,3.8c0,0-0.4-1.7-0.9-3.8
	C267.6,230.5,267.3,228.8,267.3,228.8L267.3,228.8z"/>
<path class="st7" d="M265.7,228.9c0,0,0.4,1.7,0.8,3.7c0.4,2.1,0.8,3.7,0.7,3.8c0,0-0.4-1.7-0.8-3.7
	C266,230.6,265.7,228.9,265.7,228.9z"/>
<path class="st7" d="M264.2,229.1c0,0,0.4,1.7,0.8,3.7c0.4,2.1,0.8,3.7,0.7,3.7c0,0-0.4-1.7-0.8-3.7
	C264.5,230.8,264.2,229.1,264.2,229.1z"/>
<path class="st7" d="M262.7,229.4c0,0,0.4,1.5,0.8,3.5c0.4,1.9,0.7,3.5,0.7,3.5c0,0-0.4-1.5-0.8-3.5
	C262.9,231,262.6,229.4,262.7,229.4z"/>
<path class="st7" d="M261.1,229.5c0,0,0.4,1.4,0.7,3.2c0.4,1.8,0.7,3.3,0.6,3.3c0,0-0.4-1.4-0.7-3.2
	C261.4,231,261.1,229.5,261.1,229.5L261.1,229.5z"/>
<path class="st7" d="M259.6,229.8c0,0,0.2,0.8,0.5,1.9c0.2,1.1,0.4,1.9,0.4,1.9c0,0-0.2-0.8-0.5-1.9
	C259.7,230.7,259.5,229.8,259.6,229.8z"/>
<path class="st4" d="M209.1,235.6c0,0,10.1-0.1,22.5-0.1c12.4,0,22.5,0,22.5,0.1c0,0-10.1,0.1-22.5,0.1
	C219.1,235.6,209.1,235.6,209.1,235.6z"/>
<path class="st4" d="M210,234.6c0,0,9.6-0.1,21.5-0.1c11.9,0,21.5,0,21.5,0.1s-9.6,0.1-21.5,0.1C219.6,234.6,210,234.6,210,234.6z"
	/>
<path class="st4" d="M211.3,233.5c0,0,9.1-0.1,20.3-0.1c11.2,0,20.3,0,20.3,0.1s-9.1,0.1-20.3,0.1
	C220.4,233.6,211.3,233.6,211.3,233.5z"/>
<path class="st4" d="M212.2,232.5c0,0,8.7-0.1,19.4-0.1c10.7,0,19.4,0,19.4,0.1s-8.7,0.1-19.4,0.1
	C220.9,232.5,212.2,232.5,212.2,232.5z"/>
<path class="st4" d="M213.7,231.5c0,0,8-0.1,18-0.1c9.9,0,18,0,18,0.1s-8,0.1-18,0.1C221.7,231.6,213.7,231.5,213.7,231.5z"/>
<path class="st4" d="M215.4,230.5c0,0,7.3-0.1,16.2-0.1c9,0,16.2,0,16.2,0.1s-7.3,0.1-16.2,0.1C222.6,230.6,215.4,230.5,215.4,230.5
	z"/>
<path class="st4" d="M231.3,187h-0.6v1h0.6V187z"/>
<g class="st5">
	<path class="st0" d="M200.2,205.5c0,0,1-0.3,0.8-1.1c0,0,2.9,1.7,6.8,1.6c3.9-0.1,18.3,0.8,18.3,0.8l1.6,2.3c0,0-24.3-0.6-25.2,0
		L200.2,205.5z"/>
</g>
<g class="st5">
	<path class="st0" d="M191.1,207.3c-0.2,0,6.2,2.2,7,2.9l1.3-0.3l-4.6-7.6l-0.5-0.1C194.4,202.3,192.8,207.4,191.1,207.3
		L191.1,207.3z"/>
</g>
<g class="st5">
	<path class="st0" d="M206.5,184.4c0.1,0,25-1.1,25-1.4c0-0.3-11.1-0.3-16,0C210.6,183.3,206.5,184.4,206.5,184.4z"/>
</g>
<g class="st11">
	<path class="st0" d="M196.1,198.2l20.2-5l3.8-8.3l-16.4,0.7c-0.3,0-0.4,0.1-0.5,0.3L196.1,198.2z"/>
</g>
<linearGradient id="SVGID_00000060025790315236066990000011011442903800057998_" gradientUnits="userSpaceOnUse" x1="166.596" y1="280.944" x2="171.131" y2="280.944" gradientTransform="matrix(1 0 0 -1 0 494.4)">
	<stop  offset="0" style="stop-color:#3C3C3B"/>
	<stop  offset="1" style="stop-color:#1D1D1B"/>
</linearGradient>
<path style="fill:url(#SVGID_00000060025790315236066990000011011442903800057998_);" d="M171.1,174.9h-4.5V252h4.5V174.9z"/>
<path class="st13" d="M169.6,176.4h-1.5V252h1.5V176.4z"/>
<linearGradient id="SVGID_00000104682716051777647800000006078318918089396913_" gradientUnits="userSpaceOnUse" x1="163.066" y1="240.9495" x2="174.664" y2="240.9495" gradientTransform="matrix(1 0 0 -1 0 494.4)">
	<stop  offset="0" style="stop-color:#3C3C3B"/>
	<stop  offset="1" style="stop-color:#1D1D1B"/>
</linearGradient>
<path style="fill:url(#SVGID_00000104682716051777647800000006078318918089396913_);" d="M174.5,251.9h-11.2c-0.1,0-0.2,0.1-0.2,0.2
	v2.8c0,0.1,0.1,0.2,0.2,0.2h11.2c0.1,0,0.2-0.1,0.2-0.2v-2.8C174.7,252,174.6,251.9,174.5,251.9z"/>
<path class="st13" d="M169.4,251.9h-1.1v3.2h1.1V251.9z"/>
<linearGradient id="SVGID_00000003084030059285581620000015216896826737723816_" gradientUnits="userSpaceOnUse" x1="149.0589" y1="357.4358" x2="188.6099" y2="317.7908" gradientTransform="matrix(1 0 0 -1 0 494.4)">
	<stop  offset="0" style="stop-color:#4CD964"/>
	<stop  offset="1" style="stop-color:#339443"/>
</linearGradient>
<path style="fill:url(#SVGID_00000003084030059285581620000015216896826737723816_);" d="M184.8,136h-32.7c-2.3,0-4.2,1.9-4.2,4.2
	v32.6c0,2.3,1.9,4.2,4.2,4.2h32.7c2.3,0,4.2-1.9,4.2-4.2v-32.6C189,137.9,187.1,136,184.8,136z"/>
<path class="st0" d="M179.4,152.3c0,5-4,9-9.2,9h-4v8.3h-6v-26.3h10C175.4,143.3,179.4,147.3,179.4,152.3z M173.4,152.3
	c0-1.9-1.4-3.4-3.2-3.4h-4v6.8h4C172,155.7,173.4,154.2,173.4,152.3z"/>
<path class="st0" d="M184.8,174.7h-32.7c-1.1,0-2-0.9-2-2v-32.6c0-1.1,0.9-2,2-2h32.7c1.1,0,2,0.9,2,2v32.6
	C186.8,173.8,185.9,174.7,184.8,174.7z M152.2,139c-0.7,0-1.2,0.5-1.2,1.2v32.6c0,0.7,0.5,1.2,1.2,1.2h32.7c0.7,0,1.2-0.5,1.2-1.2
	v-32.6c0-0.7-0.5-1.2-1.2-1.2H152.2z"/>
<defs>
	<filter id="Adobe_OpacityMaskFilter" filterUnits="userSpaceOnUse" x="132.7" y="122" width="53.2" height="53.1">
		<feColorMatrix  type="matrix" values="1 0 0 0 0  0 1 0 0 0  0 0 1 0 0  0 0 0 1 0"/>
	</filter>
</defs>
<mask maskUnits="userSpaceOnUse" x="132.7" y="122" width="53.2" height="53.1" id="mask0_4001_4834_00000123418832108540180020000016618412344552670849_">
	
		<linearGradient id="SVGID_00000004504794283596780070000015679597063973113276_" gradientUnits="userSpaceOnUse" x1="149.0589" y1="357.4358" x2="188.6099" y2="317.7908" gradientTransform="matrix(1 0 0 -1 0 494.4)">
		<stop  offset="0" style="stop-color:#03ACFB"/>
		<stop  offset="1" style="stop-color:#0269FB"/>
	</linearGradient>
	<path style="fill:url(#SVGID_00000004504794283596780070000015679597063973113276_);filter:url(#Adobe_OpacityMaskFilter);" d="
		M184.8,136h-32.7c-2.3,0-4.2,1.9-4.2,4.2v32.6c0,2.3,1.9,4.2,4.2,4.2h32.7c2.3,0,4.2-1.9,4.2-4.2v-32.6
		C189,137.9,187.1,136,184.8,136z"/>
</mask>
<g class="st17">
	<path class="st18" d="M159.3,175c14.7,0,26.6-11.9,26.6-26.5c0-14.7-11.9-26.5-26.6-26.5c-14.7,0-26.6,11.9-26.6,26.5
		C132.7,163.1,144.6,175,159.3,175z"/>
</g>
<circle class="st0" cx="155.5" cy="491.5" r="3.5"/>
<circle class="st0" cx="151" cy="422" r="6"/>
<circle class="st0" cx="272" cy="481" r="6"/>
<circle class="st0" cx="211" cy="394" r="4"/>
</svg>
